<svg width="280" height="110" fill="none" xmlns="http://www.w3.org/2000/svg"><g clip-path="url(#a)" fill="#DFD4A6"><path fill-rule="evenodd" clip-rule="evenodd" d="m245.409.886 33.006 26.73-.166 68.527-247.808 12.86L.973 85.9.885 30.102 32.87 1.079l212.54-.193ZM33.554 2.85 2.659 30.886l.085 54.15L31.012 107.2 276.48 94.46l.16-66-31.859-25.802-211.228.193Z"/><path fill-rule="evenodd" clip-rule="evenodd" d="M9.51 5.547h259.542v98.666H9.511V5.547Zm1.773 1.772v95.122H267.28V7.319H11.283Z"/><path fill-rule="evenodd" clip-rule="evenodd" d="M.89.886h27.323v1.772H2.661v22.865H.89V.886ZM250.024 1.031h28.142V22.36h-1.772V2.803h-26.37V1.031ZM.973 90.453h1.772v16.65h23.239v1.772H.973V90.453ZM276.59 107.215v-6.883h1.773v8.655H130.332v-1.772H276.59ZM260.536 84.93H18.026v-1.772h242.51v1.772Z"/><path d="M28.966 14.266h.697l3.439 9.022H32.01l-.887-2.416h-3.617l-.887 2.416h-1.065l3.413-9.022Zm1.83 5.76-.929-2.594c-.145-.4-.257-.716-.334-.948a38.828 38.828 0 0 1-.198-.608h-.027c-.055.173-.123.376-.205.608-.082.232-.196.548-.341.948l-.942 2.594h2.975ZM42.643 22.797a5.155 5.155 0 0 1-1.27.484 5.558 5.558 0 0 1-1.242.143c-.673 0-1.274-.11-1.801-.334a3.812 3.812 0 0 1-1.345-.935c-.368-.4-.65-.878-.846-1.433a5.421 5.421 0 0 1-.293-1.815c0-.655.107-1.27.32-1.843.214-.573.517-1.069.908-1.488a4.236 4.236 0 0 1 1.413-.989 4.497 4.497 0 0 1 1.822-.362c.482 0 .916.048 1.303.144.387.095.694.207.921.334v.955a5.016 5.016 0 0 0-.996-.41c-.346-.1-.75-.15-1.215-.15-.518 0-.987.099-1.406.294a3.231 3.231 0 0 0-1.071.799 3.652 3.652 0 0 0-.69 1.187 4.282 4.282 0 0 0-.245 1.46c0 .546.077 1.047.232 1.502.154.455.375.846.662 1.174.286.327.635.582 1.044.764.41.182.869.273 1.379.273a4.01 4.01 0 0 0 1.153-.157c.35-.104.68-.239.99-.403l.273.806ZM46.11 14.293h1.828c.473 0 .871.041 1.194.123.323.082.603.2.84.355.364.227.63.514.798.86.169.346.253.719.253 1.119 0 .628-.16 1.135-.478 1.522-.319.387-.769.671-1.351.853v.027c.136.073.291.23.464.471.173.241.377.562.614.962l1.638 2.703h-1.174l-1.57-2.607c-.209-.355-.4-.637-.573-.846-.173-.21-.327-.332-.464-.369h-1.01v3.822h-1.01v-8.995Zm1.855 4.327c.483 0 .897-.1 1.242-.3.237-.137.426-.33.567-.58.141-.25.212-.548.212-.894 0-.264-.046-.508-.137-.73a1.264 1.264 0 0 0-.436-.553 1.638 1.638 0 0 0-.567-.308 2.78 2.78 0 0 0-.867-.116h-.86v3.48h.846ZM55.24 14.293h4.34l-.327.874H56.25v3.084h2.962v.874H56.25v3.29h3.413v.873H55.24v-8.995ZM63.403 14.293h2.156c.8 0 1.501.112 2.102.335.6.223 1.096.532 1.488.928.39.396.684.867.88 1.413.196.546.294 1.137.294 1.774 0 .646-.098 1.247-.294 1.802a3.874 3.874 0 0 1-.887 1.44c-.396.405-.896.723-1.501.955-.606.232-1.313.348-2.123.348h-2.115v-8.995Zm2.101 8.121c.7 0 1.29-.1 1.768-.299.478-.2.864-.466 1.16-.802a3 3 0 0 0 .635-1.176c.127-.45.19-.927.19-1.435 0-.516-.074-.99-.225-1.42a2.94 2.94 0 0 0-.689-1.116c-.31-.312-.7-.557-1.174-.734-.473-.176-1.037-.265-1.692-.265h-1.065v7.248h1.092ZM74.007 14.293h1.01v8.995h-1.01v-8.995ZM80.818 15.167h-2.58v-.874h6.456l-.328.874h-2.538V23.3h-1.01v-8.134ZM90.153 14.266h.696l3.44 9.022h-1.092l-.887-2.416h-3.617l-.887 2.416H86.74l3.412-9.022Zm1.83 5.76-.929-2.594a39.602 39.602 0 0 1-.532-1.556h-.027c-.055.173-.123.376-.205.608-.082.232-.196.548-.341.948l-.942 2.594h2.975ZM103.83 22.797a5.153 5.153 0 0 1-1.27.484 5.55 5.55 0 0 1-1.242.143c-.673 0-1.274-.11-1.802-.334a3.812 3.812 0 0 1-1.344-.935c-.368-.4-.65-.878-.846-1.433a5.419 5.419 0 0 1-.293-1.815c0-.655.106-1.27.32-1.843.214-.573.517-1.069.908-1.488a4.236 4.236 0 0 1 1.412-.989 4.497 4.497 0 0 1 1.823-.362c.482 0 .916.048 1.303.144.387.095.694.207.921.334v.955a5.014 5.014 0 0 0-.996-.41c-.346-.1-.751-.15-1.215-.15-.519 0-.987.099-1.406.294a3.233 3.233 0 0 0-1.071.799 3.656 3.656 0 0 0-.69 1.187 4.28 4.28 0 0 0-.245 1.46c0 .546.077 1.047.232 1.502.155.455.375.846.662 1.174.286.327.634.582 1.044.764.409.182.869.273 1.379.273.418 0 .802-.052 1.153-.157.35-.104.68-.239.989-.403l.274.806ZM107.296 14.293h1.01v8.995h-1.01v-8.995ZM116.373 23.425c-.628 0-1.211-.11-1.748-.328a4.051 4.051 0 0 1-1.385-.92 4.263 4.263 0 0 1-.914-1.44c-.224-.565-.335-1.197-.335-1.898 0-.683.11-1.306.328-1.87a4.37 4.37 0 0 1 .914-1.46c.391-.41.856-.726 1.392-.949a4.517 4.517 0 0 1 1.748-.334 4.47 4.47 0 0 1 1.76.34c.537.228.999.547 1.386.956.386.41.689.897.907 1.46.219.565.328 1.184.328 1.857 0 .7-.114 1.335-.341 1.904a4.31 4.31 0 0 1-.928 1.447c-.392.396-.856.7-1.393.914-.537.214-1.11.321-1.719.321Zm0-.874c.5 0 .955-.088 1.364-.266.41-.177.758-.43 1.045-.757.286-.328.509-.719.668-1.174.16-.455.239-.96.239-1.515a4.8 4.8 0 0 0-.218-1.474 3.502 3.502 0 0 0-.641-1.188 2.973 2.973 0 0 0-1.045-.791 3.334 3.334 0 0 0-1.412-.287c-.501 0-.956.091-1.365.273a2.973 2.973 0 0 0-1.044.765 3.51 3.51 0 0 0-.669 1.18c-.159.46-.239.967-.239 1.522s.08 1.06.239 1.515c.159.455.382.846.669 1.174a2.9 2.9 0 0 0 1.044.757c.409.178.864.266 1.365.266Zm.286-10.768h1.133l-1.16 2.006h-.764l.791-2.006ZM131.018 23.288l-4.313-5.705a47.492 47.492 0 0 1-.723-.962 25.66 25.66 0 0 1-.546-.772h-.028c.018.228.03.453.034.676.005.223.007.512.007.867v5.896h-1.01v-8.995h.969l4.149 5.487a38.615 38.615 0 0 1 1.311 1.815h.027a9.256 9.256 0 0 1-.027-.703v-6.599h.996v8.995h-.846ZM140.831 14.293h1.009v8.995h-1.009v-8.995ZM152.541 23.288l-4.313-5.705a47.492 47.492 0 0 1-.723-.962c-.21-.287-.391-.544-.546-.772h-.027c.018.228.029.453.034.676.005.223.007.512.007.867v5.896h-1.01v-8.995h.969l4.149 5.487a40.978 40.978 0 0 1 1.31 1.815h.028a8.77 8.77 0 0 1-.028-.703v-6.599h.997v8.995h-.847ZM157.496 21.95c.218.145.493.282.826.41.332.127.707.19 1.126.19.245 0 .477-.024.696-.075.218-.05.409-.134.573-.252.164-.118.296-.27.396-.457.1-.187.15-.412.15-.676 0-.355-.098-.655-.295-.9a2.971 2.971 0 0 0-.732-.65 10.576 10.576 0 0 0-.959-.538 5.919 5.919 0 0 1-.959-.594 3.145 3.145 0 0 1-.732-.785c-.197-.3-.295-.674-.295-1.12 0-.318.059-.616.178-.893a2.03 2.03 0 0 1 .519-.724c.228-.205.506-.366.834-.485a3.292 3.292 0 0 1 1.12-.177c.41 0 .786.043 1.127.13.342.086.618.18.827.28v.941a4.147 4.147 0 0 0-1.934-.478c-.202 0-.401.023-.597.069a1.5 1.5 0 0 0-.522.224 1.23 1.23 0 0 0-.37.41 1.233 1.233 0 0 0-.144.619c0 .336.098.62.294.852.196.231.44.44.733.627.292.186.612.365.958.538.347.172.667.375.959.606.292.232.537.505.733.818.196.314.294.702.294 1.165 0 .372-.069.709-.209 1.008-.139.3-.332.552-.579.757a2.602 2.602 0 0 1-.904.47 3.992 3.992 0 0 1-1.174.163c-.519 0-.976-.068-1.372-.205a4.102 4.102 0 0 1-.989-.477l.423-.791ZM168.347 15.167h-2.58v-.874h6.456l-.328.874h-2.538V23.3h-1.01v-8.134ZM175.212 14.293h1.01v8.995h-1.01v-8.995ZM182.023 15.167h-2.58v-.874h6.456l-.328.874h-2.538V23.3h-1.01v-8.134ZM192.846 23.425c-.828 0-1.505-.164-2.028-.492-.523-.327-.893-.805-1.111-1.433a4.68 4.68 0 0 1-.205-1.447V14.28h1.01v5.678c0 .491.058.91.177 1.256.154.428.411.757.771.99.36.231.822.347 1.386.347.574 0 1.036-.116 1.392-.348.355-.232.608-.562.764-.99.073-.181.121-.377.144-.586.021-.21.034-.446.034-.71V14.28h1.01v5.774c0 .582-.078 1.073-.233 1.474-.218.619-.591 1.09-1.12 1.413-.526.322-1.19.484-1.991.484ZM206.603 22.797a5.146 5.146 0 0 1-1.269.484 5.557 5.557 0 0 1-1.242.143c-.674 0-1.275-.11-1.801-.334a3.82 3.82 0 0 1-1.345-.935c-.369-.4-.65-.878-.847-1.433a5.441 5.441 0 0 1-.292-1.815c0-.655.106-1.27.32-1.843.213-.573.516-1.069.908-1.488a4.226 4.226 0 0 1 1.412-.989 4.495 4.495 0 0 1 1.822-.362c.482 0 .916.048 1.304.144.386.095.693.207.922.334v.955a5.006 5.006 0 0 0-.998-.41c-.346-.1-.75-.15-1.214-.15-.519 0-.987.099-1.405.294a3.22 3.22 0 0 0-1.072.799 3.674 3.674 0 0 0-.69 1.187 4.298 4.298 0 0 0-.244 1.46c0 .546.076 1.047.232 1.502.154.455.374.846.661 1.174.287.327.634.582 1.044.764.409.182.87.273 1.378.273.419 0 .803-.052 1.154-.157.351-.104.681-.239.989-.403l.273.806ZM210.057 14.293h1.01v8.995h-1.01v-8.995ZM219.134 23.424c-.629 0-1.211-.109-1.748-.327a4.034 4.034 0 0 1-1.385-.921 4.283 4.283 0 0 1-.915-1.44c-.223-.564-.335-1.197-.335-1.898 0-.682.11-1.305.328-1.87a4.37 4.37 0 0 1 .914-1.46 4.06 4.06 0 0 1 1.393-.948 4.511 4.511 0 0 1 1.746-.335c.638 0 1.224.114 1.761.341.537.228.998.546 1.386.956.387.41.69.896.908 1.46.218.565.327 1.183.327 1.857 0 .7-.115 1.335-.342 1.904a4.281 4.281 0 0 1-.928 1.446c-.39.396-.854.701-1.391.915-.537.214-1.11.32-1.719.32Zm0-.873c.499 0 .955-.089 1.364-.266.41-.177.757-.43 1.044-.758.287-.327.51-.718.668-1.174.16-.454.239-.96.239-1.515a4.8 4.8 0 0 0-.218-1.474 3.468 3.468 0 0 0-.641-1.187 2.97 2.97 0 0 0-1.044-.792 3.34 3.34 0 0 0-1.412-.286c-.502 0-.957.09-1.367.273a2.978 2.978 0 0 0-1.043.764 3.544 3.544 0 0 0-.669 1.18c-.159.46-.239.967-.239 1.522s.08 1.06.239 1.515c.16.455.383.846.669 1.174.287.328.634.58 1.043.758.41.177.865.266 1.367.266ZM233.777 23.288l-4.312-5.705a57.327 57.327 0 0 1-.725-.962 32.285 32.285 0 0 1-.545-.772h-.027c.018.228.03.453.034.676.005.223.007.512.007.867v5.896h-1.01v-8.995h.969l4.15 5.487a40.721 40.721 0 0 1 1.31 1.815h.027a9.256 9.256 0 0 1-.027-.703v-6.599h.996v8.995h-.847ZM241.216 14.266h.697l3.44 9.022h-1.092l-.888-2.416h-3.617l-.888 2.416h-1.063l3.411-9.022Zm1.829 5.76-.928-2.594a38.13 38.13 0 0 1-.532-1.556h-.027c-.054.173-.124.376-.205.608-.082.232-.195.548-.34.948l-.943 2.594h2.975ZM248.532 14.28h1.01v8.135h3.344v.873h-4.354V14.28ZM20.27 27.984h7.206c1.756 0 3.32.227 4.692.681 1.373.454 2.533 1.105 3.482 1.953a8.436 8.436 0 0 1 2.18 3.088c.504 1.211.757 2.574.757 4.087 0 1.575-.288 2.988-.863 4.239a9.183 9.183 0 0 1-2.407 3.194c-1.03.878-2.25 1.55-3.663 2.013-1.413.465-2.967.697-4.663.697H20.27V27.984Zm6.842 16.046c1.15 0 2.14-.161 2.967-.484.828-.323 1.509-.767 2.044-1.332a5.166 5.166 0 0 0 1.165-1.938 7.323 7.323 0 0 0 .364-2.331c0-1.958-.566-3.456-1.696-4.496-1.13-1.04-2.775-1.56-4.935-1.56h-2.119V44.03h2.21ZM43.28 27.984h11.988l-1.18 3.906H47.91v4.026h6.267v3.906h-6.267v4.208h7.297v3.906H43.279V27.984ZM70.042 27.893h3.815l8.265 20.042h-4.965l-1.907-4.753h-6.48l-1.816 4.753h-4.753l7.841-20.042Zm3.815 11.595-.938-2.755a68.647 68.647 0 0 1-.53-1.695 27.45 27.45 0 0 1-.318-1.15h-.06c-.082.343-.193.736-.334 1.18-.141.444-.343 1.01-.605 1.696l-1 2.724h3.785ZM83.878 27.984h4.632V44.03h6.842v3.906H83.878V27.984ZM101.346 31.89h-5.843v-3.906h16.773l-1.181 3.906h-5.116v16.046h-4.633V31.89ZM119.603 27.893h3.814l8.265 20.042h-4.965l-1.907-4.753h-6.479l-1.817 4.753h-4.753l7.842-20.042Zm3.814 11.595-.938-2.755a66.205 66.205 0 0 1-.53-1.695 29.276 29.276 0 0 1-.318-1.15h-.06c-.081.343-.192.736-.333 1.18-.142.444-.344 1.01-.606 1.696l-.999 2.724h3.784ZM155.811 46.543c-1.231.666-2.417 1.115-3.557 1.347a16.64 16.64 0 0 1-3.315.348c-1.736 0-3.255-.252-4.556-.757-1.302-.504-2.392-1.2-3.27-2.089-.878-.887-1.54-1.952-1.983-3.194-.445-1.24-.666-2.588-.666-4.041 0-1.433.257-2.78.772-4.042a9.782 9.782 0 0 1 2.195-3.3c.948-.939 2.099-1.68 3.451-2.225 1.352-.546 2.876-.818 4.572-.818 1.13 0 2.144.086 3.043.257.897.172 1.7.4 2.406.682v4.238a11.212 11.212 0 0 0-5.328-1.332c-1.07 0-1.994.177-2.77.53-.778.353-1.419.828-1.923 1.423a5.803 5.803 0 0 0-1.12 2.074 8.299 8.299 0 0 0-.363 2.452c0 .929.14 1.782.423 2.558a5.609 5.609 0 0 0 1.226 1.998 5.506 5.506 0 0 0 1.923 1.287c.746.303 1.594.454 2.543.454 1.049 0 1.963-.136 2.74-.408.777-.273 1.539-.63 2.286-1.075l1.271 3.633ZM164.046 27.893h3.815l8.265 20.042h-4.965l-1.907-4.753h-6.479l-1.817 4.753h-4.753l7.841-20.042Zm3.815 11.595-.939-2.755a75.371 75.371 0 0 1-.53-1.695 27.443 27.443 0 0 1-.317-1.15h-.061c-.081.343-.192.736-.333 1.18a32.53 32.53 0 0 1-.605 1.696l-.999 2.724h3.784ZM177.883 27.984h4.633V44.03h6.84v3.906h-11.473V27.984ZM191.476 27.984h4.632v19.952h-4.632V27.984ZM200.042 27.984h7.206c1.756 0 3.321.227 4.692.681 1.374.454 2.535 1.105 3.483 1.953a8.44 8.44 0 0 1 2.179 3.088c.506 1.211.757 2.574.757 4.087 0 1.575-.287 2.988-.863 4.239a9.17 9.17 0 0 1-2.406 3.194c-1.03.878-2.251 1.55-3.663 2.013-1.413.465-2.967.697-4.663.697h-6.722V27.984Zm6.843 16.046c1.151 0 2.139-.161 2.968-.484.826-.323 1.508-.767 2.043-1.332a5.154 5.154 0 0 0 1.164-1.938 7.304 7.304 0 0 0 .366-2.331c0-1.958-.566-3.456-1.696-4.496-1.131-1.04-2.776-1.56-4.936-1.56h-2.119V44.03h2.21ZM227.17 27.893h3.814l8.265 20.042h-4.963l-1.909-4.753h-6.479l-1.816 4.753h-4.753l7.841-20.042Zm3.814 11.595-.937-2.755a62.41 62.41 0 0 1-.53-1.695 29.48 29.48 0 0 1-.319-1.15h-.061c-.079.343-.191.736-.333 1.18-.14.444-.342 1.01-.604 1.696l-.999 2.724h3.783ZM241.006 27.984h7.205c1.756 0 3.319.227 4.693.681 1.371.454 2.532 1.105 3.482 1.953a8.442 8.442 0 0 1 2.18 3.088c.503 1.211.757 2.574.757 4.087 0 1.575-.289 2.988-.863 4.239a9.209 9.209 0 0 1-2.407 3.194c-1.03.878-2.251 1.55-3.665 2.013-1.412.465-2.966.697-4.661.697h-6.721V27.984Zm6.842 16.046c1.15 0 2.139-.161 2.966-.484.828-.323 1.51-.767 2.044-1.332a5.172 5.172 0 0 0 1.166-1.938 7.303 7.303 0 0 0 .363-2.331c0-1.958-.565-3.456-1.696-4.496-1.13-1.04-2.775-1.56-4.933-1.56h-2.12V44.03h2.21ZM19.094 52.67h2.74l7.306 10.998 1.39 2.125c.37.57.714 1.118 1.031 1.647h.08c.318-.53.668-1.105 1.052-1.727.384-.621.84-1.356 1.37-2.203l6.87-10.84h2.739v26.166h-2.939V59.817c0-.794.027-1.535.08-2.224h-.08c-.291.53-.609 1.092-.952 1.688a28.758 28.758 0 0 1-.914 1.489l-6.472 10.323h-1.548l-7.028-10.522a26.272 26.272 0 0 1-.933-1.37 13.656 13.656 0 0 1-.854-1.528h-.08c.053.609.08 1.324.08 2.144V78.836h-2.938V52.67ZM60.03 79.233c-2.41 0-4.375-.476-5.897-1.43-1.522-.952-2.6-2.342-3.236-4.168-.397-1.218-.595-2.621-.595-4.21V52.63h2.938v16.518c0 1.43.172 2.647.516 3.653.45 1.245 1.197 2.203 2.243 2.879 1.046.675 2.389 1.012 4.03 1.012 1.668 0 3.018-.337 4.05-1.012 1.033-.676 1.774-1.635 2.224-2.88.212-.528.35-1.097.417-1.707.066-.608.1-1.296.1-2.064V52.63h2.937v16.796c0 1.694-.225 3.124-.675 4.288-.635 1.8-1.72 3.17-3.255 4.11-1.536.94-3.468 1.41-5.797 1.41ZM76.389 52.63h2.938v23.665h9.728v2.54H76.389V52.63ZM98.266 55.21h-7.504v-2.54h18.781l-.953 2.54h-7.386v23.665h-2.938V55.211ZM113.076 52.67h2.938v26.166h-2.938V52.67ZM141.346 77.407c-1.245.662-2.476 1.132-3.693 1.41a16.201 16.201 0 0 1-3.613.416c-1.959 0-3.706-.324-5.241-.972-1.536-.649-2.839-1.555-3.911-2.72-1.072-1.165-1.893-2.554-2.462-4.17-.569-1.614-.854-3.374-.854-5.28 0-1.906.311-3.693.933-5.36.622-1.668 1.503-3.11 2.641-4.328 1.138-1.218 2.508-2.177 4.109-2.879 1.602-.701 3.368-1.052 5.301-1.052 1.403 0 2.667.139 3.792.417 1.125.278 2.018.602 2.68.972v2.78c-.927-.502-1.893-.9-2.899-1.191-1.006-.291-2.183-.437-3.533-.437-1.509 0-2.873.285-4.09.854a9.394 9.394 0 0 0-3.117 2.323c-.861.979-1.529 2.13-2.005 3.454-.477 1.324-.715 2.74-.715 4.248 0 1.589.225 3.045.675 4.368.45 1.324 1.092 2.462 1.926 3.415a8.645 8.645 0 0 0 3.037 2.223c1.192.53 2.528.794 4.011.794 1.217 0 2.336-.151 3.355-.456a15.792 15.792 0 0 0 2.878-1.172l.795 2.343ZM153.456 52.59h2.025l10.006 26.246h-3.177l-2.581-7.028h-10.522l-2.58 7.028h-3.097l9.926-26.245Zm5.321 16.757-2.7-7.544a108.118 108.118 0 0 1-.973-2.76c-.226-.675-.417-1.264-.576-1.767h-.079a55.588 55.588 0 0 1-.596 1.767c-.238.675-.569 1.595-.992 2.76l-2.74 7.544h8.656ZM169.576 52.67h2.74l7.306 10.998 1.389 2.125c.371.57.714 1.118 1.032 1.647h.079c.317-.53.668-1.105 1.053-1.727.383-.621.84-1.356 1.37-2.203l6.869-10.84h2.739v26.166h-2.938V59.817c0-.794.027-1.535.08-2.224h-.08c-.29.53-.609 1.092-.953 1.688a28.494 28.494 0 0 1-.913 1.489l-6.472 10.323h-1.549l-7.027-10.522a25.552 25.552 0 0 1-.933-1.37 13.504 13.504 0 0 1-.854-1.528h-.079c.052.609.079 1.324.079 2.144V78.836h-2.938V52.67ZM200.982 52.67h4.924c1.271 0 2.363.099 3.275.297.915.199 1.714.497 2.403.894a7.333 7.333 0 0 1 2.779 2.799c.661 1.178.992 2.6.992 4.268 0 1.536-.343 2.953-1.031 4.249-.689 1.297-1.8 2.303-3.335 3.017-.663.292-1.423.53-2.284.715-.86.186-1.886.278-3.077.278h-1.706v9.649h-2.939l-.001-26.166Zm4.884 14.055c.847 0 1.582-.072 2.204-.218a6.683 6.683 0 0 0 1.607-.576c1.774-.926 2.66-2.593 2.66-5.003 0-1.111-.21-2.09-.634-2.938a4.665 4.665 0 0 0-1.866-1.985c-.45-.291-.992-.51-1.629-.655-.634-.146-1.403-.219-2.303-.219h-1.985v11.594h1.946ZM230.444 79.233c-2.409 0-4.374-.476-5.896-1.43-1.523-.952-2.6-2.342-3.236-4.168-.397-1.218-.596-2.621-.596-4.21V52.63h2.938v16.518c0 1.43.172 2.647.516 3.653.45 1.245 1.198 2.203 2.244 2.879 1.045.675 2.389 1.012 4.03 1.012 1.667 0 3.018-.337 4.051-1.012 1.031-.676 1.772-1.635 2.222-2.88a6.428 6.428 0 0 0 .418-1.707c.066-.608.099-1.296.099-2.064V52.63h2.939v16.796c0 1.694-.225 3.124-.676 4.288-.636 1.8-1.72 3.17-3.257 4.11-1.534.94-3.466 1.41-5.796 1.41ZM246.763 74.945c.636.424 1.436.821 2.403 1.191.966.371 2.058.556 3.275.556.714 0 1.39-.072 2.026-.218a4.543 4.543 0 0 0 1.667-.735 3.87 3.87 0 0 0 1.152-1.33c.291-.542.436-1.197.436-1.965 0-1.032-.285-1.906-.856-2.621-.57-.715-1.283-1.343-2.132-1.886a30.503 30.503 0 0 0-2.789-1.568 17.211 17.211 0 0 1-2.789-1.728 9.157 9.157 0 0 1-2.132-2.283c-.571-.873-.856-1.958-.856-3.255 0-.927.172-1.794.517-2.601a5.919 5.919 0 0 1 1.51-2.104c.663-.596 1.471-1.066 2.424-1.41.956-.344 2.042-.516 3.261-.516 1.193 0 2.286.126 3.279.377.994.252 1.795.523 2.406.814v2.74a12.062 12.062 0 0 0-2.676-1.023 11.889 11.889 0 0 0-2.952-.367c-.587 0-1.166.067-1.737.199a4.352 4.352 0 0 0-1.517.653c-.439.304-.799.701-1.079 1.19-.278.488-.418 1.09-.418 1.803 0 .978.285 1.804.856 2.478.57.674 1.281 1.282 2.132 1.824.85.541 1.779 1.063 2.789 1.565a15.908 15.908 0 0 1 2.789 1.764 9.38 9.38 0 0 1 2.132 2.379c.571.912.856 2.04.856 3.389 0 1.083-.202 2.061-.608 2.933a6.18 6.18 0 0 1-1.687 2.2c-.719.595-1.596 1.05-2.628 1.368-1.033.317-2.171.475-3.415.475-1.51 0-2.839-.198-3.991-.595-1.152-.397-2.11-.86-2.878-1.39l1.23-2.303ZM25.874 88.428h1.33c.344 0 .633.03.868.09.235.059.439.145.61.257.265.166.46.374.582.626.122.252.183.523.183.814 0 .456-.116.825-.347 1.107-.232.281-.56.488-.983.62v.02c.1.053.212.167.337.342.126.176.275.409.447.7l1.191 1.966h-.853l-1.142-1.896a4.924 4.924 0 0 0-.417-.616c-.126-.152-.238-.241-.337-.268h-.735v2.78h-.734v-6.542Zm1.35 3.147c.35 0 .651-.073.903-.218.172-.1.31-.24.412-.422.102-.182.154-.399.154-.65 0-.192-.034-.37-.1-.531a.922.922 0 0 0-.317-.403 1.19 1.19 0 0 0-.412-.223 2.027 2.027 0 0 0-.63-.084h-.626v2.53h.616ZM33.537 92.746c0 .238.034.461.104.67.07.208.17.39.303.546.132.155.294.276.486.362.192.086.413.129.665.129a2.1 2.1 0 0 0 .625-.09c.192-.059.37-.135.537-.228l.228.516c-.206.133-.44.236-.705.308a2.95 2.95 0 0 1-.784.11c-.371 0-.695-.067-.973-.2a1.972 1.972 0 0 1-.695-.54 2.269 2.269 0 0 1-.412-.794 3.38 3.38 0 0 1-.134-.968c0-.357.048-.684.144-.978.096-.294.228-.55.397-.764.169-.215.37-.38.606-.496a1.74 1.74 0 0 1 .779-.174c.602 0 1.065.217 1.39.65.324.433.486 1.02.486 1.762v.179h-3.047Zm2.293-.566a2.347 2.347 0 0 0-.08-.526 1.513 1.513 0 0 0-.205-.457 1.093 1.093 0 0 0-.339-.323.914.914 0 0 0-.483-.124c-.18 0-.342.038-.489.114-.146.077-.269.18-.368.308-.1.13-.178.28-.235.452a1.976 1.976 0 0 0-.094.556h2.293ZM39.661 94.106c.133.086.295.165.486.238.193.073.42.11.686.11.27 0 .506-.059.704-.175.199-.115.298-.309.298-.58a.555.555 0 0 0-.164-.417 1.575 1.575 0 0 0-.407-.278 8.124 8.124 0 0 0-.526-.234 2.825 2.825 0 0 1-.526-.277 1.455 1.455 0 0 1-.407-.412c-.109-.166-.164-.377-.164-.636 0-.357.134-.661.402-.913.269-.251.664-.377 1.187-.377.225 0 .437.021.635.064.198.044.374.095.526.154v.646a3.255 3.255 0 0 0-.511-.191 2.287 2.287 0 0 0-.953-.048.84.84 0 0 0-.288.105.6.6 0 0 0-.204.204.596.596 0 0 0-.079.318c0 .172.055.312.164.418.109.106.246.2.412.284.165.082.342.16.53.233.19.073.366.166.532.279.166.113.303.252.412.418.11.166.164.381.164.646 0 .233-.045.437-.134.612-.09.176-.214.32-.373.433a1.712 1.712 0 0 1-.556.254 2.623 2.623 0 0 1-.674.084 2.42 2.42 0 0 1-.824-.129 3.263 3.263 0 0 1-.586-.268l.238-.565ZM46.222 95.049a.444.444 0 0 1-.337-.15.492.492 0 0 1-.14-.347c0-.132.047-.246.14-.342a.451.451 0 0 1 .337-.144c.133 0 .243.048.333.144.09.096.134.21.134.342a.502.502 0 0 1-.134.347c-.09.1-.2.15-.333.15ZM54.79 88.428h.684l1.827 2.75.347.531c.093.142.179.28.258.412h.02l.263-.432.343-.551 1.717-2.71h.685v6.542h-.735v-4.755c0-.199.007-.384.02-.556h-.02c-.073.132-.152.273-.238.422a6.62 6.62 0 0 1-.228.372l-1.618 2.58h-.388l-1.757-2.63c-.073-.099-.15-.213-.233-.342a3.446 3.446 0 0 1-.213-.383h-.02c.013.153.02.332.02.537V94.969h-.735v-6.54ZM64.824 88.428h3.157l-.238.636h-2.184v2.243h2.154v.635h-2.154v2.393h2.481v.635h-3.216v-6.542ZM76.438 94.97 73.3 90.82a35.355 35.355 0 0 1-.526-.7 19.529 19.529 0 0 1-.397-.56h-.02c.013.165.021.329.025.49.003.163.005.373.005.63v4.289h-.735v-6.542h.705l3.018 3.991a29.208 29.208 0 0 1 .953 1.32h.02a6.525 6.525 0 0 1-.02-.511v-4.8h.724v6.542h-.615ZM90.147 94.97l-3.137-4.15a34.932 34.932 0 0 1-.526-.7 19.75 19.75 0 0 1-.397-.56h-.02c.013.165.021.329.025.49a33 33 0 0 1 .005.63v4.289h-.735v-6.542h.705l3.018 3.991a28.782 28.782 0 0 1 .953 1.32h.02a6.624 6.624 0 0 1-.02-.511v-4.8h.724v6.542h-.615ZM96.36 95.069c-.33 0-.629-.063-.893-.19a2.016 2.016 0 0 1-.68-.52 2.39 2.39 0 0 1-.437-.78 2.933 2.933 0 0 1-.154-.962c0-.344.051-.667.154-.968.103-.301.248-.563.437-.784.188-.222.417-.396.685-.521.268-.126.567-.19.898-.19.324 0 .62.064.888.19.269.125.497.299.685.52.189.223.335.484.437.785.103.301.154.624.154.968s-.051.665-.154.963a2.395 2.395 0 0 1-.437.779 2.004 2.004 0 0 1-.684.52 2.09 2.09 0 0 1-.899.19Zm.005-.636c.22 0 .415-.044.588-.133.172-.088.32-.214.443-.375s.217-.352.284-.573c.066-.22.1-.466.1-.736 0-.27-.034-.516-.1-.74a1.783 1.783 0 0 0-.284-.577 1.248 1.248 0 0 0-1.02-.508c-.22 0-.418.044-.594.133a1.286 1.286 0 0 0-.448.375 1.775 1.775 0 0 0-.284.577c-.066.224-.1.47-.1.74s.034.516.1.736c.067.22.161.411.284.573a1.3 1.3 0 0 0 .444.375c.172.089.368.133.587.133ZM102.216 95.049a.444.444 0 0 1-.337-.15.49.49 0 0 1-.139-.347c0-.132.046-.246.139-.342a.451.451 0 0 1 .337-.144c.133 0 .244.048.333.144.089.096.134.21.134.342a.503.503 0 0 1-.134.347c-.089.1-.2.15-.333.15ZM112.669 95.069c-.331 0-.632-.073-.903-.219a1.966 1.966 0 0 1-.695-.64 3.375 3.375 0 0 1-.452-1.047 5.716 5.716 0 0 1-.163-1.44c0-.542.054-1.02.163-1.434.11-.413.26-.763.452-1.047.192-.285.424-.5.695-.645.271-.146.572-.219.903-.219.324 0 .622.073.894.219.271.145.504.36.7.645.195.284.347.634.456 1.047.109.414.164.892.164 1.435 0 .542-.055 1.022-.164 1.439a3.286 3.286 0 0 1-.456 1.047 2.014 2.014 0 0 1-.7.64c-.272.146-.57.219-.894.219Zm0-.636c.453 0 .81-.238 1.07-.714.26-.477.39-1.142.39-1.995 0-.854-.129-1.52-.385-1.996-.257-.476-.615-.714-1.075-.714-.453 0-.809.238-1.069.714-.26.477-.39 1.142-.39 1.996 0 .853.128 1.518.385 1.995.256.476.614.714 1.074.714ZM120.332 95.069c-.331 0-.632-.073-.903-.219a1.958 1.958 0 0 1-.695-.64 3.352 3.352 0 0 1-.452-1.047 5.716 5.716 0 0 1-.163-1.44c0-.542.054-1.02.163-1.434.109-.413.26-.763.452-1.047.192-.285.423-.5.695-.645.271-.146.572-.219.903-.219.324 0 .622.073.893.219.272.145.505.36.7.645.195.284.348.634.457 1.047.109.414.164.892.164 1.435 0 .542-.055 1.022-.164 1.439a3.286 3.286 0 0 1-.457 1.047 1.997 1.997 0 0 1-.7.64 1.858 1.858 0 0 1-.893.219Zm0-.636c.453 0 .81-.238 1.07-.714.259-.477.389-1.142.389-1.995 0-.854-.128-1.52-.385-1.996-.256-.476-.614-.714-1.074-.714-.453 0-.81.238-1.07.714-.259.477-.389 1.142-.389 1.996 0 .853.128 1.518.384 1.995.257.476.615.714 1.075.714ZM127.995 95.069c-.331 0-.632-.073-.903-.219a1.966 1.966 0 0 1-.695-.64 3.375 3.375 0 0 1-.452-1.047 5.716 5.716 0 0 1-.163-1.44c0-.542.054-1.02.163-1.434.11-.413.26-.763.452-1.047.192-.285.424-.5.695-.645.271-.146.572-.219.903-.219.324 0 .622.073.894.219.271.145.504.36.699.645.196.284.348.634.457 1.047.109.414.164.892.164 1.435 0 .542-.055 1.022-.164 1.439a3.264 3.264 0 0 1-.457 1.047 2.003 2.003 0 0 1-.699.64c-.272.146-.57.219-.894.219Zm0-.636c.453 0 .81-.238 1.07-.714.26-.477.389-1.142.389-1.995 0-.854-.128-1.52-.384-1.996-.257-.476-.615-.714-1.075-.714-.453 0-.809.238-1.069.714-.26.477-.39 1.142-.39 1.996 0 .853.128 1.518.385 1.995.256.476.615.714 1.074.714ZM135.658 95.069c-.331 0-.632-.073-.903-.219a1.966 1.966 0 0 1-.695-.64 3.351 3.351 0 0 1-.451-1.047 5.668 5.668 0 0 1-.164-1.44c0-.542.054-1.02.164-1.434.109-.413.259-.763.451-1.047.192-.285.424-.5.695-.645.271-.146.572-.219.903-.219.325 0 .622.073.894.219.271.145.504.36.7.645.195.284.347.634.456 1.047.109.414.164.892.164 1.435 0 .542-.055 1.022-.164 1.439a3.286 3.286 0 0 1-.456 1.047 2.014 2.014 0 0 1-.7.64 1.862 1.862 0 0 1-.894.219Zm0-.636c.454 0 .81-.238 1.07-.714.26-.477.39-1.142.39-1.995 0-.854-.129-1.52-.385-1.996-.257-.476-.615-.714-1.075-.714-.453 0-.809.238-1.069.714-.26.477-.39 1.142-.39 1.996 0 .853.129 1.518.385 1.995.256.476.615.714 1.074.714ZM140.979 94.97c.046-.576.159-1.061.337-1.455.179-.393.387-.728.626-1.002.238-.275.489-.508.754-.7.265-.192.508-.376.73-.551.221-.175.405-.357.55-.546.146-.189.219-.418.219-.69 0-.178-.032-.332-.094-.461a.903.903 0 0 0-.254-.318 1.001 1.001 0 0 0-.372-.179 1.826 1.826 0 0 0-.452-.054c-.317 0-.613.046-.888.139a4.374 4.374 0 0 0-.7.298l-.228-.576c.212-.126.483-.24.814-.343a3.575 3.575 0 0 1 1.062-.153c.318 0 .596.041.834.123.238.083.435.197.59.342.156.146.272.316.348.51.076.196.114.406.114.63 0 .33-.068.611-.203.843a2.66 2.66 0 0 1-.517.629 6.303 6.303 0 0 1-.685.535c-.248.168-.486.36-.714.575-.229.214-.43.462-.606.743-.175.28-.293.623-.352 1.026h3.067v.635h-3.98ZM148.841 94.146a3.428 3.428 0 0 0 1.409.288c.232 0 .452-.025.66-.075.209-.05.391-.129.546-.238a1.2 1.2 0 0 0 .367-.407 1.2 1.2 0 0 0 .134-.59c0-.583-.311-.944-.933-1.083a4.008 4.008 0 0 0-.844-.07h-.714v-.634h.605c.324 0 .596-.033.814-.1.219-.065.394-.154.526-.266a.955.955 0 0 0 .283-.39 1.32 1.32 0 0 0 .085-.47c0-.323-.096-.586-.288-.79-.192-.205-.493-.307-.904-.307a2.63 2.63 0 0 0-.873.139 4.533 4.533 0 0 0-.685.298l-.229-.576c.232-.132.505-.248.819-.347a3.37 3.37 0 0 1 1.018-.15c.324 0 .605.046.843.135.238.089.436.21.592.366.157.155.273.336.348.54.075.205.113.42.113.644 0 .377-.09.689-.268.936-.179.248-.444.438-.794.57v.02c.383.08.686.249.908.507.222.258.332.597.332 1.014 0 .272-.048.526-.147.761a1.685 1.685 0 0 1-.451.621c-.203.18-.46.32-.771.423a3.537 3.537 0 0 1-1.102.154 4.096 4.096 0 0 1-1.598-.318l.199-.605ZM162.936 95.068c-.337 0-.655-.05-.953-.149-.298-.099-.558-.25-.779-.451a2.15 2.15 0 0 1-.526-.75 2.587 2.587 0 0 1-.194-1.042c0-.377.063-.721.189-1.032.126-.311.297-.578.516-.8.218-.221.475-.391.769-.51.295-.12.611-.18.948-.18.285 0 .549.034.794.101v-2.312h.725v6.808a2.43 2.43 0 0 1-.645.228c-.265.06-.546.09-.844.09Zm.03-.635a2.231 2.231 0 0 0 .734-.128v-3.397a2.63 2.63 0 0 0-.337-.088 2.308 2.308 0 0 0-.407-.03 1.78 1.78 0 0 0-.66.123 1.547 1.547 0 0 0-.546.36c-.156.159-.28.355-.372.588-.093.234-.14.498-.14.795 0 .546.153.979.457 1.298.304.32.728.479 1.271.479ZM168.951 92.746c0 .238.035.461.104.67.07.208.171.39.303.546.133.155.295.276.487.362.191.086.413.129.665.129.225 0 .433-.03.625-.09a2.74 2.74 0 0 0 .536-.228l.228.516a2.496 2.496 0 0 1-.704.308c-.265.073-.526.11-.785.11-.37 0-.694-.067-.972-.2a1.97 1.97 0 0 1-.695-.54 2.267 2.267 0 0 1-.412-.794 3.398 3.398 0 0 1-.134-.968c0-.357.048-.684.144-.978a2.46 2.46 0 0 1 .397-.764c.169-.215.371-.38.605-.496.235-.116.495-.174.78-.174.602 0 1.065.217 1.39.65.324.433.486 1.02.486 1.762v.179h-3.048Zm2.293-.566a2.335 2.335 0 0 0-.079-.526 1.52 1.52 0 0 0-.205-.457 1.097 1.097 0 0 0-.339-.323.912.912 0 0 0-.483-.124c-.18 0-.343.038-.489.114a1.112 1.112 0 0 0-.369.308 1.5 1.5 0 0 0-.234.452 2.02 2.02 0 0 0-.095.556h2.293ZM175.255 87.952h.724v5.946c0 .192.03.323.089.392.06.069.153.104.278.104.04 0 .089-.008.149-.025a1.33 1.33 0 0 0 .139-.045l.159.568c-.093.046-.197.08-.312.103a1.78 1.78 0 0 1-.343.034c-.298 0-.519-.08-.665-.24-.146-.16-.218-.38-.218-.663v-6.174ZM185.736 89.173l-1.539.754-.257-.585 1.916-.963h.604v6.59h-.724v-5.796ZM191.99 89.173l-1.539.754-.257-.585 1.916-.963h.604v6.59h-.724v-5.796ZM201.35 88.428h3.156l-.237.636h-2.183v2.243h2.153v.635h-2.153v2.393h2.481v.635h-3.217v-6.542ZM207.971 90.274h.615l.09.605c.257-.218.521-.393.789-.526.267-.132.554-.198.859-.198.185 0 .36.03.527.09.164.059.312.155.441.287.129.132.23.303.306.511a2.2 2.2 0 0 1 .116.76v3.166h-.725v-2.918c0-.179-.014-.343-.041-.491a1.234 1.234 0 0 0-.133-.393.687.687 0 0 0-.259-.263.811.811 0 0 0-.411-.094c-.266 0-.515.07-.755.209a4.463 4.463 0 0 0-.685.496v3.454h-.734v-4.695ZM215.674 92.746c0 .238.036.461.105.67.069.208.17.39.303.546.131.155.294.276.486.362.191.086.413.129.664.129.225 0 .434-.03.627-.09a2.74 2.74 0 0 0 .536-.228l.228.516a2.528 2.528 0 0 1-.705.308c-.264.073-.526.11-.785.11-.37 0-.695-.067-.971-.2a1.985 1.985 0 0 1-.697-.54 2.282 2.282 0 0 1-.411-.794 3.434 3.434 0 0 1-.135-.968c0-.357.048-.684.146-.978.096-.294.227-.55.397-.764.168-.215.37-.38.604-.496.236-.116.495-.174.78-.174.602 0 1.065.217 1.389.65.324.433.488 1.02.488 1.762v.179h-3.049Zm2.294-.566a2.394 2.394 0 0 0-.08-.526 1.518 1.518 0 0 0-.204-.457 1.1 1.1 0 0 0-.34-.323.911.911 0 0 0-.482-.124c-.181 0-.344.038-.489.114-.147.077-.27.18-.369.308-.101.13-.179.28-.234.452a2.02 2.02 0 0 0-.096.556h2.294ZM226.107 94.97c.046-.576.16-1.061.337-1.455a4.16 4.16 0 0 1 .625-1.002c.24-.275.491-.508.755-.7.264-.192.509-.376.73-.551.222-.175.404-.357.55-.546.147-.189.22-.418.22-.69 0-.178-.032-.332-.096-.461a.887.887 0 0 0-.252-.318 1.001 1.001 0 0 0-.372-.179 1.843 1.843 0 0 0-.452-.054c-.319 0-.615.046-.89.139a4.425 4.425 0 0 0-.698.298l-.228-.576c.211-.126.482-.24.813-.343a3.57 3.57 0 0 1 1.062-.153c.319 0 .595.041.834.123.238.083.434.197.59.342.156.146.272.316.348.51.076.196.113.406.113.63 0 .33-.067.611-.202.843a2.68 2.68 0 0 1-.516.629 6.401 6.401 0 0 1-.685.535 5.74 5.74 0 0 0-.715.575c-.228.214-.43.462-.606.743-.175.28-.292.623-.352 1.026h3.067v.635h-3.98ZM235.627 95.069c-.331 0-.633-.073-.904-.219a1.955 1.955 0 0 1-.694-.64 3.375 3.375 0 0 1-.452-1.047 5.762 5.762 0 0 1-.163-1.44c0-.542.055-1.02.163-1.434.11-.413.26-.763.452-1.047.191-.285.423-.5.694-.645.271-.146.573-.219.904-.219.324 0 .622.073.893.219.271.145.505.36.7.645.195.284.348.634.457 1.047.109.414.164.892.164 1.435 0 .542-.055 1.022-.164 1.439a3.286 3.286 0 0 1-.457 1.047 2.005 2.005 0 0 1-.7.64 1.858 1.858 0 0 1-.893.219Zm0-.636c.454 0 .81-.238 1.07-.714.259-.477.389-1.142.389-1.995 0-.854-.128-1.52-.385-1.996-.255-.476-.615-.714-1.074-.714-.454 0-.81.238-1.07.714-.259.477-.388 1.142-.388 1.996 0 .853.127 1.518.384 1.995.255.476.615.714 1.074.714ZM240.947 94.97c.046-.576.158-1.06.337-1.455.179-.393.388-.727.625-1.002.24-.274.489-.508.755-.7.264-.192.507-.375.729-.55.223-.176.405-.358.551-.547a1.1 1.1 0 0 0 .218-.69c0-.178-.03-.332-.094-.461a.87.87 0 0 0-.254-.317.975.975 0 0 0-.372-.18 1.81 1.81 0 0 0-.45-.054c-.319 0-.615.046-.889.14a4.356 4.356 0 0 0-.7.297l-.229-.576c.213-.126.484-.24.815-.343.33-.102.684-.153 1.062-.153.317 0 .595.041.834.123.238.083.434.197.59.342.156.146.272.316.348.51.076.196.113.406.113.63 0 .33-.067.611-.202.843a2.656 2.656 0 0 1-.517.629 6.29 6.29 0 0 1-.684.535c-.248.168-.488.36-.716.575a3.787 3.787 0 0 0-.605.743c-.175.28-.294.623-.352 1.026h3.067v.635h-3.98ZM248.799 94.146a3.428 3.428 0 0 0 1.409.288c.232 0 .452-.025.661-.075.208-.05.39-.129.546-.238a1.22 1.22 0 0 0 .367-.407c.089-.162.133-.359.133-.59 0-.583-.31-.944-.932-1.083a4.027 4.027 0 0 0-.844-.07h-.716v-.634h.606c.325 0 .596-.033.814-.1.22-.065.393-.154.526-.266a.957.957 0 0 0 .284-.39 1.32 1.32 0 0 0 .085-.47c0-.323-.098-.586-.289-.79-.192-.205-.493-.307-.904-.307-.317 0-.608.046-.874.139a4.563 4.563 0 0 0-.684.298l-.228-.576c.232-.132.505-.248.818-.347.316-.1.654-.15 1.018-.15.324 0 .606.046.843.135.238.089.436.21.592.366.158.155.273.336.349.54.075.205.112.42.112.644 0 .377-.089.689-.268.936-.179.248-.443.438-.794.57v.02c.383.08.686.249.908.507.221.258.333.597.333 1.014 0 .272-.05.526-.147.761a1.677 1.677 0 0 1-.452.621c-.204.18-.459.32-.771.423a3.541 3.541 0 0 1-1.102.154 4.09 4.09 0 0 1-1.599-.318l.2-.605Z"/></g><defs><clipPath id="a"><path fill="#fff" d="M0 0h280v109.873H0z"/></clipPath></defs></svg>