<svg width="280" height="110" viewBox="0 0 280 110" fill="none" xmlns="http://www.w3.org/2000/svg">
<g clip-path="url(#clip0_1000_412)">
<path fill-rule="evenodd" clip-rule="evenodd" d="M245.409 0.885742L278.415 27.6168L278.249 96.1431L30.4406 109.003L0.973088 85.8998L0.885437 30.1018L32.8687 1.07942L245.409 0.885742ZM33.5536 2.85094L2.65882 30.8856L2.74389 85.0362L31.0116 107.199L276.481 94.4603L276.641 28.4604L244.782 2.65847L33.5536 2.85094Z" fill="#DFD4A6"/>
<path fill-rule="evenodd" clip-rule="evenodd" d="M9.51062 5.54712H269.052V104.213H9.51062V5.54712ZM11.2828 7.31927V102.441H267.28V7.31927H11.2828Z" fill="#DFD4A6"/>
<path fill-rule="evenodd" clip-rule="evenodd" d="M0.889099 0.886108H28.213V2.65826H2.66125V25.5229H0.889099V0.886108Z" fill="#DFD4A6"/>
<path fill-rule="evenodd" clip-rule="evenodd" d="M250.024 1.03101H278.166V22.3596H276.394V2.80316H250.024V1.03101Z" fill="#DFD4A6"/>
<path fill-rule="evenodd" clip-rule="evenodd" d="M0.972595 90.4532H2.74475V107.103H25.9836V108.875H0.972595V90.4532Z" fill="#DFD4A6"/>
<path fill-rule="evenodd" clip-rule="evenodd" d="M276.59 107.215V100.332H278.363V108.987H130.332V107.215H276.59Z" fill="#DFD4A6"/>
<path fill-rule="evenodd" clip-rule="evenodd" d="M260.536 84.93H18.0265V83.1578H260.536V84.93Z" fill="#DFD4A6"/>
<path d="M28.9665 14.2659H29.6626L33.102 23.2878H32.0102L31.1231 20.8718H27.5061L26.619 23.2878H25.5543L28.9665 14.2659ZM30.7954 20.0256L29.8673 17.4324C29.7217 17.0321 29.6102 16.716 29.5327 16.4839C29.4553 16.2519 29.3896 16.0496 29.335 15.8764H29.3077C29.2531 16.0494 29.1849 16.2519 29.103 16.4839C29.0211 16.716 28.9072 17.0321 28.7619 17.4324L27.82 20.0256H30.7954Z" fill="#DFD4A6"/>
<path d="M42.6427 22.7968C42.2149 23.0243 41.7917 23.1856 41.3733 23.2813C40.9548 23.377 40.5408 23.4245 40.1312 23.4245C39.4578 23.4245 38.8572 23.3132 38.3297 23.0902C37.8017 22.8675 37.3536 22.5558 36.9853 22.1552C36.6169 21.7549 36.3348 21.2771 36.1391 20.7221C35.9433 20.1672 35.8458 19.5619 35.8458 18.9067C35.8458 18.2515 35.9525 17.6374 36.1664 17.0642C36.3801 16.4909 36.6828 15.9951 37.0739 15.5765C37.465 15.1581 37.9361 14.8282 38.4865 14.587C39.0369 14.3461 39.6444 14.2252 40.3088 14.2252C40.7908 14.2252 41.2252 14.2729 41.6121 14.3687C41.9987 14.4642 42.3057 14.5756 42.5332 14.7029V15.6583C42.2146 15.4856 41.8825 15.3491 41.5369 15.2489C41.191 15.1489 40.7862 15.0987 40.3221 15.0987C39.8036 15.0987 39.3347 15.1968 38.9163 15.3923C38.4977 15.5881 38.1406 15.8541 37.8448 16.1906C37.5489 16.5274 37.3194 16.9232 37.1556 17.3781C36.9919 17.8331 36.91 18.32 36.91 18.8385C36.91 19.3845 36.9873 19.8849 37.142 20.3399C37.2965 20.7949 37.5175 21.1861 37.8039 21.5137C38.0904 21.8412 38.4387 22.0961 38.848 22.2781C39.2576 22.4602 39.7169 22.551 40.2266 22.551C40.645 22.551 41.0294 22.4989 41.3797 22.3941C41.7299 22.2898 42.0601 22.1554 42.3693 21.9913L42.6427 22.7968Z" fill="#DFD4A6"/>
<path d="M46.1093 14.2932H47.9381C48.4111 14.2932 48.8093 14.3342 49.1325 14.4161C49.4554 14.498 49.7354 14.6163 49.9718 14.7709C50.3357 14.9985 50.602 15.2851 50.7704 15.6308C50.9387 15.9767 51.0229 16.3497 51.0229 16.75C51.0229 17.3778 50.8636 17.8853 50.5451 18.272C50.2265 18.6589 49.776 18.9433 49.1939 19.1251V19.1524C49.3303 19.2254 49.485 19.3822 49.658 19.6233C49.8306 19.8645 50.0355 20.1852 50.2722 20.5854L51.91 23.2877H50.7362L49.1666 20.6809C48.9571 20.3259 48.7661 20.0441 48.5933 19.8347C48.4203 19.6254 48.2658 19.5026 48.1293 19.4661H47.1192V23.2877H46.1093V14.2932ZM47.9654 18.6199C48.4476 18.6199 48.8616 18.5199 49.2075 18.3197C49.4441 18.1832 49.6328 17.9899 49.7741 17.7396C49.9151 17.4895 49.9858 17.1917 49.9858 16.8455C49.9858 16.5818 49.9401 16.3385 49.8492 16.1154C49.7583 15.8926 49.6126 15.7082 49.4125 15.5626C49.2669 15.4352 49.078 15.3328 48.846 15.2553C48.614 15.1782 48.3252 15.1394 47.9794 15.1394H47.1196V18.6199H47.9654Z" fill="#DFD4A6"/>
<path d="M55.2405 14.2932H59.5808L59.2532 15.1667H56.2504V18.2514H59.2122V19.1249H56.2504V22.4142H59.6627V23.2877H55.2405V14.2932Z" fill="#DFD4A6"/>
<path d="M63.4025 14.2932H65.559C66.3595 14.2932 67.0604 14.4049 67.6609 14.6277C68.2615 14.8508 68.7572 15.16 69.1487 15.5559C69.5398 15.9517 69.8333 16.4227 70.0291 16.9686C70.2247 17.5146 70.3227 18.1061 70.3227 18.743C70.3227 19.3892 70.2247 19.9897 70.0291 20.5446C69.8333 21.0998 69.5378 21.5797 69.1419 21.9847C68.746 22.3898 68.2456 22.708 67.6406 22.9402C67.0352 23.1722 66.3278 23.2881 65.5181 23.2881H63.4025V14.2932ZM65.5044 22.4142C66.2049 22.4142 66.794 22.3148 67.2718 22.1153C67.7496 21.9157 68.1361 21.6485 68.432 21.313C68.7274 20.9774 68.9388 20.5854 69.0668 20.1367C69.194 19.6879 69.2578 19.2098 69.2578 18.7023C69.2578 18.1857 69.1827 17.7119 69.0324 17.2813C68.8823 16.8507 68.6525 16.479 68.3434 16.1663C68.0338 15.8536 67.6425 15.609 67.1695 15.4323C66.6964 15.2556 66.1323 15.167 65.4771 15.167H64.4124V22.4146L65.5044 22.4142Z" fill="#DFD4A6"/>
<path d="M74.0072 14.2932H75.0173V23.2877H74.0072V14.2932Z" fill="#DFD4A6"/>
<path d="M80.8178 15.1667H78.2382V14.2932H84.6942L84.3665 15.1667H81.8279V23.3014H80.8178V15.1667Z" fill="#DFD4A6"/>
<path d="M90.1533 14.2659H90.8494L94.2889 23.2878H93.1971L92.3098 20.8718H88.6928L87.8057 23.2878H86.7411L90.1533 14.2659ZM91.9823 20.0256L91.0542 17.4324C90.9085 17.0321 90.7971 16.716 90.7196 16.4839C90.6422 16.2519 90.5764 16.0496 90.5219 15.8764H90.4946C90.44 16.0494 90.3718 16.2519 90.2899 16.4839C90.2078 16.716 90.0941 17.0321 89.9486 17.4324L89.0068 20.0256H91.9823Z" fill="#DFD4A6"/>
<path d="M103.83 22.7968C103.402 23.0243 102.979 23.1856 102.56 23.2813C102.142 23.377 101.728 23.4245 101.318 23.4245C100.645 23.4245 100.044 23.3132 99.5164 23.0902C98.9887 22.8675 98.5405 22.5558 98.1723 22.1552C97.8037 21.7549 97.5215 21.2771 97.3261 20.7221C97.1302 20.1672 97.0328 19.5619 97.0328 18.9067C97.0328 18.2515 97.1395 17.6374 97.3534 17.0642C97.5669 16.4909 97.8698 15.9951 98.2609 15.5765C98.652 15.1581 99.123 14.8282 99.6733 14.587C100.224 14.3461 100.831 14.2252 101.496 14.2252C101.978 14.2252 102.412 14.2729 102.799 14.3687C103.186 14.4642 103.493 14.5756 103.72 14.7029V15.6583C103.402 15.4856 103.069 15.3491 102.724 15.2489C102.378 15.1489 101.973 15.0987 101.509 15.0987C100.99 15.0987 100.522 15.1968 100.103 15.3923C99.6846 15.5881 99.3274 15.8541 99.0316 16.1906C98.7358 16.5274 98.5063 16.9232 98.3424 17.3781C98.1786 17.8331 98.0968 18.32 98.0968 18.8385C98.0968 19.3845 98.1742 19.8849 98.3288 20.3399C98.4835 20.7949 98.7043 21.1861 98.9907 21.5137C99.2774 21.8412 99.6254 22.0961 100.035 22.2781C100.444 22.4602 100.904 22.551 101.414 22.551C101.832 22.551 102.216 22.4989 102.567 22.3941C102.917 22.2898 103.247 22.1554 103.556 21.9913L103.83 22.7968Z" fill="#DFD4A6"/>
<path d="M107.296 14.2932H108.306V23.2877H107.296V14.2932Z" fill="#DFD4A6"/>
<path d="M116.373 23.425C115.745 23.425 115.162 23.3157 114.625 23.0973C114.089 22.879 113.627 22.5717 113.24 22.1762C112.853 21.7805 112.548 21.3004 112.326 20.7361C112.102 20.1721 111.991 19.5397 111.991 18.8389C111.991 18.1564 112.101 17.5334 112.319 16.969C112.537 16.405 112.842 15.9181 113.233 15.5086C113.624 15.0991 114.089 14.7832 114.625 14.5601C115.162 14.3373 115.745 14.2256 116.373 14.2256C117.009 14.2256 117.596 14.3395 118.133 14.5668C118.67 14.7944 119.132 15.1128 119.519 15.5223C119.905 15.9317 120.208 16.4186 120.426 16.9827C120.645 17.547 120.754 18.1656 120.754 18.8389C120.754 19.5397 120.64 20.1744 120.413 20.743C120.185 21.3119 119.876 21.7941 119.485 22.1898C119.093 22.5857 118.629 22.8907 118.092 23.1043C117.555 23.318 116.982 23.425 116.373 23.425ZM116.373 22.5513C116.873 22.5513 117.328 22.4627 117.737 22.2853C118.147 22.1079 118.495 21.8556 118.782 21.5277C119.068 21.2003 119.291 20.8091 119.45 20.3539C119.61 19.8991 119.689 19.3941 119.689 18.8389C119.689 18.3113 119.617 17.82 119.471 17.3648C119.325 16.91 119.111 16.5142 118.83 16.1774C118.547 15.8409 118.199 15.5768 117.785 15.3858C117.371 15.1947 116.9 15.0991 116.373 15.0991C115.872 15.0991 115.417 15.1902 115.008 15.3721C114.599 15.5543 114.25 15.8089 113.964 16.1365C113.677 16.464 113.454 16.8576 113.295 17.317C113.136 17.7766 113.056 18.2838 113.056 18.8387C113.056 19.3937 113.136 19.8988 113.295 20.3537C113.454 20.8088 113.677 21.1999 113.964 21.5276C114.25 21.8551 114.599 22.1078 115.008 22.2852C115.417 22.4626 115.872 22.5513 116.373 22.5513ZM116.659 11.7825H117.792L116.632 13.7888H115.868L116.659 11.7825Z" fill="#DFD4A6"/>
<path d="M131.018 23.2877L126.705 17.5826C126.432 17.2277 126.191 16.9071 125.982 16.6205C125.772 16.3338 125.59 16.077 125.436 15.8494H125.408C125.426 16.077 125.438 16.3023 125.442 16.5252C125.447 16.7483 125.449 17.0371 125.449 17.392V23.2882H124.439V14.2932H125.408L129.557 19.7801C129.849 20.1622 130.101 20.5035 130.315 20.8037C130.529 21.1039 130.713 21.3678 130.868 21.5953H130.895C130.877 21.3589 130.868 21.1246 130.868 20.8923C130.868 20.66 130.868 20.3667 130.868 20.0119V14.2932H131.864V23.2877H131.018Z" fill="#DFD4A6"/>
<path d="M140.831 14.2932H141.84V23.2877H140.831V14.2932Z" fill="#DFD4A6"/>
<path d="M152.541 23.2877L148.228 17.5826C147.955 17.2277 147.714 16.9071 147.505 16.6205C147.295 16.3338 147.114 16.077 146.959 15.8494H146.932C146.95 16.077 146.961 16.3023 146.966 16.5252C146.971 16.7483 146.973 17.0371 146.973 17.392V23.2882H145.963V14.2932H146.932L151.081 19.7801C151.372 20.1622 151.625 20.5035 151.839 20.8037C152.052 21.1039 152.237 21.3678 152.391 21.5953H152.419C152.4 21.3589 152.391 21.1246 152.391 20.8923C152.391 20.66 152.391 20.3667 152.391 20.0119V14.2932H153.388V23.2877H152.541Z" fill="#DFD4A6"/>
<path d="M157.496 21.9497C157.714 22.0954 157.989 22.2319 158.322 22.3591C158.654 22.4867 159.029 22.5503 159.448 22.5503C159.693 22.5503 159.925 22.5255 160.144 22.4754C160.362 22.4254 160.553 22.341 160.717 22.2227C160.881 22.1046 161.013 21.9522 161.113 21.7656C161.213 21.5792 161.263 21.354 161.263 21.0899C161.263 20.7349 161.165 20.4347 160.968 20.1891C160.772 19.9433 160.528 19.7271 160.236 19.5405C159.943 19.3543 159.624 19.1744 159.277 19.0016C158.93 18.8288 158.61 18.6309 158.318 18.4077C158.026 18.1848 157.782 17.9231 157.586 17.6228C157.389 17.3225 157.291 16.9495 157.291 16.5036C157.291 16.1852 157.35 15.8874 157.469 15.6095C157.587 15.332 157.76 15.0908 157.988 14.8861C158.216 14.6814 158.494 14.5198 158.822 14.4014C159.15 14.2833 159.523 14.224 159.942 14.224C160.352 14.224 160.728 14.2672 161.069 14.3535C161.411 14.4401 161.687 14.5335 161.896 14.6332V15.575C161.613 15.4248 161.306 15.3075 160.977 15.2233C160.648 15.1395 160.309 15.0973 159.962 15.0973C159.76 15.0973 159.561 15.1201 159.365 15.1655C159.168 15.2109 158.994 15.2859 158.843 15.3903C158.692 15.4948 158.569 15.6311 158.473 15.7991C158.377 15.9671 158.329 16.1738 158.329 16.419C158.329 16.755 158.427 17.0394 158.623 17.2709C158.819 17.5024 159.063 17.7114 159.356 17.8977C159.648 18.0838 159.968 18.2633 160.314 18.4357C160.661 18.6085 160.981 18.8107 161.273 19.0424C161.565 19.274 161.81 19.5465 162.006 19.86C162.202 20.1737 162.3 20.5618 162.3 21.0249C162.3 21.3974 162.231 21.7335 162.091 22.0334C161.952 22.3331 161.759 22.5852 161.512 22.7896C161.264 22.9939 160.963 23.1509 160.608 23.2597C160.253 23.3685 159.862 23.4231 159.434 23.4231C158.915 23.4231 158.458 23.3549 158.062 23.2183C157.667 23.0818 157.337 22.9228 157.073 22.7407L157.496 21.9497Z" fill="#DFD4A6"/>
<path d="M168.347 15.1667H165.767V14.2932H172.223L171.895 15.1667H169.357V23.3014H168.347L168.347 15.1667Z" fill="#DFD4A6"/>
<path d="M175.212 14.2932H176.222V23.2877H175.212V14.2932Z" fill="#DFD4A6"/>
<path d="M182.023 15.1667H179.443V14.2932H185.899L185.571 15.1667H183.033V23.3014H182.023V15.1667Z" fill="#DFD4A6"/>
<path d="M192.846 23.4246C192.018 23.4246 191.341 23.2609 190.818 22.9332C190.295 22.6057 189.925 22.1279 189.707 21.5001C189.571 21.0817 189.502 20.5993 189.502 20.0533V14.2802H190.512V19.9581C190.512 20.4493 190.57 20.8681 190.689 21.2137C190.843 21.6417 191.1 21.9711 191.46 22.2032C191.82 22.4352 192.282 22.5511 192.846 22.5511C193.42 22.5511 193.882 22.4352 194.238 22.2032C194.593 21.9711 194.846 21.6413 195.002 21.2137C195.075 21.0319 195.123 20.8362 195.146 20.6269C195.167 20.4176 195.18 20.1812 195.18 19.9172V14.2802H196.19V20.0536C196.19 20.636 196.112 21.1274 195.957 21.5277C195.739 22.1465 195.366 22.6176 194.837 22.9405C194.311 23.2633 193.647 23.4246 192.846 23.4246Z" fill="#DFD4A6"/>
<path d="M206.603 22.7968C206.176 23.0243 205.752 23.1856 205.334 23.2813C204.916 23.377 204.501 23.4245 204.092 23.4245C203.418 23.4245 202.817 23.3132 202.291 23.0902C201.763 22.8675 201.315 22.5558 200.946 22.1552C200.577 21.7549 200.296 21.2771 200.099 20.7221C199.904 20.1672 199.807 19.5619 199.807 18.9067C199.807 18.2515 199.913 17.6374 200.127 17.0642C200.34 16.4909 200.643 15.9951 201.035 15.5765C201.426 15.1581 201.896 14.8282 202.447 14.587C202.998 14.3461 203.604 14.2252 204.269 14.2252C204.751 14.2252 205.185 14.2729 205.573 14.3687C205.959 14.4642 206.266 14.5756 206.495 14.7029V15.6583C206.176 15.4856 205.844 15.3491 205.497 15.2489C205.151 15.1489 204.747 15.0987 204.283 15.0987C203.764 15.0987 203.296 15.1968 202.878 15.3923C202.458 15.5881 202.102 15.8541 201.806 16.1906C201.51 16.5274 201.281 16.9232 201.116 17.3781C200.953 17.8331 200.872 18.32 200.872 18.8385C200.872 19.3845 200.948 19.8849 201.104 20.3399C201.258 20.7949 201.478 21.1861 201.765 21.5137C202.052 21.8412 202.399 22.0961 202.809 22.2781C203.218 22.4602 203.679 22.551 204.187 22.551C204.606 22.551 204.99 22.4989 205.341 22.3941C205.692 22.2898 206.022 22.1554 206.33 21.9913L206.603 22.7968Z" fill="#DFD4A6"/>
<path d="M210.057 14.2932H211.067V23.2877H210.057V14.2932Z" fill="#DFD4A6"/>
<path d="M219.134 23.4245C218.505 23.4245 217.923 23.3153 217.386 23.097C216.849 22.8786 216.387 22.5713 216.001 22.1758C215.614 21.7799 215.309 21.3 215.086 20.7358C214.863 20.1717 214.751 19.5394 214.751 18.8385C214.751 18.156 214.861 17.533 215.079 16.9686C215.297 16.4046 215.602 15.9177 215.993 15.5082C216.385 15.0987 216.849 14.7828 217.386 14.5597C217.923 14.3369 218.505 14.2252 219.132 14.2252C219.77 14.2252 220.356 14.3391 220.893 14.5664C221.43 14.794 221.891 15.1124 222.279 15.5219C222.666 15.9313 222.969 16.4182 223.187 16.9823C223.405 17.5466 223.514 18.1652 223.514 18.8385C223.514 19.5394 223.399 20.1738 223.172 20.7427C222.946 21.3115 222.635 21.7935 222.244 22.1894C221.854 22.5852 221.39 22.8902 220.853 23.1039C220.316 23.3176 219.743 23.4245 219.134 23.4245ZM219.134 22.551C219.633 22.551 220.089 22.4624 220.498 22.285C220.908 22.1076 221.255 21.8552 221.542 21.5274C221.829 21.1997 222.052 20.8086 222.21 20.3535C222.37 19.8986 222.449 19.3937 222.449 18.8385C222.449 18.3109 222.377 17.8195 222.231 17.3644C222.086 16.9096 221.872 16.5138 221.59 16.177C221.308 15.8405 220.959 15.5765 220.546 15.3854C220.131 15.1943 219.66 15.0987 219.134 15.0987C218.632 15.0987 218.177 15.1898 217.767 15.3717C217.358 15.5539 217.011 15.8085 216.724 16.1361C216.438 16.4636 216.215 16.8572 216.055 17.3166C215.896 17.7761 215.816 18.2834 215.816 18.8383C215.816 19.3933 215.896 19.8984 216.055 20.3533C216.215 20.8084 216.438 21.1995 216.724 21.527C217.011 21.8547 217.358 22.1072 217.767 22.2848C218.177 22.4622 218.632 22.551 219.134 22.551Z" fill="#DFD4A6"/>
<path d="M233.777 23.2877L229.465 17.5826C229.192 17.2277 228.951 16.9071 228.74 16.6205C228.531 16.3338 228.351 16.077 228.195 15.8494H228.168C228.186 16.077 228.198 16.3023 228.202 16.5252C228.207 16.7483 228.209 17.0371 228.209 17.392V23.2882H227.199V14.2932H228.168L232.318 19.7801C232.609 20.1622 232.861 20.5035 233.075 20.8037C233.288 21.1039 233.474 21.3678 233.628 21.5953H233.655C233.637 21.3589 233.628 21.1246 233.628 20.8923C233.628 20.66 233.628 20.3667 233.628 20.0119V14.2932H234.624V23.2877H233.777Z" fill="#DFD4A6"/>
<path d="M241.216 14.2659H241.913L245.353 23.2878H244.261L243.373 20.8718H239.756L238.868 23.2878H237.805L241.216 14.2659ZM243.045 20.0256L242.117 17.4324C241.971 17.0321 241.86 16.716 241.784 16.4839C241.706 16.2519 241.64 16.0496 241.585 15.8764H241.558C241.504 16.0494 241.434 16.2519 241.353 16.4839C241.271 16.716 241.158 17.0321 241.013 17.4324L240.07 20.0256H243.045Z" fill="#DFD4A6"/>
<path d="M248.532 14.2802H249.542V22.4148H252.886V23.2883H248.532V14.2802Z" fill="#DFD4A6"/>
<path d="M20.2699 27.984H27.4755C29.2315 27.984 30.7954 28.211 32.1681 28.6652C33.5405 29.1194 34.7009 29.7703 35.6499 30.618C36.5983 31.4658 37.3249 32.495 37.8298 33.7061C38.334 34.9172 38.5867 36.2796 38.5867 37.7934C38.5867 39.3676 38.2991 40.7807 37.7238 42.0319C37.1486 43.2837 36.3462 44.3481 35.3169 45.226C34.2874 46.1039 33.0661 46.7752 31.6535 47.2393C30.2406 47.7038 28.6866 47.9356 26.9911 47.9356H20.2699V27.984ZM27.1122 44.0301C28.2627 44.0301 29.2513 43.8689 30.0791 43.5456C30.9065 43.2231 31.5877 42.7788 32.1228 42.2135C32.6572 41.6487 33.0462 41.0026 33.2883 40.276C33.5306 39.5492 33.6518 38.7725 33.6518 37.9447C33.6518 35.9872 33.0865 34.4885 31.9562 33.4488C30.8257 32.4094 29.1808 31.8897 27.0213 31.8897H24.9021V44.0301H27.1122Z" fill="#DFD4A6"/>
<path d="M43.2793 27.984H55.2684L54.0877 31.8897H47.9113V35.9162H54.1784V39.8218H47.9113V44.0301H55.2078V47.9356H43.2793V27.984Z" fill="#DFD4A6"/>
<path d="M70.0423 27.8928H73.8571L82.1222 47.9353H77.1572L75.2498 43.1821H68.7708L66.9542 47.9353H62.2009L70.0423 27.8928ZM73.8571 39.4884L72.9186 36.7334C72.6961 36.0474 72.5198 35.4821 72.3887 35.0378C72.2572 34.5942 72.1512 34.2105 72.0708 33.8873H72.0103C71.9293 34.2309 71.8182 34.6245 71.6772 35.0681C71.5357 35.5124 71.3337 36.0777 71.0718 36.7635L70.0727 39.4884H73.8571Z" fill="#DFD4A6"/>
<path d="M83.8779 27.984H88.51V44.0301H95.3523V47.9356H83.8779V27.984Z" fill="#DFD4A6"/>
<path d="M101.346 31.8897H95.5032V27.984H112.276L111.095 31.8897H105.979V47.9356H101.346V31.8897Z" fill="#DFD4A6"/>
<path d="M119.603 27.8928H123.417L131.682 47.9353H126.717L124.81 43.1821H118.331L116.514 47.9353H111.761L119.603 27.8928ZM123.417 39.4884L122.479 36.7334C122.256 36.0474 122.08 35.4821 121.949 35.0378C121.818 34.5942 121.712 34.2105 121.631 33.8873H121.571C121.49 34.2309 121.379 34.6245 121.238 35.0681C121.096 35.5124 120.894 36.0777 120.632 36.7635L119.633 39.4884H123.417Z" fill="#DFD4A6"/>
<path d="M155.811 46.5429C154.58 47.2091 153.394 47.6585 152.254 47.8903C151.113 48.1221 150.008 48.2383 148.939 48.2383C147.203 48.2383 145.684 47.9858 144.383 47.4814C143.081 46.9773 141.991 46.2808 141.113 45.3924C140.235 44.5046 139.573 43.4397 139.13 42.1985C138.685 40.9571 138.464 39.6099 138.464 38.1565C138.464 36.7238 138.721 35.3764 139.236 34.1148C139.75 32.8537 140.482 31.7532 141.431 30.8147C142.379 29.8762 143.53 29.1345 144.882 28.5896C146.234 28.0445 147.758 27.7721 149.454 27.7721C150.584 27.7721 151.598 27.8582 152.497 28.0294C153.394 28.2011 154.197 28.4281 154.903 28.7106V32.9493C153.228 32.0612 151.452 31.6171 149.575 31.6171C148.505 31.6171 147.581 31.794 146.805 32.1468C146.027 32.5002 145.386 32.9748 144.882 33.5699C144.377 34.1655 144.004 34.8566 143.762 35.6436C143.52 36.4308 143.399 37.2483 143.399 38.0961C143.399 39.0247 143.539 39.8777 143.822 40.6544C144.105 41.4315 144.514 42.0976 145.048 42.6525C145.583 43.2079 146.224 43.6364 146.971 43.9393C147.717 44.2419 148.565 44.3933 149.514 44.3933C150.563 44.3933 151.477 44.2572 152.254 43.9846C153.031 43.7122 153.793 43.3541 154.54 42.9098L155.811 46.5429Z" fill="#DFD4A6"/>
<path d="M164.046 27.8928H167.861L176.126 47.9353H171.161L169.254 43.1821H162.775L160.958 47.9353H156.205L164.046 27.8928ZM167.861 39.4884L166.922 36.7334C166.7 36.0474 166.524 35.4821 166.392 35.0378C166.261 34.5942 166.155 34.2105 166.075 33.8873H166.014C165.933 34.2309 165.822 34.6245 165.681 35.0681C165.54 35.5124 165.338 36.0777 165.076 36.7635L164.077 39.4884H167.861Z" fill="#DFD4A6"/>
<path d="M177.883 27.984H182.516V44.0301H189.356V47.9356H177.883V27.984Z" fill="#DFD4A6"/>
<path d="M191.476 27.984H196.108V47.9356H191.476V27.984Z" fill="#DFD4A6"/>
<path d="M200.042 27.984H207.248C209.004 27.984 210.569 28.211 211.94 28.6652C213.314 29.1194 214.475 29.7703 215.423 30.618C216.371 31.4658 217.097 32.495 217.602 33.7061C218.108 34.9172 218.359 36.2796 218.359 37.7934C218.359 39.3676 218.072 40.7807 217.496 42.0319C216.922 43.2837 216.119 44.3481 215.09 45.226C214.06 46.1039 212.839 46.7752 211.427 47.2393C210.014 47.7038 208.46 47.9356 206.764 47.9356H200.042V27.984ZM206.885 44.0301C208.036 44.0301 209.024 43.8689 209.853 43.5456C210.679 43.2231 211.361 42.7788 211.896 42.2135C212.43 41.6487 212.819 41.0026 213.06 40.276C213.303 39.5492 213.426 38.7725 213.426 37.9447C213.426 35.9872 212.86 34.4885 211.73 33.4488C210.599 32.4094 208.954 31.8897 206.794 31.8897H204.675V44.0301H206.885Z" fill="#DFD4A6"/>
<path d="M227.17 27.8928H230.984L239.249 47.9353H234.286L232.377 43.1821H225.898L224.082 47.9353H219.329L227.17 27.8928ZM230.984 39.4884L230.047 36.7334C229.823 36.0474 229.648 35.4821 229.517 35.0378C229.386 34.5942 229.279 34.2105 229.198 33.8873H229.137C229.058 34.2309 228.946 34.6245 228.804 35.0681C228.664 35.5124 228.462 36.0777 228.2 36.7635L227.201 39.4884H230.984Z" fill="#DFD4A6"/>
<path d="M241.006 27.984H248.211C249.967 27.984 251.53 28.211 252.904 28.6652C254.275 29.1194 255.436 29.7703 256.386 30.618C257.334 31.4658 258.061 32.495 258.566 33.7061C259.069 34.9172 259.323 36.2796 259.323 37.7934C259.323 39.3676 259.034 40.7807 258.46 42.0319C257.884 43.2837 257.081 44.3481 256.053 45.226C255.023 46.1039 253.802 46.7752 252.388 47.2393C250.976 47.7038 249.422 47.9356 247.727 47.9356H241.006V27.984ZM247.848 44.0301C248.998 44.0301 249.987 43.8689 250.814 43.5456C251.642 43.2231 252.324 42.7788 252.858 42.2135C253.393 41.6487 253.781 41.0026 254.024 40.276C254.267 39.5492 254.387 38.7725 254.387 37.9447C254.387 35.9872 253.822 34.4885 252.691 33.4488C251.561 32.4094 249.916 31.8897 247.758 31.8897H245.638V44.0301H247.848Z" fill="#DFD4A6"/>
<path d="M19.0939 52.6696H21.8336L29.1395 63.6681C29.6952 64.5155 30.1581 65.2235 30.5292 65.7925C30.8996 66.3621 31.2439 66.9109 31.5615 67.4403H31.6409C31.9585 66.9109 32.3092 66.3355 32.693 65.7131C33.0765 65.0915 33.5332 64.3569 34.0629 63.5095L40.9321 52.6697H43.6717V78.8359H40.7334V62.0403C40.7334 61.3524 40.7334 60.6107 40.7334 59.8168C40.7334 59.0227 40.7595 58.2818 40.8128 57.5933H40.7334C40.4419 58.1232 40.1243 58.685 39.7806 59.2807C39.436 59.8762 39.1316 60.3724 38.8674 60.7697L32.3953 71.0932H30.8468L23.819 60.5714C23.5273 60.1743 23.2166 59.7178 22.8857 59.2014C22.5545 58.6853 22.2703 58.1758 22.0321 57.6727H21.9527C22.0055 58.282 22.0321 58.9967 22.0321 59.817C22.0321 60.638 22.0321 61.3653 22.0321 62.0008V78.8361H19.0939V52.6696Z" fill="#DFD4A6"/>
<path d="M60.0295 79.2331C57.6204 79.2331 55.6553 78.7566 54.1332 77.8037C52.6107 76.8508 51.5326 75.4612 50.8973 73.6345C50.5001 72.4174 50.3016 71.014 50.3016 69.4258V52.6302H53.2399V69.1478C53.2399 70.5772 53.4119 71.7952 53.7561 72.8007C54.206 74.0455 54.9534 75.0044 55.9995 75.6796C57.0447 76.3546 58.388 76.6922 60.0295 76.6922C61.6973 76.6922 63.0471 76.3546 64.0796 75.6796C65.1119 75.0044 65.8526 74.0455 66.3031 72.8007C66.5147 72.2717 66.6536 71.7027 66.7199 71.0934C66.7857 70.4849 66.8192 69.7967 66.8192 69.0289V52.6302H69.7574V69.4258C69.7574 71.12 69.5323 72.5496 69.0825 73.7139C68.4472 75.5144 67.3614 76.8839 65.8266 77.8235C64.2912 78.7635 62.3585 79.2331 60.0295 79.2331Z" fill="#DFD4A6"/>
<path d="M76.3886 52.6302H79.3268V76.2949H89.0547V78.8359H76.3886V52.6302Z" fill="#DFD4A6"/>
<path d="M98.2662 55.2106H90.7618V52.6696H109.543L108.59 55.2106H101.204V78.8753H98.2662V55.2106Z" fill="#DFD4A6"/>
<path d="M113.076 52.6696H116.014V78.8356H113.076V52.6696Z" fill="#DFD4A6"/>
<path d="M141.346 77.407C140.101 78.0689 138.87 78.5386 137.653 78.8166C136.435 79.0945 135.231 79.2334 134.04 79.2334C132.081 79.2334 130.334 78.9091 128.799 78.2607C127.263 77.6124 125.96 76.706 124.888 75.5408C123.816 74.3765 122.995 72.9868 122.426 71.3718C121.857 69.7575 121.572 67.9967 121.572 66.091C121.572 64.185 121.883 62.3983 122.505 60.7306C123.127 59.063 124.008 57.6206 125.146 56.4028C126.284 55.1855 127.654 54.2259 129.255 53.5241C130.857 52.823 132.623 52.4718 134.556 52.4718C135.959 52.4718 137.223 52.6107 138.348 52.8888C139.473 53.1667 140.366 53.4913 141.028 53.8615V56.641C140.101 56.1387 139.135 55.7414 138.129 55.4497C137.123 55.1589 135.946 55.0131 134.596 55.0131C133.087 55.0131 131.723 55.2977 130.506 55.8667C129.288 56.4363 128.249 57.2107 127.389 58.1895C126.528 59.1689 125.86 60.3207 125.384 61.6439C124.907 62.9677 124.669 64.3835 124.669 65.8923C124.669 67.4807 124.894 68.9369 125.344 70.2603C125.794 71.5841 126.436 72.722 127.27 73.6749C128.104 74.628 129.116 75.3691 130.307 75.8984C131.499 76.4283 132.835 76.6925 134.318 76.6925C135.535 76.6925 136.654 76.5405 137.673 76.2356C138.691 75.9317 139.651 75.5408 140.551 75.0644L141.346 77.407Z" fill="#DFD4A6"/>
<path d="M153.456 52.5909H155.481L165.487 78.8363H162.31L159.729 71.8085H149.207L146.627 78.8363H143.53L153.456 52.5909ZM158.777 69.3465L156.077 61.8026C155.653 60.6383 155.328 59.718 155.104 59.043C154.878 58.3678 154.687 57.7791 154.528 57.2762H154.449C154.29 57.7791 154.092 58.3678 153.853 59.043C153.615 59.718 153.284 60.6383 152.861 61.8026L150.121 69.3465H158.777Z" fill="#DFD4A6"/>
<path d="M169.576 52.6696H172.316L179.622 63.6681C180.176 64.5155 180.639 65.2235 181.011 65.7925C181.382 66.3621 181.725 66.9109 182.043 67.4403H182.122C182.439 66.9109 182.79 66.3355 183.175 65.7131C183.558 65.0915 184.015 64.3569 184.545 63.5095L191.414 52.6697H194.153V78.8359H191.215V62.0403C191.215 61.3524 191.215 60.6107 191.215 59.8168C191.215 59.0227 191.242 58.2818 191.295 57.5933H191.215C190.925 58.1232 190.606 58.685 190.262 59.2807C189.918 59.8762 189.613 60.3724 189.349 60.7697L182.877 71.0932H181.328L174.301 60.5714C174.009 60.1743 173.698 59.7178 173.368 59.2014C173.036 58.6853 172.752 58.1758 172.514 57.6727H172.435C172.487 58.282 172.514 58.9967 172.514 59.817C172.514 60.638 172.514 61.3653 172.514 62.0008V78.8361H169.576V52.6696Z" fill="#DFD4A6"/>
<path d="M200.982 52.6696H205.906C207.177 52.6696 208.269 52.7688 209.181 52.9673C210.096 53.1659 210.895 53.4637 211.584 53.8608C212.775 54.5495 213.702 55.4825 214.363 56.6599C215.024 57.8382 215.355 59.2607 215.355 60.9283C215.355 62.4639 215.012 63.8805 214.324 65.1769C213.635 66.4743 212.524 67.4798 210.989 68.1945C210.326 68.486 209.566 68.7244 208.705 68.9092C207.845 69.0946 206.819 69.1871 205.628 69.1871H203.922V78.8356H200.983L200.982 52.6696ZM205.866 66.7254C206.713 66.7254 207.448 66.6527 208.07 66.507C208.692 66.3617 209.227 66.1695 209.677 65.9313C211.451 65.0052 212.337 63.3376 212.337 60.9283C212.337 59.8168 212.127 58.8375 211.703 57.9901C211.279 57.1434 210.657 56.4813 209.837 56.0049C209.387 55.7139 208.845 55.4954 208.208 55.3498C207.574 55.2044 206.805 55.1313 205.905 55.1313H203.92V66.7254H205.866Z" fill="#DFD4A6"/>
<path d="M230.444 79.2331C228.035 79.2331 226.07 78.7566 224.548 77.8037C223.025 76.8508 221.948 75.4612 221.312 73.6345C220.915 72.4174 220.716 71.014 220.716 69.4258V52.6302H223.654V69.1478C223.654 70.5772 223.826 71.7952 224.17 72.8007C224.62 74.0455 225.368 75.0044 226.414 75.6796C227.459 76.3546 228.803 76.6922 230.444 76.6922C232.111 76.6922 233.462 76.3546 234.495 75.6796C235.526 75.0044 236.267 74.0455 236.717 72.8007C236.93 72.2717 237.068 71.7027 237.135 71.0934C237.201 70.4849 237.234 69.7967 237.234 69.0289V52.6302H240.173V69.4258C240.173 71.12 239.948 72.5496 239.497 73.7139C238.861 75.5144 237.777 76.8839 236.24 77.8235C234.706 78.7635 232.774 79.2331 230.444 79.2331Z" fill="#DFD4A6"/>
<path d="M246.763 74.9453C247.399 75.3689 248.199 75.7662 249.166 76.1364C250.132 76.5075 251.224 76.6923 252.441 76.6923C253.155 76.6923 253.831 76.6197 254.467 76.474C255.101 76.3285 255.658 76.0836 256.134 75.7391C256.611 75.3955 256.994 74.9519 257.286 74.4093C257.577 73.8668 257.722 73.2118 257.722 72.4438C257.722 71.4115 257.437 70.5376 256.866 69.8229C256.296 69.1082 255.583 68.48 254.734 67.937C253.884 67.3946 252.953 66.8716 251.945 66.3687C250.935 65.8663 250.006 65.2903 249.156 64.6413C248.307 63.9933 247.594 63.2318 247.024 62.3583C246.453 61.4848 246.168 60.3995 246.168 59.1027C246.168 58.1764 246.34 57.3094 246.685 56.502C247.029 55.695 247.532 54.9932 248.195 54.3976C248.858 53.802 249.666 53.3325 250.619 52.988C251.575 52.6444 252.661 52.4718 253.88 52.4718C255.073 52.4718 256.166 52.598 257.159 52.8491C258.153 53.1009 258.954 53.3722 259.565 53.663V56.4028C258.739 55.9654 257.848 55.6243 256.889 55.3797C255.932 55.1353 254.947 55.0131 253.937 55.0131C253.35 55.0131 252.771 55.0795 252.2 55.2115C251.628 55.3438 251.121 55.5614 250.683 55.8655C250.244 56.1694 249.884 56.566 249.604 57.0546C249.326 57.5433 249.186 58.1448 249.186 58.8583C249.186 59.8358 249.471 60.6623 250.042 61.3361C250.612 62.0099 251.323 62.6177 252.174 63.1595C253.024 63.701 253.953 64.2228 254.963 64.7248C255.971 65.2274 256.902 65.8158 257.752 66.4892C258.601 67.1629 259.312 67.9558 259.884 68.8677C260.455 69.7799 260.74 70.9089 260.74 72.2565C260.74 73.3401 260.538 74.3182 260.132 75.1903C259.728 76.0625 259.165 76.7958 258.445 77.3902C257.726 77.9849 256.849 78.4409 255.817 78.758C254.784 79.0745 253.646 79.2332 252.402 79.2332C250.892 79.2332 249.563 79.0348 248.411 78.638C247.259 78.2407 246.301 77.778 245.533 77.2479L246.763 74.9453Z" fill="#DFD4A6"/>
<path d="M25.8736 88.4281H27.2038C27.5477 88.4281 27.8373 88.4579 28.0723 88.5174C28.3071 88.577 28.5107 88.6631 28.6828 88.7754C28.9474 88.941 29.1411 89.1495 29.2635 89.4008C29.3858 89.6527 29.4471 89.9238 29.4471 90.2148C29.4471 90.6715 29.3312 91.0404 29.0996 91.3217C28.8678 91.6031 28.5403 91.8097 28.117 91.9421V91.9619C28.2162 92.0149 28.3286 92.1291 28.4544 92.3043C28.58 92.4798 28.7289 92.713 28.9011 93.0041L30.0924 94.9696H29.2387L28.0971 93.0736C27.9447 92.8156 27.8058 92.6106 27.6801 92.4581C27.5543 92.3061 27.442 92.2168 27.3427 92.1902H26.6082V94.9696H25.8736V88.4281ZM27.2236 91.5749C27.5742 91.5749 27.8752 91.5023 28.1269 91.3566C28.2988 91.2573 28.4361 91.1166 28.5389 90.9348C28.6413 90.7528 28.6927 90.5363 28.6927 90.2846C28.6927 90.0927 28.6594 89.9158 28.5935 89.7535C28.5272 89.5915 28.4212 89.4574 28.2757 89.3514C28.1698 89.2589 28.0326 89.1843 27.8639 89.1281C27.695 89.0721 27.4848 89.0437 27.2335 89.0437H26.6082V91.5749H27.2236Z" fill="#DFD4A6"/>
<path d="M33.5366 92.7455C33.5366 92.9837 33.5713 93.2072 33.641 93.4156C33.7104 93.624 33.8111 93.806 33.9436 93.9616C34.0758 94.1168 34.2382 94.2377 34.4301 94.3238C34.6218 94.41 34.8435 94.4528 35.095 94.4528C35.3199 94.4528 35.5283 94.4231 35.7204 94.3635C35.9123 94.3042 36.0909 94.2281 36.2565 94.1353L36.4847 94.6515C36.2795 94.7839 36.0445 94.8865 35.7799 94.9591C35.5152 95.0318 35.254 95.0683 34.9958 95.0683C34.625 95.0683 34.3009 95.0019 34.023 94.8695C33.7452 94.7373 33.5134 94.5569 33.3282 94.3286C33.143 94.1002 33.0056 93.8358 32.9163 93.5345C32.8268 93.2334 32.7822 92.9109 32.7822 92.5669C32.7822 92.2095 32.8302 91.8834 32.9262 91.589C33.0219 91.2945 33.1545 91.0398 33.3232 90.8247C33.4919 90.6099 33.6938 90.4444 33.9287 90.3285C34.1636 90.2128 34.4234 90.1547 34.708 90.1547C35.31 90.1547 35.7734 90.3716 36.0977 90.8049C36.4218 91.2385 36.584 91.8258 36.584 92.5671V92.7457L33.5366 92.7455ZM35.8296 92.1797C35.823 92.0011 35.7964 91.8258 35.75 91.6537C35.7034 91.4818 35.6353 91.3296 35.5455 91.197C35.4556 91.0648 35.3427 90.9573 35.2065 90.8743C35.0702 90.7917 34.9093 90.7503 34.723 90.7503C34.5437 90.7503 34.3808 90.7884 34.2344 90.8644C34.0881 90.9406 33.9653 91.0432 33.8657 91.1722C33.7659 91.3012 33.6877 91.4519 33.6314 91.6236C33.5748 91.7959 33.5433 91.981 33.5369 92.1795L35.8296 92.1797Z" fill="#DFD4A6"/>
<path d="M39.6613 94.1057C39.7935 94.1922 39.9556 94.2712 40.1475 94.3442C40.3395 94.4169 40.5677 94.4532 40.8325 94.4532C41.1038 94.4532 41.3388 94.3952 41.5373 94.2793C41.7359 94.1638 41.8352 93.9703 41.8352 93.6988C41.8352 93.5267 41.7806 93.3878 41.6714 93.2818C41.5621 93.1758 41.4263 93.0833 41.2644 93.0039C41.102 92.9245 40.9269 92.8467 40.7382 92.7705C40.5496 92.6947 40.3742 92.6018 40.2122 92.4927C40.0499 92.3837 39.9143 92.2465 39.8052 92.081C39.696 91.9155 39.6414 91.7035 39.6414 91.4455C39.6414 91.0884 39.7754 90.7838 40.0433 90.5321C40.3115 90.2805 40.7067 90.1547 41.2296 90.1547C41.4545 90.1547 41.6665 90.1763 41.8649 90.2195C42.0634 90.2628 42.2387 90.3138 42.3911 90.3733V91.0186C42.2321 90.9429 42.0616 90.8793 41.8798 90.8277C41.6976 90.7763 41.4908 90.7503 41.2594 90.7503C41.1467 90.7503 41.0361 90.7606 40.9269 90.7804C40.8176 90.7999 40.7215 90.835 40.639 90.8846C40.5564 90.9344 40.4883 91.0025 40.4355 91.0886C40.3824 91.1749 40.3561 91.2809 40.3561 91.407C40.3561 91.5791 40.4107 91.7186 40.5199 91.8249C40.629 91.9311 40.7664 92.0257 40.9319 92.1085C41.0971 92.1914 41.2743 92.2694 41.4628 92.3422C41.6516 92.4152 41.8284 92.5081 41.994 92.6208C42.1595 92.7337 42.2966 92.8728 42.406 93.0388C42.5151 93.2047 42.5697 93.4204 42.5697 93.6853C42.5697 93.9176 42.5251 94.1216 42.4357 94.2972C42.3463 94.473 42.2222 94.6171 42.0634 94.73C41.9046 94.8427 41.7193 94.9274 41.5075 94.9838C41.2955 95.04 41.0708 95.0683 40.8325 95.0683C40.5213 95.0683 40.247 95.0251 40.0086 94.9391C39.7704 94.8532 39.5751 94.7639 39.4229 94.671L39.6613 94.1057Z" fill="#DFD4A6"/>
<path d="M46.2223 95.0487C46.0898 95.0487 45.9774 94.9991 45.8847 94.8995C45.792 94.8006 45.7458 94.6847 45.7458 94.5523C45.7458 94.4201 45.792 94.306 45.8847 94.2099C45.9774 94.1139 46.0898 94.066 46.2223 94.066C46.3545 94.066 46.4655 94.1139 46.5548 94.2099C46.6441 94.306 46.6888 94.4201 46.6888 94.5523C46.6888 94.6847 46.6441 94.8006 46.5548 94.8995C46.4655 94.9991 46.3545 95.0487 46.2223 95.0487Z" fill="#DFD4A6"/>
<path d="M54.7891 88.4281H55.474L57.3006 91.1778C57.4395 91.3895 57.5552 91.5666 57.6479 91.7091C57.7406 91.8512 57.8267 91.9887 57.9061 92.1207H57.9259C58.0053 91.9887 58.0929 91.8448 58.1889 91.6892C58.2848 91.5336 58.3989 91.3502 58.5315 91.1379L60.2487 88.4281H60.9336V94.9696H60.1991V90.7707C60.1991 90.5988 60.1991 90.4134 60.1991 90.2148C60.1991 90.0163 60.2055 89.8311 60.2189 89.6589H60.1991C60.1261 89.7914 60.0467 89.9321 59.9607 90.0808C59.8748 90.23 59.7988 90.3541 59.7325 90.4531L58.1145 93.0339H57.7273L55.9704 90.4032C55.8974 90.3041 55.8197 90.19 55.7372 90.0608C55.6544 89.9316 55.5833 89.8044 55.5236 89.6785H55.5038C55.5171 89.8309 55.5236 90.0096 55.5236 90.2146C55.5236 90.4198 55.5236 90.602 55.5236 90.7606V94.9693H54.7891V88.4281Z" fill="#DFD4A6"/>
<path d="M64.8241 88.4281H67.9808L67.7425 89.0636H65.5587V91.307H67.7127V91.9423H65.5587V94.3349H68.0404V94.97H64.8241V88.4281Z" fill="#DFD4A6"/>
<path d="M76.4377 94.9693L73.301 90.82C73.1025 90.562 72.9271 90.3286 72.7749 90.1202C72.6224 89.9118 72.4902 89.7248 72.3779 89.5593H72.358C72.3712 89.7248 72.3793 89.8887 72.3829 90.0505C72.386 90.2127 72.3878 90.4227 72.3878 90.6807V94.969H71.6533V88.4274H72.358L75.3757 92.418C75.5873 92.6958 75.7709 92.9439 75.9265 93.1624C76.0819 93.3808 76.2158 93.5729 76.3285 93.738H76.3484C76.3349 93.5661 76.3285 93.3957 76.3285 93.2269C76.3285 93.0579 76.3285 92.8447 76.3285 92.5867V88.4272H77.0532V94.9688L76.4377 94.9693Z" fill="#DFD4A6"/>
<path d="M90.1467 94.9693L87.01 90.82C86.8115 90.562 86.6361 90.3286 86.484 90.1202C86.3316 89.9118 86.1992 89.7248 86.0869 89.5593H86.067C86.0801 89.7248 86.0883 89.8887 86.0918 90.0505C86.095 90.2127 86.0968 90.4227 86.0968 90.6807V94.969H85.3622V88.4274H86.067L89.0846 92.418C89.2964 92.6958 89.48 92.9439 89.6356 93.1624C89.7909 93.3808 89.925 93.5729 90.0375 93.738H90.0574C90.0441 93.5661 90.0375 93.3957 90.0375 93.2269C90.0375 93.0579 90.0375 92.8447 90.0375 92.5867V88.4272H90.7622V94.9688L90.1467 94.9693Z" fill="#DFD4A6"/>
<path d="M96.3602 95.0688C96.0293 95.0688 95.7313 95.0057 95.4667 94.8799C95.2019 94.7545 94.9754 94.5806 94.7867 94.3589C94.5982 94.137 94.4525 93.8774 94.3501 93.5797C94.2473 93.2818 94.1962 92.9609 94.1962 92.6165C94.1962 92.2726 94.2473 91.95 94.3501 91.6489C94.4525 91.3479 94.5982 91.0863 94.7867 90.8648C94.9754 90.6429 95.2037 90.4694 95.4716 90.3436C95.7398 90.2177 96.0391 90.1547 96.3701 90.1547C96.6941 90.1547 96.9904 90.2177 97.2585 90.3436C97.5265 90.4694 97.7547 90.6429 97.9434 90.8648C98.132 91.0866 98.2775 91.3479 98.3801 91.6489C98.4827 91.9502 98.5341 92.2727 98.5341 92.6165C98.5341 92.9609 98.4827 93.2818 98.3801 93.5797C98.2775 93.8772 98.132 94.137 97.9434 94.3589C97.7547 94.5806 97.5265 94.7545 97.2585 94.8799C96.9904 95.0057 96.6909 95.0688 96.3602 95.0688ZM96.3652 94.4333C96.5842 94.4333 96.78 94.3889 96.9528 94.3001C97.1254 94.2115 97.2734 94.0864 97.396 93.9247C97.5188 93.7638 97.6133 93.5726 97.6799 93.352C97.7464 93.1317 97.7795 92.8864 97.7795 92.6165C97.7795 92.3468 97.7464 92.1001 97.6799 91.8763C97.6133 91.6527 97.5188 91.46 97.396 91.2988C97.273 91.1377 97.1254 91.0126 96.9528 90.9236C96.78 90.835 96.5874 90.7903 96.3751 90.7903C96.1559 90.7903 95.9583 90.835 95.7825 90.9236C95.6065 91.0124 95.4571 91.1375 95.3343 91.2988C95.2113 91.46 95.1165 91.6527 95.0501 91.8763C94.9838 92.1001 94.9506 92.3468 94.9506 92.6165C94.9506 92.8864 94.9838 93.1317 95.0501 93.352C95.1165 93.5726 95.2111 93.7635 95.3343 93.9247C95.4571 94.0862 95.6047 94.2111 95.7775 94.3001C95.9499 94.389 96.1459 94.4333 96.3652 94.4333Z" fill="#DFD4A6"/>
<path d="M102.216 95.0487C102.084 95.0487 101.972 94.9991 101.879 94.8995C101.786 94.8006 101.74 94.6847 101.74 94.5523C101.74 94.4201 101.786 94.306 101.879 94.2099C101.972 94.1139 102.084 94.066 102.216 94.066C102.349 94.066 102.46 94.1139 102.549 94.2099C102.638 94.306 102.683 94.4201 102.683 94.5523C102.683 94.6847 102.638 94.8006 102.549 94.8995C102.46 94.9991 102.349 95.0487 102.216 95.0487Z" fill="#DFD4A6"/>
<path d="M112.669 95.0689C112.338 95.0689 112.037 94.996 111.766 94.8504C111.495 94.7049 111.263 94.4917 111.071 94.2103C110.879 93.9288 110.729 93.5799 110.619 93.1629C110.51 92.7459 110.456 92.2662 110.456 91.7236C110.456 91.1808 110.51 90.7028 110.619 90.2892C110.729 89.8758 110.879 89.5265 111.071 89.2419C111.263 88.9574 111.495 88.7423 111.766 88.5966C112.037 88.451 112.338 88.3783 112.669 88.3783C112.993 88.3783 113.291 88.451 113.563 88.5966C113.834 88.7423 114.067 88.9573 114.263 89.2419C114.458 89.5263 114.61 89.8758 114.719 90.2892C114.828 90.7028 114.883 91.181 114.883 91.7236C114.883 92.266 114.828 92.7459 114.719 93.1629C114.61 93.5799 114.458 93.9288 114.263 94.2103C114.067 94.4917 113.834 94.7049 113.563 94.8504C113.291 94.996 112.993 95.0689 112.669 95.0689ZM112.669 94.4334C113.122 94.4334 113.479 94.1952 113.739 93.7187C113.999 93.2423 114.129 92.5772 114.129 91.7236C114.129 90.8701 114 90.2049 113.744 89.7283C113.487 89.2518 113.129 89.0136 112.669 89.0136C112.216 89.0136 111.86 89.2518 111.6 89.7283C111.34 90.2049 111.21 90.8701 111.21 91.7236C111.21 92.5772 111.338 93.2423 111.595 93.7187C111.851 94.1952 112.209 94.4334 112.669 94.4334Z" fill="#DFD4A6"/>
<path d="M120.332 95.0689C120.001 95.0689 119.7 94.996 119.429 94.8504C119.157 94.7049 118.926 94.4917 118.734 94.2103C118.542 93.9288 118.391 93.5799 118.282 93.1629C118.173 92.7459 118.119 92.2662 118.119 91.7236C118.119 91.1808 118.173 90.7028 118.282 90.2892C118.391 89.8758 118.542 89.5265 118.734 89.2419C118.926 88.9574 119.157 88.7423 119.429 88.5966C119.7 88.451 120.001 88.3783 120.332 88.3783C120.656 88.3783 120.954 88.451 121.225 88.5966C121.497 88.7423 121.73 88.9573 121.925 89.2419C122.12 89.5263 122.273 89.8758 122.382 90.2892C122.491 90.7028 122.546 91.181 122.546 91.7236C122.546 92.266 122.491 92.7459 122.382 93.1629C122.273 93.5799 122.12 93.9288 121.925 94.2103C121.73 94.4917 121.497 94.7049 121.225 94.8504C120.954 94.996 120.656 95.0689 120.332 95.0689ZM120.332 94.4334C120.785 94.4334 121.142 94.1952 121.402 93.7187C121.661 93.2423 121.791 92.5772 121.791 91.7236C121.791 90.8701 121.663 90.2049 121.406 89.7283C121.15 89.2518 120.792 89.0136 120.332 89.0136C119.879 89.0136 119.522 89.2518 119.262 89.7283C119.003 90.2049 118.873 90.8701 118.873 91.7236C118.873 92.5772 119.001 93.2423 119.257 93.7187C119.514 94.1952 119.872 94.4334 120.332 94.4334Z" fill="#DFD4A6"/>
<path d="M127.995 95.0689C127.664 95.0689 127.363 94.996 127.092 94.8504C126.821 94.7049 126.589 94.4917 126.397 94.2103C126.205 93.9288 126.055 93.5799 125.945 93.1629C125.836 92.7459 125.782 92.2662 125.782 91.7236C125.782 91.1808 125.836 90.7028 125.945 90.2892C126.055 89.8758 126.205 89.5265 126.397 89.2419C126.589 88.9574 126.821 88.7423 127.092 88.5966C127.363 88.451 127.664 88.3783 127.995 88.3783C128.319 88.3783 128.617 88.451 128.889 88.5966C129.16 88.7423 129.393 88.9573 129.588 89.2419C129.784 89.5263 129.936 89.8758 130.045 90.2892C130.154 90.7028 130.209 91.181 130.209 91.7236C130.209 92.266 130.154 92.7459 130.045 93.1629C129.936 93.5799 129.784 93.9288 129.588 94.2103C129.393 94.4917 129.16 94.7049 128.889 94.8504C128.617 94.996 128.319 95.0689 127.995 95.0689ZM127.995 94.4334C128.448 94.4334 128.805 94.1952 129.065 93.7187C129.325 93.2423 129.454 92.5772 129.454 91.7236C129.454 90.8701 129.326 90.2049 129.07 89.7283C128.813 89.2518 128.455 89.0136 127.995 89.0136C127.542 89.0136 127.186 89.2518 126.926 89.7283C126.666 90.2049 126.536 90.8701 126.536 91.7236C126.536 92.5772 126.664 93.2423 126.921 93.7187C127.177 94.1952 127.536 94.4334 127.995 94.4334Z" fill="#DFD4A6"/>
<path d="M135.658 95.0689C135.327 95.0689 135.026 94.996 134.755 94.8504C134.484 94.7049 134.252 94.4917 134.06 94.2103C133.868 93.9288 133.718 93.5799 133.609 93.1629C133.499 92.7459 133.445 92.2662 133.445 91.7236C133.445 91.1808 133.499 90.7028 133.609 90.2892C133.718 89.8758 133.868 89.5265 134.06 89.2419C134.252 88.9574 134.484 88.7423 134.755 88.5966C135.026 88.451 135.327 88.3783 135.658 88.3783C135.983 88.3783 136.28 88.451 136.552 88.5966C136.823 88.7423 137.056 88.9573 137.252 89.2419C137.447 89.5263 137.599 89.8758 137.708 90.2892C137.817 90.7028 137.872 91.181 137.872 91.7236C137.872 92.266 137.817 92.7459 137.708 93.1629C137.599 93.5799 137.447 93.9288 137.252 94.2103C137.056 94.4917 136.823 94.7049 136.552 94.8504C136.28 94.996 135.983 95.0689 135.658 95.0689ZM135.658 94.4334C136.112 94.4334 136.468 94.1952 136.728 93.7187C136.988 93.2423 137.118 92.5772 137.118 91.7236C137.118 90.8701 136.989 90.2049 136.733 89.7283C136.476 89.2518 136.118 89.0136 135.658 89.0136C135.205 89.0136 134.849 89.2518 134.589 89.7283C134.329 90.2049 134.199 90.8701 134.199 91.7236C134.199 92.5772 134.328 93.2423 134.584 93.7187C134.84 94.1952 135.199 94.4334 135.658 94.4334Z" fill="#DFD4A6"/>
<path d="M140.979 94.9695C141.025 94.3937 141.138 93.909 141.316 93.5152C141.495 93.1216 141.703 92.7872 141.942 92.5126C142.18 92.2384 142.431 92.0048 142.696 91.8131C142.961 91.6212 143.204 91.4374 143.426 91.262C143.647 91.0867 143.831 90.9049 143.976 90.7161C144.122 90.5274 144.195 90.2975 144.195 90.0262C144.195 89.8476 144.163 89.6938 144.101 89.5648C144.037 89.4358 143.953 89.33 143.847 89.2474C143.741 89.1644 143.617 89.1051 143.475 89.0684C143.333 89.0322 143.182 89.0138 143.023 89.0138C142.706 89.0138 142.41 89.0602 142.135 89.1527C141.861 89.2456 141.627 89.3448 141.435 89.4506L141.207 88.875C141.419 88.7492 141.69 88.6351 142.021 88.5323C142.352 88.4299 142.706 88.3787 143.083 88.3787C143.401 88.3787 143.679 88.42 143.917 88.5025C144.155 88.5849 144.352 88.6991 144.507 88.8444C144.663 88.9901 144.779 89.16 144.855 89.3549C144.931 89.5501 144.969 89.7595 144.969 89.9841C144.969 90.3144 144.901 90.5953 144.766 90.8265C144.63 91.0578 144.458 91.2676 144.249 91.456C144.041 91.644 143.812 91.8225 143.564 91.991C143.316 92.1595 143.078 92.3511 142.85 92.5655C142.621 92.7803 142.42 93.0281 142.244 93.3088C142.069 93.5897 141.951 93.9315 141.892 94.3347H144.959V94.9698L140.979 94.9695Z" fill="#DFD4A6"/>
<path d="M148.841 94.1458C149.052 94.2386 149.274 94.3095 149.506 94.3591C149.737 94.4088 149.986 94.4336 150.25 94.4336C150.482 94.4336 150.702 94.4088 150.91 94.3591C151.119 94.3095 151.301 94.23 151.456 94.121C151.611 94.0118 151.734 93.8762 151.823 93.7139C151.913 93.5519 151.957 93.355 151.957 93.1231C151.957 92.5409 151.646 92.1801 151.024 92.0413C150.819 91.9949 150.538 91.9719 150.18 91.9719H149.466V91.3366H150.071C150.395 91.3366 150.667 91.3036 150.885 91.2379C151.104 91.1717 151.279 91.083 151.411 90.971C151.543 90.8588 151.638 90.7285 151.694 90.5807C151.75 90.4322 151.779 90.2758 151.779 90.1109C151.779 89.7881 151.683 89.5247 151.491 89.3202C151.299 89.1157 150.998 89.0138 150.587 89.0138C150.27 89.0138 149.978 89.0602 149.714 89.1527C149.449 89.2456 149.221 89.3448 149.029 89.4506L148.8 88.875C149.032 88.7428 149.305 88.6269 149.619 88.5277C149.934 88.4285 150.273 88.3787 150.637 88.3787C150.961 88.3787 151.242 88.4235 151.48 88.5125C151.718 88.6016 151.916 88.7239 152.072 88.8791C152.229 89.0344 152.345 89.2146 152.42 89.4193C152.495 89.6238 152.533 89.8384 152.533 90.0633C152.533 90.44 152.443 90.7519 152.265 90.9995C152.086 91.2472 151.821 91.437 151.471 91.5691V91.5889C151.854 91.6683 152.157 91.8375 152.379 92.0959C152.601 92.3545 152.711 92.6928 152.711 93.1101C152.711 93.3822 152.663 93.6358 152.564 93.8711C152.466 94.1063 152.316 94.3136 152.113 94.4924C151.91 94.6716 151.653 94.8123 151.342 94.9151C151.031 95.0175 150.663 95.0692 150.24 95.0692C149.936 95.0692 149.646 95.0393 149.371 94.9797C149.097 94.9202 148.854 94.8444 148.642 94.7515L148.841 94.1458Z" fill="#DFD4A6"/>
<path d="M162.936 95.0684C162.599 95.0684 162.281 95.0188 161.983 94.9194C161.685 94.8203 161.425 94.6697 161.204 94.4679C160.982 94.2662 160.807 94.0163 160.678 93.7182C160.548 93.4205 160.484 93.073 160.484 92.676C160.484 92.2987 160.547 91.9548 160.673 91.6436C160.799 91.3327 160.97 91.0664 161.189 90.8445C161.407 90.623 161.664 90.4525 161.958 90.3333C162.253 90.2142 162.569 90.1544 162.906 90.1544C163.191 90.1544 163.455 90.1881 163.7 90.2551V87.9426H164.425V94.7509C164.26 94.8434 164.044 94.9194 163.78 94.979C163.515 95.0385 163.234 95.0684 162.936 95.0684ZM162.966 94.433C163.091 94.433 163.22 94.4216 163.353 94.3982C163.485 94.3754 163.601 94.3438 163.7 94.3047V90.9083C163.581 90.8688 163.468 90.8394 163.363 90.8195C163.257 90.7999 163.121 90.7899 162.956 90.7899C162.724 90.7899 162.504 90.8311 162.296 90.9133C162.087 90.9953 161.905 91.1155 161.75 91.2736C161.594 91.4316 161.47 91.6275 161.378 91.861C161.285 92.0946 161.238 92.3595 161.238 92.6557C161.238 93.202 161.391 93.6346 161.695 93.9538C161.999 94.2736 162.423 94.433 162.966 94.433Z" fill="#DFD4A6"/>
<path d="M168.951 92.7455C168.951 92.9837 168.986 93.2072 169.055 93.4156C169.125 93.624 169.226 93.806 169.358 93.9616C169.491 94.1168 169.653 94.2377 169.845 94.3238C170.036 94.41 170.258 94.4528 170.51 94.4528C170.735 94.4528 170.943 94.4231 171.135 94.3635C171.327 94.3042 171.506 94.2281 171.671 94.1353L171.899 94.6515C171.695 94.7839 171.46 94.8865 171.195 94.9591C170.93 95.0318 170.669 95.0683 170.41 95.0683C170.04 95.0683 169.716 95.0019 169.438 94.8695C169.16 94.7373 168.928 94.5569 168.743 94.3286C168.558 94.1002 168.42 93.8358 168.331 93.5345C168.242 93.2334 168.197 92.9109 168.197 92.5669C168.197 92.2095 168.245 91.8834 168.341 91.589C168.437 91.2949 168.569 91.0398 168.738 90.8247C168.907 90.6099 169.109 90.4444 169.343 90.3285C169.578 90.2128 169.838 90.1547 170.123 90.1547C170.725 90.1547 171.188 90.3716 171.513 90.8049C171.837 91.2385 171.999 91.8258 171.999 92.5671V92.7457L168.951 92.7455ZM171.244 92.1797C171.238 92.0011 171.211 91.8258 171.165 91.6537C171.118 91.4818 171.05 91.3296 170.96 91.197C170.87 91.0648 170.757 90.9573 170.621 90.8743C170.485 90.7917 170.324 90.7503 170.138 90.7503C169.958 90.7503 169.795 90.7884 169.649 90.8644C169.503 90.9406 169.38 91.0432 169.28 91.1722C169.181 91.3012 169.102 91.4519 169.046 91.6236C168.99 91.7959 168.958 91.981 168.951 92.1795L171.244 92.1797Z" fill="#DFD4A6"/>
<path d="M175.255 87.9517H175.979V93.8976C175.979 94.0897 176.009 94.2205 176.068 94.2896C176.128 94.359 176.221 94.394 176.346 94.394C176.386 94.394 176.435 94.3856 176.495 94.3692C176.555 94.3525 176.601 94.3378 176.634 94.3243L176.793 94.8921C176.7 94.9378 176.596 94.9719 176.481 94.9949C176.365 95.0176 176.251 95.0291 176.138 95.0291C175.84 95.0291 175.619 94.9495 175.473 94.7897C175.327 94.6298 175.255 94.4088 175.255 94.1257V87.9517Z" fill="#DFD4A6"/>
<path d="M185.736 89.1726L184.197 89.927L183.94 89.3416L185.856 88.3787H186.46V94.9698H185.736V89.1726Z" fill="#DFD4A6"/>
<path d="M191.99 89.1726L190.451 89.927L190.194 89.3416L192.11 88.3787H192.714V94.9698H191.99V89.1726Z" fill="#DFD4A6"/>
<path d="M201.35 88.4281H204.506L204.269 89.0636H202.086V91.307H204.239V91.9423H202.086V94.3349H204.567V94.97H201.35V88.4281Z" fill="#DFD4A6"/>
<path d="M207.971 90.2741H208.586L208.676 90.8793C208.933 90.661 209.197 90.4859 209.465 90.3535C209.732 90.2213 210.019 90.1547 210.324 90.1547C210.509 90.1547 210.684 90.1846 210.851 90.2442C211.015 90.3037 211.163 90.3997 211.292 90.532C211.421 90.6642 211.522 90.8346 211.598 91.0432C211.675 91.2516 211.714 91.5047 211.714 91.8028V94.9692H210.989V92.0509C210.989 91.8721 210.975 91.7085 210.948 91.5596C210.923 91.4108 210.877 91.2802 210.815 91.1674C210.751 91.0551 210.666 90.9675 210.556 90.9045C210.448 90.8417 210.31 90.8102 210.145 90.8102C209.879 90.8102 209.63 90.8793 209.39 91.0186C209.153 91.1575 208.924 91.323 208.705 91.515V94.9692H207.971V90.2741Z" fill="#DFD4A6"/>
<path d="M215.674 92.7455C215.674 92.9837 215.71 93.2072 215.779 93.4156C215.848 93.624 215.949 93.806 216.082 93.9616C216.213 94.1168 216.376 94.2377 216.568 94.3238C216.759 94.41 216.981 94.4528 217.232 94.4528C217.457 94.4528 217.666 94.4231 217.859 94.3635C218.051 94.3042 218.23 94.2281 218.395 94.1353L218.623 94.6515C218.418 94.7839 218.182 94.8865 217.918 94.9591C217.654 95.0318 217.392 95.0683 217.133 95.0683C216.763 95.0683 216.438 95.0019 216.162 94.8695C215.884 94.7373 215.651 94.5569 215.465 94.3286C215.281 94.1002 215.143 93.8358 215.054 93.5345C214.966 93.2334 214.919 92.9109 214.919 92.5669C214.919 92.2095 214.967 91.8834 215.065 91.589C215.161 91.2949 215.292 91.0398 215.462 90.8247C215.63 90.6099 215.832 90.4444 216.066 90.3285C216.302 90.2128 216.561 90.1547 216.846 90.1547C217.448 90.1547 217.911 90.3716 218.235 90.8049C218.559 91.2385 218.723 91.8258 218.723 92.5671V92.7457L215.674 92.7455ZM217.968 92.1797C217.961 92.0011 217.934 91.8258 217.888 91.6537C217.842 91.4818 217.773 91.3296 217.684 91.197C217.594 91.0648 217.48 90.9573 217.344 90.8743C217.207 90.7917 217.048 90.7503 216.862 90.7503C216.681 90.7503 216.518 90.7884 216.373 90.8644C216.226 90.9406 216.103 91.0432 216.004 91.1722C215.903 91.3012 215.825 91.4519 215.77 91.6236C215.713 91.7959 215.682 91.981 215.674 92.1795L217.968 92.1797Z" fill="#DFD4A6"/>
<path d="M226.107 94.9695C226.153 94.3937 226.267 93.909 226.444 93.5152C226.623 93.1216 226.832 92.7872 227.069 92.5126C227.309 92.2384 227.56 92.0048 227.824 91.8131C228.088 91.6212 228.333 91.4374 228.554 91.262C228.776 91.0867 228.958 90.9049 229.104 90.7161C229.251 90.5274 229.324 90.2975 229.324 90.0262C229.324 89.8476 229.292 89.6938 229.228 89.5648C229.166 89.4358 229.081 89.33 228.976 89.2474C228.87 89.1644 228.746 89.1051 228.604 89.0684C228.46 89.0322 228.31 89.0138 228.152 89.0138C227.833 89.0138 227.537 89.0602 227.262 89.1527C226.99 89.2456 226.756 89.3448 226.564 89.4506L226.336 88.875C226.547 88.7492 226.818 88.6351 227.149 88.5323C227.48 88.4299 227.833 88.3787 228.211 88.3787C228.53 88.3787 228.806 88.42 229.045 88.5025C229.283 88.5849 229.479 88.6991 229.635 88.8444C229.791 88.9901 229.907 89.16 229.983 89.3549C230.059 89.5501 230.096 89.7595 230.096 89.9841C230.096 90.3144 230.029 90.5953 229.894 90.8265C229.758 91.0578 229.586 91.2676 229.378 91.456C229.169 91.644 228.941 91.8225 228.693 91.991C228.445 92.1595 228.205 92.3511 227.978 92.5655C227.75 92.7803 227.548 93.0281 227.372 93.3088C227.197 93.5897 227.08 93.9315 227.02 94.3347H230.087V94.9698L226.107 94.9695Z" fill="#DFD4A6"/>
<path d="M235.627 95.0689C235.296 95.0689 234.994 94.996 234.723 94.8504C234.452 94.7049 234.22 94.4917 234.029 94.2103C233.837 93.9288 233.687 93.5799 233.577 93.1629C233.469 92.7459 233.414 92.2662 233.414 91.7236C233.414 91.1808 233.469 90.7028 233.577 90.2892C233.687 89.8758 233.837 89.5265 234.029 89.2419C234.22 88.9573 234.452 88.7423 234.723 88.5966C234.994 88.451 235.296 88.3783 235.627 88.3783C235.951 88.3783 236.249 88.451 236.52 88.5966C236.791 88.7423 237.025 88.9573 237.22 89.2419C237.415 89.5263 237.568 89.8758 237.677 90.2892C237.786 90.7028 237.841 91.181 237.841 91.7236C237.841 92.266 237.786 92.7459 237.677 93.1629C237.568 93.5799 237.415 93.9288 237.22 94.2103C237.025 94.4917 236.791 94.7049 236.52 94.8504C236.249 94.996 235.951 95.0689 235.627 95.0689ZM235.627 94.4334C236.081 94.4334 236.437 94.1952 236.697 93.7187C236.956 93.2423 237.086 92.5772 237.086 91.7236C237.086 90.8701 236.958 90.2049 236.701 89.7283C236.446 89.2518 236.086 89.0136 235.627 89.0136C235.173 89.0136 234.817 89.2518 234.557 89.7283C234.298 90.2049 234.169 90.8701 234.169 91.7236C234.169 92.5772 234.296 93.2423 234.553 93.7187C234.808 94.1952 235.168 94.4334 235.627 94.4334Z" fill="#DFD4A6"/>
<path d="M240.947 94.9696C240.993 94.3939 241.105 93.9092 241.284 93.5154C241.463 93.1218 241.672 92.7876 241.909 92.5129C242.149 92.2386 242.398 92.0052 242.664 91.8133C242.928 91.6215 243.171 91.4376 243.393 91.2621C243.616 91.0869 243.798 90.905 243.944 90.7165C244.089 90.5276 244.162 90.2977 244.162 90.0266C244.162 89.8478 244.132 89.694 244.068 89.5649C244.006 89.4359 243.921 89.3301 243.814 89.2475C243.71 89.1646 243.586 89.1054 243.442 89.0686C243.301 89.0324 243.15 89.014 242.992 89.014C242.673 89.014 242.377 89.0604 242.103 89.1531C241.828 89.2458 241.596 89.345 241.403 89.4508L241.174 88.875C241.387 88.7492 241.658 88.6351 241.989 88.5323C242.319 88.4299 242.673 88.3787 243.051 88.3787C243.368 88.3787 243.646 88.42 243.885 88.5025C244.123 88.5849 244.319 88.6991 244.475 88.8444C244.631 88.9901 244.747 89.16 244.823 89.3549C244.899 89.5501 244.936 89.7595 244.936 89.9841C244.936 90.3144 244.869 90.5953 244.734 90.8265C244.598 91.058 244.426 91.2676 244.217 91.456C244.009 91.644 243.781 91.8225 243.533 91.991C243.285 92.1595 243.045 92.3511 242.817 92.5655C242.59 92.7803 242.388 93.0281 242.212 93.3088C242.037 93.5897 241.918 93.9315 241.86 94.3347H244.927V94.9698L240.947 94.9696Z" fill="#DFD4A6"/>
<path d="M248.799 94.1458C249.01 94.2386 249.232 94.3095 249.464 94.3591C249.696 94.4088 249.944 94.4336 250.208 94.4336C250.44 94.4336 250.66 94.4088 250.869 94.3591C251.077 94.3095 251.259 94.23 251.415 94.121C251.569 94.0118 251.692 93.8762 251.782 93.7139C251.871 93.5519 251.915 93.355 251.915 93.1231C251.915 92.5409 251.605 92.1801 250.983 92.0413C250.777 91.9949 250.495 91.9719 250.139 91.9719H249.423V91.3366H250.029C250.354 91.3366 250.625 91.3036 250.843 91.2379C251.063 91.1717 251.236 91.083 251.369 90.971C251.502 90.8588 251.596 90.7285 251.653 90.5807C251.709 90.4322 251.738 90.2758 251.738 90.1109C251.738 89.7881 251.64 89.5247 251.449 89.3202C251.257 89.1157 250.956 89.0138 250.545 89.0138C250.228 89.0138 249.937 89.0602 249.671 89.1527C249.407 89.2456 249.179 89.3448 248.987 89.4506L248.759 88.875C248.991 88.7428 249.264 88.6269 249.577 88.5277C249.893 88.4285 250.231 88.3787 250.595 88.3787C250.919 88.3787 251.201 88.4235 251.438 88.5125C251.676 88.6016 251.874 88.7239 252.03 88.8791C252.188 89.0344 252.303 89.2146 252.379 89.4193C252.454 89.6238 252.491 89.8384 252.491 90.0633C252.491 90.44 252.402 90.7519 252.223 90.9995C252.044 91.2472 251.78 91.437 251.429 91.5691V91.5889C251.812 91.6683 252.115 91.8375 252.337 92.0959C252.558 92.3545 252.67 92.6928 252.67 93.1101C252.67 93.3822 252.62 93.6358 252.523 93.8711C252.425 94.1063 252.275 94.3136 252.071 94.4924C251.867 94.6716 251.612 94.8123 251.3 94.9151C250.988 95.0175 250.621 95.0692 250.198 95.0692C249.893 95.0692 249.604 95.0393 249.329 94.9797C249.055 94.9202 248.812 94.8444 248.599 94.7515L248.799 94.1458Z" fill="#DFD4A6"/>
</g>
<defs>
<clipPath id="clip0_1000_412">
<rect width="280" height="109.873" fill="white"/>
</clipPath>
</defs>
</svg>
