<svg width="280" height="71" fill="none" xmlns="http://www.w3.org/2000/svg"><path d="m83.788 23.661-.013 2.237c0 .34-.012.666-.032.96-.07 1.006-.42 1.685-1.11 2.159-.564.384-1.312.587-2.202.587-.633 0-1.199-.09-1.695-.293-.35-.137-.679-.317-.916-.588-.463-.51-.633-1.153-.622-2.283l.023-2.79c.01-1.029-.068-1.65-.227-2.136l.285.012h.734l.361-.012-.067.826c-.013.192-.013.598-.022 1.22l-.025 2.429c-.01 1.04.048 1.367.227 1.786.294.667 1.086 1.085 2.022 1.085.554 0 1.052-.125 1.448-.351.317-.192.565-.463.7-.768.192-.453.238-.927.249-2.045l.012-2.034c.012-1.029-.068-1.65-.226-2.137l.294.012h.632l.319-.012c-.126.803-.15 1.039-.15 2.136ZM93.923 22.021a6.83 6.83 0 0 0-.056.825c0 .227-.011.679-.011 1.357l-.012 3.187c0 .18 0 .406.012.688.034.588.045.803.1 1.436h-.427l-.464.01a15.655 15.655 0 0 0-.983-1.378l-3.333-4.214-.904-1.174.024.576-.013 3.774c0 .938.09 1.786.26 2.284l-.294-.023h-.644l-.327.023c.046-.228.068-.396.078-.51.035-.26.068-.53.068-.813v-.973l.012-3.447c0-1.028-.056-1.638-.215-2.124l.587.023 1.008-.034c.394.679.564.927 1.004 1.492l2.995 3.853.633.803-.034-.803.01-2.666c0-1.13-.1-2.136-.28-2.668l.27.013h.69l.327-.013a4.933 4.933 0 0 0-.08.497ZM98.174 29.367h-.824l-.317.022.067-.508c.067-.486.08-.6.08-1.64l.012-3.593c0-1.006-.07-1.65-.226-2.136l.282.012h.734l.362-.012-.067.826c-.012.192-.022.599-.022 1.22l-.013 3.696c0 1.028.07 1.649.227 2.135l-.295-.022ZM107.696 22.102l-.307.644-.314.7-1.911 4.599c-.338.813-.383.95-.497 1.515l-.237-.023h-.497l-.284.023c-.067-.418-.09-.542-.292-1.084l-1.841-4.984c-.385-1.05-.667-1.582-.905-1.967l.283.013h.893l.395-.025c.022.204.032.362.054.464.047.283.193.747.431 1.424l1.243 3.628.395 1.242.531-1.345 1.219-3.186c.307-.792.452-1.334.452-1.763 0-.158-.011-.25-.077-.452l.359.013h.848l.327-.025.022.046c-.133.238-.235.418-.29.543ZM114.879 28.588l-.102.44-.079.406c-.205-.01-.352-.022-.442-.022-.045 0-.496-.01-1.365-.022l-1.516-.022-1.119.022.069-.508c.067-.498.078-.599.078-1.64l.012-3.593c0-1.029-.056-1.638-.215-2.125l.599.011h1.57c1.278 0 1.403-.01 2.159-.033l-.148.362-.147.463-.078.283-.137.022c-.202-.227-.304-.295-.574-.374a3.949 3.949 0 0 0-1.098-.136c-.18 0-.484.012-.824.033l-.047 1.367v1.346h1.491c.477 0 .68-.023 1.221-.069l.102.09-.159.35-.147.386a5.506 5.506 0 0 0-.507-.034 19.102 19.102 0 0 0-1.108-.035c-.305 0-.453 0-.905.024v1.695c0 .135.012.305.022.519.023.407.068.576.204.722.181.18.44.238 1.097.238a5.63 5.63 0 0 0 1.051-.08 1.728 1.728 0 0 0 .993-.52l.148.069-.099.365ZM123.584 29.389l-.293.012-.859.023-.475.032-.133-.202-.15-.26c-.055-.112-.146-.249-.248-.419a41.248 41.248 0 0 0-1.571-2.316c-.507-.712-.722-.893-.994-1.174.542-.012.881-.035 1.163-.148.543-.203.871-.802.871-1.458 0-.87-.566-1.435-1.515-1.435a5.55 5.55 0 0 0-.802.068c-.023.475-.034.589-.034 1.446l-.011 3.696c0 1.029.068 1.65.225 2.135l-.292-.021h-.826l-.317.021c.124-.802.147-1.074.147-2.146l.013-3.594c0-1.029-.057-1.638-.217-2.125l.589.023 1.074-.034c.293-.012.554-.012.801-.012.961 0 1.312.09 1.696.395.372.306.577.814.577 1.367 0 .474-.159.972-.454 1.288-.248.262-.564.476-1.106.757l.259.35 1.073 1.537c.497.724.994 1.345 1.334 1.695.181.18.261.249.485.419l-.01.08ZM127.227 29.65c-.137 0-.283-.012-.441-.022-.465-.046-.679-.091-1.233-.295l.124-.395.135-.52.07-.281.157-.035c.205.317.306.442.519.577.284.192.679.305 1.018.305.916 0 1.592-.61 1.592-1.412 0-.317-.102-.622-.293-.86-.237-.293-.542-.518-1.231-.892-1.029-.552-1.177-.654-1.481-.96a1.945 1.945 0 0 1-.531-1.357c0-1.345 1.063-2.248 2.668-2.248.135 0 .27.012.407.023.439.033.676.09 1.254.283l-.126.315-.168.531-.057.237-.146.022c-.407-.553-.814-.756-1.481-.756-.837 0-1.39.485-1.39 1.208 0 .34.134.645.385.871.259.227.529.407 1.265.803.926.498 1.208.7 1.514 1.084.272.35.407.781.407 1.244 0 1.468-1.22 2.53-2.937 2.53ZM133.837 29.367h-.824l-.318.022.067-.508c.069-.486.081-.6.081-1.64l.013-3.593c0-1.006-.07-1.65-.227-2.136l.282.012h.735l.361-.012-.068.826c-.01.192-.022.599-.022 1.22l-.012 3.696c0 1.028.07 1.649.226 2.135l-.294-.022ZM142.882 28.45c-.823.67-1.784.951-3.229.951-.272 0-.735-.034-1.414-.034h-.825l-.317.022.068-.508c.067-.486.08-.6.08-1.64l.013-3.547c0-1.03-.068-1.684-.227-2.17.339.012.147.012 1.028.012.464 0 1.208-.012 1.672-.012.394 0 .735 0 1.017.012.927.021 1.493.135 1.99.394 1.051.553 1.672 1.752 1.672 3.188 0 1.344-.543 2.554-1.528 3.333Zm-.461-5.445c-.565-.632-1.265-.871-2.633-.871-.361 0-.723.024-1.435.057l-.035 1.367-.01 3.672c0 .147.01.33.023.521.022.407.067.577.201.724.081.077.17.135.284.169.237.066.655.101 1.072.101 2.068 0 3.324-1.255 3.324-3.344 0-.971-.282-1.82-.791-2.396ZM152.765 29.367h-.723l-.497.034-.078-.476c-.069-.36-.182-.711-.408-1.366l-.383-1.118-.691-.024h-1.343l-.792.024-.384 1.028c-.215.587-.329 1.061-.329 1.401 0 .17.013.282.08.52l-.351-.023h-.779l-.305.022-.045-.068.27-.51c.08-.146.182-.36.317-.643a17.5 17.5 0 0 0 .306-.7l1.875-4.611c.272-.655.328-.847.474-1.413l.237-.033.498-.08.248-.045c.113.475.159.654.352 1.152l1.875 4.984c.147.407.384.938.656 1.48.1.203.145.283.27.485l-.35-.02Zm-3.446-6.825-1.23 3.243.667.023h1.095l.587-.023-1.119-3.243ZM161.18 28.45c-.826.67-1.784.951-3.231.951-.272 0-.734-.034-1.413-.034h-.824l-.319.022.069-.508c.068-.486.081-.6.081-1.64l.01-3.547c0-1.03-.067-1.684-.225-2.17.339.012.148.012 1.027.012.464 0 1.21-.012 1.674-.012.394 0 .734 0 1.016.012.926.021 1.492.135 1.989.394 1.05.553 1.672 1.752 1.672 3.188-.001 1.344-.542 2.554-1.526 3.333Zm-.462-5.445c-.566-.632-1.267-.871-2.635-.871-.361 0-.722.024-1.435.057l-.034 1.367-.011 3.672c0 .147.011.33.024.521.02.407.067.577.202.724.078.077.17.135.283.169.237.066.656.101 1.073.101 2.069 0 3.323-1.255 3.323-3.344 0-.971-.283-1.82-.79-2.396ZM78.54 51.076c1.028.686 2.253 1.2 3.673 1.2 1.25 0 2.498-.44 2.498-1.665 0-2.913-6.906-2.546-6.906-7.493 0-2.425 1.934-4.605 5.413-4.605 1.715 0 3.159.393 4.088.858v3.012c-1.395-.685-2.694-1.054-3.99-1.054-1.03 0-1.935.37-1.935 1.494 0 2.744 6.905 2.353 6.905 7.494 0 2.939-2.57 4.752-5.95 4.752-1.886 0-3.772-.515-5.07-1.47l1.273-2.523ZM92.093 52.056c-.466-.882-.71-2.008-.71-3.331v-10.04h3.354v9.844c0 .834.171 1.568.466 2.131.564 1.053 1.64 1.617 3.134 1.617 1.47 0 2.548-.564 3.111-1.617.318-.563.464-1.297.464-2.154v-9.822h3.356v10.04c0 1.324-.246 2.449-.71 3.332-1.054 2.056-3.258 3.012-6.245 3.012s-5.167-.956-6.22-3.012ZM109.311 38.684h4.823c1.447 0 2.523.22 3.381.612 1.861.808 2.571 2.351 2.571 4.066 0 2.105-1.322 3.575-3.135 4.139v.05c.49.269 1.202 1.15 2.056 2.644l2.621 4.628h-3.844l-2.13-3.868c-.808-1.52-1.373-2.131-1.764-2.23h-1.224v6.098h-3.354V38.684h-.001Zm4.602 7.323c.735 0 1.2-.122 1.618-.343.636-.392 1.077-1.053 1.077-1.959 0-.857-.392-1.593-1.101-1.96-.367-.22-.833-.343-1.568-.343h-1.273v4.604h1.247ZM136.788 53.746c-1.885 1.03-3.698 1.322-5.363 1.322-5.413 0-8.302-3.428-8.302-8.155 0-4.63 3.381-8.4 8.717-8.4 1.79 0 3.259.319 4.311.785v3.085a8.883 8.883 0 0 0-4.235-1.052c-3.527 0-5.217 2.571-5.217 5.534 0 3.184 1.984 5.412 5.142 5.412 1.642 0 2.844-.49 4.018-1.175l.929 2.644ZM138.526 46.79c0-4.898 3.379-8.277 8.227-8.277 4.849 0 8.23 3.403 8.23 8.277 0 4.947-3.404 8.278-8.23 8.278-4.848 0-8.227-3.355-8.227-8.278Zm12.881 0c0-3.502-1.862-5.462-4.654-5.462-2.766 0-4.652 1.935-4.652 5.462 0 3.552 1.886 5.485 4.652 5.485 2.769 0 4.654-1.933 4.654-5.485ZM158.327 38.684h3.355v13.3h5.633v2.839h-8.988V38.684ZM168.713 46.79c0-4.898 3.38-8.277 8.228-8.277s8.229 3.403 8.229 8.277c0 4.947-3.404 8.278-8.229 8.278-4.848 0-8.228-3.355-8.228-8.278Zm12.881 0c0-3.502-1.861-5.462-4.653-5.462-2.766 0-4.653 1.935-4.653 5.462 0 3.552 1.887 5.485 4.653 5.485 2.768 0 4.653-1.933 4.653-5.485ZM188.516 38.684h3.036l4.137 5.854c.541.76.933 1.37 1.3 2.007h.049c.318-.612.734-1.298 1.248-2.106l3.747-5.755h3.06v16.139h-3.354v-8.668c0-.638 0-1.373.023-1.935h-.023c-.196.417-.834 1.347-1.103 1.762l-2.889 4.458h-1.518l-3.257-4.603c-.345-.465-.735-.98-1.078-1.592h-.049c.024.563.024 1.298.024 1.812v8.766h-3.355V38.684h.002ZM209.254 38.685h5.07c3.502 0 5.069 2.032 5.069 4.088 0 1.322-.661 2.62-1.911 3.258v.05c1.936.513 3.014 2.08 3.014 3.893 0 2.449-1.911 4.85-5.731 4.85h-5.51v-16.14h-.001Zm4.629 6.587c1.47 0 2.23-.834 2.23-1.886 0-1.102-.736-1.96-2.303-1.96h-1.201v3.845h1.274Zm.441 6.808c1.862 0 2.791-.636 2.791-2.106 0-1.249-.93-1.96-2.474-1.96h-2.033v4.066h1.716ZM227.097 38.683h-3.354v16.139h3.354V38.683ZM235.652 38.61h2.718l6.588 16.214h-3.6l-1.567-3.944h-5.485l-1.494 3.944h-3.453l6.293-16.214Zm3.135 9.577-.955-2.718a40.363 40.363 0 0 1-.734-2.401h-.051c-.122.563-.367 1.249-.808 2.423l-.978 2.696h3.526ZM259.014 54.824l-6.758-8.841c-.589-.784-1.104-1.52-1.665-2.23h-.05c.073.59.073 1.593.073 2.377v8.694h-3.354v-16.14h3.354l6.489 8.499a42.522 42.522 0 0 1 1.643 2.227h.048c-.048-.857-.048-1.933-.048-2.693v-8.032h3.354v16.14h-3.086ZM270.694 38.61h2.718L280 54.824h-3.601l-1.566-3.944h-5.486l-1.494 3.944H264.4l6.294-16.214Zm3.135 9.577-.955-2.718a41.382 41.382 0 0 1-.735-2.401h-.05c-.122.563-.367 1.249-.809 2.423l-.978 2.696h3.527ZM34.738 70.833c-.495 0-.853-.008-1.08-.015-.21.007-.57.015-1.065.015-2.463 0-6.325-.186-10.739-1.055-6.262-1.234-11.094-3.133-14.776-5.804-.045-.033-.126-.088-.232-.16l-.06-.04c-.226-.156-.54-.367-.895-.66a7.457 7.457 0 0 1-.936-.907 6.844 6.844 0 0 1-1.242-2.096c-.322-.849-.482-1.784-.482-2.78V16.41l-1.015-.565a4.488 4.488 0 0 1-.991-.748A4.154 4.154 0 0 1 0 12.145V7.59c0-.745.22-3.176 3.06-3.176h14.762C18.538 3.968 25.163 0 33.495 0h.337c8.33 0 14.957 3.967 15.675 4.413h14.761c2.842 0 3.06 2.43 3.06 3.176v4.556a4.155 4.155 0 0 1-1.224 2.954c-.287.287-.622.54-.992.746l-1.017.565v40.92a7.785 7.785 0 0 1-.477 2.781 6.867 6.867 0 0 1-1.245 2.096 7.485 7.485 0 0 1-.934.907c-.356.292-.667.503-.898.66l-.059.04a7.463 7.463 0 0 0-.232.16c-3.68 2.671-8.514 4.57-14.776 5.804a56.49 56.49 0 0 1-10.737 1.055Z" fill="#DFD4A6"/><path d="M47.633 8.841v3.084c0 .28.289.514.422.588 2.205 1.243 2.66 1.511 2.66 2.093v37.77c0 1.27-.48 1.616-1.414 2.076-2.404 1.185-7.729 3.308-15.594 3.308-7.868 0-13.191-2.123-15.596-3.308-.932-.461-1.416-.806-1.416-2.076v-37.77c0-.576.448-.874 2.614-2.092.148-.084.47-.253.47-.658V8.91c0-.4-.23-1.114-.9-1.114H4.577c-.67 0-.903.49-.903 1.114v3.014c0 .368.41.485.595.59 2.052 1.156 2.459 1.525 2.459 2.091V56.89c0 2.435.77 3.13 1.639 3.76 9.78 7.103 25.338 6.379 25.338 6.379s14.82.724 24.6-6.379c.868-.63 2.376-1.325 2.376-3.76V14.606c0-.584.595-.835 2.84-2.092.125-.071.394-.236.394-.589V8.842c0-.4-.29-1.082-.96-1.082H48.591c-.67-.001-.958.682-.958 1.081Z" fill="#8F141B"/><path d="M25.99 26.402c-2.184-1.284-3.058-3.029-3.407-4.266-.38-1.344-.242-2.374-.236-2.417l.363.051c-.005.04-.497 3.985 3.467 6.315l-.187.317ZM43.804 24.197l-.3-.214c1.474-2.067 1.146-4.295 1.142-4.317l.365-.05c.015.093.353 2.396-1.207 4.581Z" fill="#8F141B"/><path d="M35.113 53.945c-1.309 0-2.523-.27-3.61-.807v.203a.276.276 0 0 1-.277.277h-7.527a.277.277 0 0 1-.277-.277V41.73c0-.152.126-.276.277-.276h5.724c-.711-.545-1.836-1.409-2.469-1.912-1.062-.845-3.533-3.173-3.533-6.555 0-4.18 1.915-6.456 3.52-7.633 2.24-1.641 4.668-1.768 5.36-1.768 1.31 0 2.521.27 3.61.81v-.206c0-.153.123-.276.276-.276h7.527c.153 0 .278.123.278.276V35.8a.277.277 0 0 1-.278.278h-5.73l2.473 1.909c1.707 1.322 3.535 3.74 3.535 6.557 0 4.255-1.92 6.531-3.532 7.691-2.199 1.586-4.649 1.71-5.347 1.71Zm-3.887-1.544c.048 0 .094.013.137.037 1.123.643 2.35.954 3.75.954.657 0 2.959-.116 5.024-1.607 1.507-1.084 3.3-3.222 3.3-7.242 0-2.616-1.715-4.876-3.318-6.118-1.375-1.066-3.113-2.407-3.113-2.407a.276.276 0 0 1 .17-.495h6.262V24.464h-6.971v.386c0 .101-.053.19-.14.24a.276.276 0 0 1-.276 0c-1.122-.64-2.349-.953-3.75-.953-.647 0-2.926.121-5.033 1.662-1.502 1.099-3.294 3.238-3.294 7.185 0 3.142 2.325 5.328 3.325 6.122.963.768 3.087 2.386 3.109 2.404.094.07.13.193.094.306a.28.28 0 0 1-.262.188h-6.265v11.06h6.973v-.388c0-.099.053-.188.137-.24a.301.301 0 0 1 .14-.035Z" fill="#8F141B"/><path d="M35.113 52.068c-2.01 0-3.145-.784-3.755-1.205l-.161-.114c-.375-.265-.56-.393-.938-.35-.524.057-.634.384-.634.65v.523a.167.167 0 0 1-.168.167h-3.986a.167.167 0 0 1-.169-.167v-8.076c0-.092.075-.166.169-.166h5.85a.17.17 0 0 1 .104.037c.013.013 1.43 1.162 1.876 1.492l.092.072c.222.17.56.428.928.428.276 0 .535-.137.793-.423.22-.238.322-.496.304-.765-.017-.29-.183-.583-.461-.824l-6.762-5.223c-1.08-.849-2.893-2.646-2.893-5.14 0-5.95 4.579-7.524 7-7.524 2.01 0 3.143.785 3.755 1.205l.162.114c.374.263.555.39.937.349.524-.058.634-.386.634-.65v-.524c0-.092.076-.168.167-.168h3.99c.09 0 .166.076.166.168v8.075a.166.166 0 0 1-.167.167h-5.85a.175.175 0 0 1-.106-.037c-.014-.01-1.43-1.162-1.877-1.49l-.094-.073c-.22-.17-.556-.427-.924-.427-.277 0-.535.137-.795.42-.218.24-.32.498-.303.767.017.291.182.582.461.823l6.763 5.224c1.92 1.55 2.892 3.278 2.892 5.14 0 2.778-.925 4.852-2.75 6.167-1.746 1.26-3.694 1.358-4.25 1.358ZM33.618 23.836c-4.12 0-6.933-1.132-8.57-2.082-1.777-1.034-2.569-2.06-2.602-2.104l.292-.223c.032.04 3.174 4.04 10.88 4.04 4.028 0 6.772-1.098 8.362-2.02 1.726-.998 2.51-2.01 2.517-2.02l.293.224c-.034.043-.826 1.07-2.605 2.103-1.633.95-4.446 2.082-8.567 2.082Z" fill="#8F141B"/><path d="M46.98 49.255c0-.29-.003-.854-.006-1.622-.005-1.847-.014-4.82-.017-8.086v-.221c-.002-1.236-.004-3.247-.004-4.517 1.054-.61 3.389-3.23-.12-12.548-.466-1.36-1.003-2.113-1.407-2.508.511-.244.926-.713 1.175-1.143.606-1.044.805-2.412.91-3.148.025-.156.04-.279.058-.355.16-.765-.041-1.158-.753-1.45l-.912-.38V8.838c0-.874.08-.946.348-1.19.056-.055.124-.113.196-.188.286-.284.408-.625.343-.959-.057-.283-.274-.685-.988-.99-5.397-2.354-10.41-2.535-11.819-2.535-.153 0-.239.002-.24.002-.013 0-.101-.002-.255-.002-1.407 0-6.418.182-11.814 2.536-.72.304-.934.706-.988.99-.068.334.054.674.34.958.066.07.13.127.187.178.269.25.34.315.34 1.2l.002 4.436c-.216.085-.59.238-.922.385-.71.312-.905.69-.744 1.448.016.076.035.199.057.355.106.736.306 2.104.911 3.148.33.566.686.94 1.078 1.141-.467.475-.933 1.282-1.365 2.388-2.893 7.68-1.973 11.638-.102 12.698a5180.904 5180.904 0 0 0 .027 14.418c-.296.264-.63.861-.728 1.46-.107.663.068 1.245.507 1.686 1.164 1.163 8.838 2.705 13.461 2.705 4.625 0 12.296-1.542 13.463-2.705.438-.44.615-1.023.509-1.686-.097-.598-.434-1.195-.727-1.46Zm-.373-35.087c.465.192.528.317.423.826-.02.085-.04.22-.064.39-.1.7-.291 2.001-.843 2.95-.133.23-.332.485-.571.686-.157.132-.61.357-.66-.463a3.76 3.76 0 0 1 .232-1.593c.508-1.337.724-2.179.77-3.09l.713.294Zm-6.175-2.8c-1.87-.093-3.058.861-3.76 1.774-.542.38-1.642 1.004-3 .963-1.399 0-2.506-.675-3.014-1.051-.712-.887-1.884-1.775-3.695-1.686-2.932.136-4.141 2.4-4.56 3.932a10.11 10.11 0 0 1-.29-1.764l.82-.278a.167.167 0 0 0 .113-.157l.018-1.296c.561-.208 3.367-1.198 7.593-1.716a.166.166 0 0 0 .145-.166V9.47h5.512v.453c0 .085.065.158.15.166.046.006 4.552.489 7.971 1.781v1.214c0 .07.041.13.104.156.013.003.269.108.812.291a6.638 6.638 0 0 1-.274 1.858c-.418-1.507-1.636-3.883-4.645-4.021Zm2.775 1.75a2.992 2.992 0 0 1-3.08 1.368 2.665 2.665 0 0 1-1.753-1.042c-.371-.489-.256-.927-.146-.993.566-.345 1.282-.573 2.177-.533 1.253.06 2.157.554 2.802 1.2Zm-7.245 1.637c.013.005 1.31.446 2.353 1.727.083.12-.18.354-.369.304-.425-.111-1.361-.314-1.957.465l-.016.018c-.058.061-.78.79-2.224.79-1.468 0-2.268-.762-2.31-.803-.837-.757-1.639-.535-2.116-.468-.23.034-.477-.134-.345-.324 1.049-1.265 2.432-1.702 2.447-1.707a.278.278 0 0 0 .16-.338c-.007-.011-.135-.126-.444-.657.625.34 1.496.675 2.525.675h.14c.98 0 1.816-.308 2.421-.631-.29.508-.415.602-.419.613a.28.28 0 0 0 .154.336Zm-6.818-1.41c-.34.474-.923 1.007-1.825 1.142a3.006 3.006 0 0 1-3.093-1.386c.634-.64 1.525-1.124 2.76-1.182.89-.04 1.592.197 2.163.522.2.112.275.512-.005.903Zm-7.038-4.606c.744-.27 3.68-1.303 6.007-1.692l.063.038c1.676 1.026 3.54 1.543 5.538 1.543 1.997 0 3.86-.517 5.535-1.543l.064-.038c2.327.39 5.289 1.423 6.038 1.692l-.001.102v4.338c-.28-.096-.475-.167-.581-.207v-1.216a.168.168 0 0 0-.108-.157c-3.117-1.202-7.188-1.727-8.013-1.825v-.47a.166.166 0 0 0-.167-.168h-5.847a.166.166 0 0 0-.164.168v.472c-4.677.59-7.605 1.747-7.635 1.759a.171.171 0 0 0-.106.153l-.017 1.293-.607.206V8.84c.002-.035 0-.067 0-.101Zm-.689-1.667c-.087-.088-.228-.265-.19-.464.044-.216.277-.422.669-.588C27.33 3.648 32.509 3.528 33.49 3.528c.154 0 .235.002.257.002.002 0 .085-.002.237-.002.983 0 6.162.12 11.6 2.494.386.164.624.37.665.586.038.2-.101.376-.19.464-.064.066-.125.12-.18.17-.29.265-.435.445-.495.921-.971-.343-3.826-1.315-6.071-1.677a.43.43 0 0 0-.045-.002c-.09 0-.146.031-.306.13a9.91 9.91 0 0 1-5.246 1.463 9.916 9.916 0 0 1-5.25-1.463c-.185-.114-.246-.143-.35-.128-2.243.362-5.074 1.331-6.037 1.677-.058-.483-.204-.665-.491-.93-.05-.047-.108-.098-.17-.16Zm.216 11.706c-.1-.127-.2-.275-.298-.445-.55-.949-.741-2.25-.842-2.95a7.528 7.528 0 0 0-.062-.391c-.106-.501-.046-.616.427-.826.246-.11.52-.222.73-.308.095.987.354 2.03.764 3.106.176.46.196 1.01.134 1.606-.072.667-.632.485-.853.208ZM46.807 52.01c-.88.884-8.118 2.542-13.07 2.542-2.89 0-6.558-.564-9.287-1.212h-.832v-.207c-1.525-.399-2.637-.811-2.951-1.123-.303-.303-.422-.692-.36-1.157.084-.625.47-1.146.588-1.212.003-.003.006-.006.01-.006a25.81 25.81 0 0 0 2.714.95v-.35a24.815 24.815 0 0 1-2.57-.903l-.005-1.697c-.005-1.484-.011-3.747-.016-6.312.48.101 1.502.322 2.59.526v-.121l1.237-.072c-1.506-.257-3.237-.547-3.827-.675l-.002-1.369c.423.114 3.377.883 7.614 1.296.375.29.75.578 1.07.82h.449s-1.77-1.35-2.826-2.177a.276.276 0 0 0 .05.376l.758.595c-4.224-.453-7.04-1.236-7.078-1.246-.012-.002-.023-.001-.036-.002 0-1.146-.003-2.33-.003-3.506.352-.292 1.805-.443 3.148-.443.087 0 .16.062.21 0-.074-.147-.143-.25-.208-.405l-.002-.147c-1.634 0-2.26.087-3.318-.36-.926-.39-1.629-1.634-1.557-4.588.036-1.398.447-3.127.447-3.127.293-1.276.727-2.723 1.343-4.358.514-1.31.973-1.934 1.274-2.232l.45-.51c.26-1.174.36-2.035.056-2.831l-.101-.286c0-.526.277-2.029 1.267-3.17.23.355 1.111 1.494 2.762 1.494.182 0 .371-.013.566-.044 1.485-.22 2.161-1.387 2.384-1.883.7.629 1.077 1.103 1.23 1.48-.5.248-1.673.765-2.575 1.942v.002H28.4c-.009.01-.202.312-.02.524v.003c.06.11.608.732 2.76.887.357.324 1.263.894 2.611.894 1.364 0 2.222-.571 2.55-.894 2.18-.162 2.554-.837 2.617-.925.127-.177.02-.411-.037-.489-.898-1.17-1.992-1.688-2.462-1.938.153-.38.54-.88 1.27-1.518.21.474.88 1.69 2.396 1.915.2.03.388.043.567.043 1.628 0 2.506-1.106 2.754-1.476 1.026 1.172 1.305 2.713 1.305 3.152l.004.004c-.034.092-.068.185-.106.282-.355.928-.325 1.957-.066 2.832l.876 1.002c.275.39.595.976.894 1.849.7 1.866 1.161 3.483 1.46 4.87.226 1.038.355 2.688.355 2.688.096 2.443-.623 3.974-1.548 4.373-.983.425-1.813.407-2.916.407-.012 0-.02.004-.031.005v.124h-.029c0 .153-.193.275-.04.275.94 0 1.9-.02 2.835.577 0 1.232.002 2.42.003 3.616-1.343.361-2.828.634-4.264.839.07.097.138.2.207.306a50.696 50.696 0 0 0 3.543-.671c.425-.097.515.093.515.581 0 .486-.078.546-.457.624a99.3 99.3 0 0 1-2.978.582c.046.104.096.21.139.316 1.361-.244 2.765-.54 3.298-.652.006 2.557.015 4.817.018 6.326l.002 1.695c-.57.238-2.324.917-4.9 1.484-.13.151-.263.297-.399.428 2.876-.595 4.836-1.355 5.442-1.61l.012.009c.118.065.504.587.59 1.212.062.466-.059.854-.362 1.157Zm-8.64-32.838a.667.667 0 0 0-.13.013c-1.478.3-4.122.308-4.414.308-.293 0-2.935-.008-4.413-.308a.797.797 0 0 0-.13-.013c-.428 0-.998.346-1.211.991-.128.377-.044.826.225 1.2.243.335.577.534.894.534h9.267c.32 0 .65-.2.894-.535.269-.374.353-.822.228-1.199-.214-.644-.784-.99-1.21-.99Zm-.393.569c.125-.02.245-.049.36-.064.195-.027.489.076.593.316.02.05.005.168-.282.23-.203.044-.478.082-.825.124l.154-.606Zm-6.714.167c1.197.081 2.563.085 2.563.085s1.365-.004 2.56-.085l.247.544a39.28 39.28 0 0 1-2.807.094c-.972 0-1.969-.032-2.808-.094l.245-.544Zm-2.54.085c.104-.24.395-.343.591-.316.116.015.236.044.36.064l.155.606c-.348-.042-.621-.08-.827-.123-.284-.063-.302-.18-.28-.23Zm.47 1.404c-.15 0-.347-.132-.486-.328a.998.998 0 0 1-.168-.363c-.043-.184.096-.24.32-.202.249.042.59.104 1.05.156l.187.737h-.904Zm1.087-.493c-.054-.208-.28-1.117-.28-1.117.301.038.621.071.942.097 0 0-.39.87-.459 1.02-.078.17-.147.218-.203 0Zm3.546.493h-3.232l.293-.65h.003c.872.068 1.918.1 2.936.1 1.019 0 2.062-.032 2.936-.1l.295.65h-3.23Zm3.342-.493-.46-1.02c.323-.026.644-.059.945-.097 0 0-.226.91-.279 1.117-.057.218-.129.17-.206 0Zm1.777.165c-.14.196-.336.328-.486.328h-.903l.187-.737c.46-.052.803-.114 1.049-.156.223-.038.365.018.321.202a.973.973 0 0 1-.168.363Z" fill="#8F141B"/></svg>