<svg width="1141" height="1200" fill="none" xmlns="http://www.w3.org/2000/svg"><path fill-rule="evenodd" clip-rule="evenodd" d="m570.183 1189.34.313.01c3.771.11 9.741.25 18.013.25 41.25 0 105.981-3.11 179.883-17.68 105.141-20.72 185.444-52.44 246.188-96.51.97-.72 2.49-1.75 4.21-2.91.03-.02.05-.03.07-.05l.92-.64.06-.03c3.85-2.61 8.78-5.97 14.42-10.59 5.54-4.56 10.31-9.16 14.53-14.09l.03-.03.02-.03c8.2-9.42 14.85-20.61 19.19-32.3l.01-.05c4.94-13.11 7.48-27.666 7.42-43.404V271.883l22.58-12.543c5.44-3.029 10.33-6.726 14.49-10.9l.03-.026.02-.026c6.19-6.121 11.21-14.026 14.06-22.039l.01-.036.02-.035c2.37-6.516 3.57-13.439 3.57-20.525v-77.185c0-5.641-.89-16.881-6.45-26.384-5.05-8.644-14.57-17.012-34.99-17.012H835.754l-2.523-1.569c-11.646-7.24-121.88-73.198-260.062-73.198h-5.71c-138.195 0-248.414 65.97-260.051 73.2l-2.522 1.567H51.827c-20.387 0-29.906 8.365-34.966 17.013-5.563 9.507-6.456 20.75-6.456 26.383v77.185c0 7.11 1.182 14.025 3.55 20.509l.016.043.015.044c2.843 8.001 7.885 15.905 14.066 22.004l.03.03.03.03c4.198 4.209 9.076 7.907 14.5 10.932l22.538 12.543v699.364c0 15.775 2.518 30.348 7.478 43.408l.018.05.017.04c4.311 11.69 10.955 22.87 19.144 32.3l.018.02.018.02c4.228 4.92 8.994 9.52 14.564 14.09l.026.02c5.27 4.36 9.968 7.57 13.737 10.15l1.672 1.14.771.53c1.38.94 2.631 1.79 3.418 2.36 60.763 44.09 141.06 75.81 246.216 96.54 73.943 14.55 138.674 17.66 179.928 17.68m-181.937-7.47c-106.086-20.91-187.954-53.08-250.327-98.33-.644-.47-1.721-1.2-3.116-2.15l-.816-.56-1.716-1.18c-3.771-2.57-8.813-6.02-14.458-10.69-5.974-4.9-11.185-9.92-15.853-15.35-9.004-10.37-16.299-22.63-21.05-35.52-5.461-14.38-8.157-30.216-8.157-47.098V278.005l-17.202-9.574c-6.252-3.487-11.907-7.767-16.798-12.672-7.281-7.183-13.186-16.423-16.563-25.927C1.375 222.148 0 214.02 0 205.753v-77.185c0-12.631 3.738-53.8 51.827-53.8h250.091C314.061 67.222 426.316 0 567.459 0h5.71c141.129 0 253.398 67.209 265.556 74.767H1088.8c48.15 0 51.84 41.17 51.84 53.801v77.185c0 8.267-1.4 16.395-4.19 24.079-3.38 9.504-9.26 18.744-16.55 25.955-4.87 4.877-10.54 9.157-16.8 12.644l-17.23 9.574v693.247c.05 16.882-2.67 32.708-8.09 47.098-4.78 12.89-12.07 25.15-21.09 35.52-4.67 5.45-9.88 10.46-15.81 15.35-6.05 4.95-11.31 8.53-15.22 11.17l-1 .7c-1.82 1.22-3.18 2.15-3.93 2.71-62.358 45.25-144.24 77.42-250.326 98.33-74.725 14.73-140.155 17.87-181.895 17.87a627.6 627.6 0 0 1-18.313-.25c-3.543.11-9.629.25-18.021.25-41.74-.01-107.17-3.15-181.937-17.87Zm181.937 7.47c8.275 0 14.254-.14 17.695-.25l.313-.01" fill="#8F141B" fill-opacity=".04"/><path d="M806.965 149.784v52.231c0 4.765 4.891 8.712 7.142 9.976 37.362 21.051 45.074 25.594 45.074 35.445v639.878c0 21.509-8.128 27.373-23.954 35.168-40.74 20.077-130.944 56.037-264.194 56.037-133.292 0-223.468-35.96-264.207-56.037-15.798-7.809-23.996-13.659-23.996-35.168V247.45c0-9.767 7.6-14.812 44.282-35.445 2.515-1.431 7.962-4.293 7.962-11.157v-49.882c0-6.767-3.877-18.883-15.257-18.883H77.55c-11.352 0-15.284 8.309-15.284 18.883v51.063c0 6.238 6.947 8.211 10.073 9.976 34.765 19.605 41.656 25.858 41.656 35.445v716.326c0 41.254 13.048 53.024 27.762 63.694 165.68 120.33 429.262 108.06 429.262 108.06s251.077 12.27 416.757-108.06c14.704-10.67 40.254-22.44 40.254-63.694V247.45c0-9.906 10.07-14.159 48.12-35.445 2.11-1.209 6.67-4.002 6.67-9.976v-52.231c0-6.766-4.91-18.341-16.26-18.341H823.194c-11.338-.013-16.229 11.561-16.229 18.327Z" fill="#8F141B" fill-opacity=".04"/><path d="M594.86 882.089c-34.056 0-53.286-13.269-63.609-20.411l-2.738-1.931c-6.35-4.488-9.49-6.656-15.881-5.933-8.893.972-10.755 6.516-10.755 11.004v8.879a2.826 2.826 0 0 1-2.834 2.821h-67.542a2.83 2.83 0 0 1-2.849-2.821V736.876a2.829 2.829 0 0 1 2.849-2.82h99.11c.612 0 1.265.236 1.765.639.222.208 24.219 19.675 31.777 25.274l1.57 1.209c3.752 2.904 9.477 7.267 15.715 7.267 4.683 0 9.059-2.321 13.436-7.17 3.724-4.043 5.461-8.406 5.155-12.963-.292-4.919-3.098-9.88-7.822-13.965l-114.548-88.481c-18.3-14.381-49.007-44.824-49.007-87.092 0-100.792 77.56-127.455 118.591-127.455 34.056 0 53.245 13.297 63.61 20.425l2.737 1.917c6.336 4.46 9.407 6.6 15.882 5.919 8.879-.972 10.741-6.53 10.741-11.018v-8.865c0-1.57 1.278-2.849 2.82-2.849h67.584c1.556 0 2.834 1.279 2.834 2.849V576.49a2.819 2.819 0 0 1-2.834 2.834h-99.111a2.957 2.957 0 0 1-1.792-.625c-.236-.166-24.219-19.688-31.791-25.26l-1.598-1.223c-3.738-2.876-9.421-7.239-15.659-7.239-4.697 0-9.06 2.32-13.464 7.128-3.696 4.057-5.433 8.42-5.141 12.977.292 4.947 3.098 9.866 7.822 13.951l114.562 88.495c32.541 26.275 49.006 55.537 49.006 87.078 0 47.075-15.673 82.201-46.602 104.488-29.568 21.328-62.568 22.995-71.989 22.995Z" fill="#8F141B" fill-opacity=".04"/><path d="M594.86 913.895c-22.176 0-42.74-4.586-61.164-13.673v3.446a4.679 4.679 0 0 1-4.696 4.683H401.488c-2.556 0-4.696-2.07-4.696-4.683V706.934c0-2.571 2.14-4.669 4.696-4.669h96.971c-12.046-9.226-31.11-23.871-41.823-32.389-17.994-14.311-59.858-53.758-59.858-111.06 0-70.793 32.444-109.365 59.622-129.303 37.974-27.804 79.088-29.957 90.815-29.957 22.204 0 42.713 4.585 61.165 13.714v-3.488a4.661 4.661 0 0 1 4.669-4.669h127.525c2.584 0 4.696 2.085 4.696 4.669v196.721a4.69 4.69 0 0 1-4.696 4.696h-97.068a86963.485 86963.485 0 0 1 41.892 32.347c28.915 22.398 59.886 63.36 59.886 111.088 0 72.072-32.541 110.644-59.844 130.291-37.252 26.872-78.755 28.97-90.58 28.97ZM529 887.745a4.71 4.71 0 0 1 2.32.611c19.036 10.894 39.822 16.174 63.54 16.174 11.13 0 50.118-1.973 85.105-27.22 25.539-18.382 55.926-54.592 55.926-122.69 0-44.324-29.067-82.618-56.231-103.654-23.288-18.063-52.731-40.781-52.731-40.781-1.584-1.209-2.223-3.293-1.584-5.211a4.707 4.707 0 0 1 4.46-3.167h106.086V414.451H617.787v6.544c0 1.709-.89 3.224-2.362 4.071-1.445.82-3.196.848-4.669 0-19.008-10.852-39.794-16.159-63.527-16.159-10.976 0-49.576 2.056-85.271 28.164-25.455 18.605-55.801 54.856-55.801 121.717 0 53.231 39.377 90.26 56.315 103.724 16.326 13.006 52.299 40.42 52.675 40.712 1.597 1.195 2.209 3.279 1.598 5.196-.667 1.904-2.46 3.182-4.447 3.182H406.157v187.356h118.146V892.4c0-1.681.889-3.196 2.321-4.057a5.105 5.105 0 0 1 2.376-.598Z" fill="#8F141B" fill-opacity=".04"/><path d="M440.295 447.284c-36.988-21.745-51.8-51.313-57.719-72.28-6.419-22.76-4.085-40.212-3.988-40.934l6.142.862c-.084.667-8.406 67.5 58.733 106.975l-3.168 5.377ZM742.093 409.935l-5.072-3.627c24.969-35.028 19.397-72.766 19.341-73.141l6.184-.848c.25 1.584 5.974 40.587-20.453 77.616Z" fill="#8F141B" fill-opacity=".04"/><path d="M569.527 403.807c-69.793 0-117.452-19.174-145.172-35.264-30.124-17.521-43.532-34.918-44.102-35.64l4.961-3.78c.542.681 53.772 68.446 184.313 68.446 68.236 0 114.728-18.619 141.67-34.223 29.234-16.924 42.504-34.056 42.629-34.223l4.974 3.78c-.584.736-13.992 18.132-44.13 35.64-27.664 16.09-75.323 35.264-145.143 35.264Z" fill="#8F141B" fill-opacity=".04"/><path d="M795.905 834.431c0-4.919-.056-14.451-.111-27.47-.083-31.291-.236-81.645-.292-136.987v-3.752c-.028-20.939-.069-54.995-.069-76.518 17.868-10.324 57.412-54.703-2.029-212.575-7.892-23.037-16.993-35.792-23.829-42.489 8.656-4.141 15.687-12.075 19.897-19.356 10.268-17.688 13.644-40.878 15.437-53.341.403-2.64.667-4.725.973-6.017 2.709-12.964-.709-19.619-12.756-24.566l-15.465-6.433v-75.198c0-14.812 1.376-16.034 5.906-20.175.945-.917 2.098-1.904 3.321-3.168 4.849-4.821 6.905-10.588 5.807-16.243-.958-4.807-4.64-11.616-16.743-16.77C684.525 53.48 599.601 50.41 575.73 50.41c-2.584 0-4.043.042-4.071.042-.222 0-1.709-.042-4.307-.042-23.844 0-108.74 3.085-200.153 42.962-12.186 5.155-15.826 11.964-16.743 16.771-1.14 5.669.917 11.422 5.752 16.243 1.126 1.167 2.223 2.14 3.182 3.015 4.557 4.224 5.766 5.336 5.766 20.328l.028 75.143c-3.654 1.445-10.004 4.043-15.618 6.53-12.018 5.28-15.339 11.699-12.602 24.524.264 1.292.584 3.377.959 6.017 1.792 12.463 5.182 35.653 15.437 53.341 5.585 9.588 11.616 15.923 18.257 19.328-7.906 8.045-15.798 21.717-23.121 40.447-49.006 130.096-33.43 197.166-1.722 215.131.041 79.895.222 173.823.375 216.869.014 12.991.041 22.467.069 27.386-5.002 4.474-10.671 14.589-12.324 24.733-1.821 11.226 1.153 21.092 8.587 28.553 19.716 19.703 149.729 45.825 228.053 45.825 78.352 0 208.309-26.122 228.067-45.825 7.42-7.461 10.421-17.327 8.629-28.553-1.64-10.13-7.351-20.245-12.325-24.747Zm-6.322-594.4c7.878 3.251 8.934 5.363 7.156 13.992-.32 1.431-.681 3.71-1.084 6.6-1.695 11.852-4.932 33.902-14.27 49.979-2.251 3.904-5.627 8.211-9.684 11.616-2.654 2.237-10.324 6.044-11.186-7.837-.583-9.087.57-18.118 3.933-26.983 8.614-22.662 12.268-36.918 13.047-52.342l12.088 4.975ZM684.97 192.58c-31.68-1.57-51.813 14.604-63.707 30.054-9.184 6.448-27.817 17.008-50.813 16.313-23.704 0-42.462-11.435-51.077-17.799-12.046-15.02-31.902-30.068-62.595-28.568-49.66 2.321-70.155 40.67-77.255 66.625-2.584-10.351-4.279-20.342-4.918-29.887l13.908-4.71c1.112-.362 1.904-1.446 1.918-2.655l.305-21.967c9.504-3.515 57.038-20.286 128.623-29.068a2.807 2.807 0 0 0 2.46-2.806v-7.684h93.386v7.684c0 1.445 1.098 2.667 2.529 2.806.792.098 77.129 8.282 135.056 30.18v20.564c0 1.167.695 2.195 1.751 2.64.222.055 4.557 1.834 13.755 4.933-.083 10.573-1.361 19.869-4.64 31.471-7.087-25.525-27.72-65.777-78.686-68.126Zm47.006 29.665c-2.737 4.613-18.633 28.151-52.175 23.163-14.2-2.126-23.927-9.977-29.693-17.647-6.294-8.281-4.349-15.701-2.473-16.826 9.573-5.836 21.717-9.712 36.877-9.031 21.231 1.028 36.543 9.378 47.464 20.341Zm-122.746 27.72c.236.084 22.218 7.559 39.878 29.262 1.403 2.029-3.071 5.989-6.253 5.155-7.211-1.889-23.065-5.321-33.152 7.865-.084.125-.209.208-.278.319-.987 1.028-13.214 13.367-37.683 13.367-24.871 0-38.418-12.908-39.113-13.603-14.2-12.811-27.776-9.059-35.862-7.92-3.891.57-8.073-2.265-5.85-5.488 17.771-21.426 41.212-28.832 41.462-28.915 2.237-.931 3.418-3.404 2.709-5.724-.111-.195-2.293-2.141-7.517-11.13 10.588 5.766 25.344 11.421 42.768 11.421.82.014 1.542.014 2.362.014 16.618 0 30.777-5.224 41.031-10.699-4.919 8.615-7.031 10.199-7.1 10.394a4.755 4.755 0 0 0 2.598 5.682Zm-115.492-23.898c-5.753 8.045-15.646 17.076-30.916 19.355-34.306 5.072-50.146-19.647-52.411-23.469 10.741-10.837 25.844-19.049 46.756-20.021 15.089-.681 26.983 3.32 36.654 8.836 3.376 1.89 4.655 8.671-.083 15.299Zm-119.245-78.019c12.617-4.558 62.36-22.065 101.779-28.665.292.181.667.403 1.056.653 28.401 17.368 59.969 26.136 93.831 26.136 33.819 0 65.374-8.768 93.761-26.136.431-.25.792-.486 1.084-.653 39.433 6.6 89.607 24.107 102.292 28.665 0 .569-.014 1.139-.014 1.723v73.489a317.202 317.202 0 0 1-9.851-3.502v-20.606a2.839 2.839 0 0 0-1.82-2.654c-52.814-20.355-121.773-29.248-135.751-30.915v-7.962c0-1.584-1.251-2.848-2.821-2.848h-99.055c-1.542 0-2.793 1.264-2.793 2.848v8.004c-79.227 10.004-128.831 29.581-129.345 29.79a2.9 2.9 0 0 0-1.793 2.598l-.277 21.898-10.283 3.488v-73.642c.028-.584 0-1.14 0-1.709Zm-11.657-28.234c-1.487-1.501-3.877-4.488-3.224-7.865.737-3.668 4.697-7.155 11.324-9.962 92.08-40.184 179.798-42.212 196.43-42.212 2.612 0 3.973.028 4.348.028.042 0 1.446-.028 4.016-.028 16.66 0 104.391 2.029 196.513 42.24 6.544 2.779 10.573 6.28 11.268 9.934.653 3.377-1.709 6.364-3.21 7.865-1.097 1.112-2.125 2.028-3.056 2.862-4.919 4.502-7.379 7.545-8.393 15.618-16.451-5.808-64.805-22.287-102.848-28.415a7.505 7.505 0 0 0-.764-.028c-1.529 0-2.474.528-5.169 2.196-26.914 16.465-56.843 24.788-88.884 24.788-32.111 0-62.026-8.323-88.954-24.788-3.127-1.932-4.155-2.418-5.919-2.168-38.002 6.128-85.953 22.551-102.265 28.415-.987-8.184-3.46-11.269-8.323-15.743-.862-.806-1.834-1.681-2.89-2.737Zm3.654 198.305c-1.709-2.154-3.376-4.655-5.044-7.531-9.337-16.077-12.56-38.127-14.269-49.979-.389-2.89-.779-5.169-1.056-6.628-1.793-8.49-.779-10.435 7.239-13.992 4.168-1.862 8.795-3.752 12.352-5.211 1.626 16.716 6.003 34.376 12.964 52.606 2.973 7.809 3.321 17.132 2.265 27.219-1.223 11.297-10.713 8.212-14.451 3.516Zm426.483 562.998c-14.922 14.978-137.529 43.06-221.425 43.06-48.951 0-111.102-9.56-157.344-20.523h-14.089v-3.515c-25.83-6.753-44.671-13.742-49.993-19.022-5.127-5.141-7.156-11.727-6.086-19.605 1.404-10.588 7.962-19.411 9.949-20.536.055-.042.097-.098.167-.098 6.572 2.793 22.495 9.171 45.977 16.104v-5.933c-22.065-6.572-37.196-12.602-43.532-15.312 0-4.349-.028-14.339-.083-28.734-.084-25.149-.195-63.485-.278-106.948 8.142 1.723 25.441 5.461 43.879 8.921v-2.056l20.953-1.223c-25.51-4.349-54.828-9.254-64.832-11.436 0-7.6-.028-15.312-.028-23.176 7.156 1.918 57.205 14.951 128.984 21.94 6.35 4.905 12.714 9.796 18.119 13.895h7.614s-29.984-22.857-47.867-36.877c-1.445 2.029-1.084 4.807.848 6.364 3.557 2.82 8.031 6.322 12.838 10.087-71.571-7.683-119.272-20.939-119.911-21.119-.208-.028-.389-.014-.611-.028 0-19.411-.056-39.475-.056-59.386 5.975-4.946 30.583-7.503 53.342-7.503 1.459 0 2.696 1.042 3.543 0-1.25-2.501-2.418-4.252-3.515-6.864l-.028-2.501c-27.692 0-38.308 1.473-56.218-6.086-15.687-6.614-27.595-27.692-26.372-77.741.598-23.676 7.573-52.967 7.573-52.967 4.96-21.62 12.31-46.13 22.745-73.836 8.712-22.203 16.479-32.764 21.579-37.807l7.628-8.629c4.391-19.911 6.1-34.486.959-47.978-.584-1.612-1.154-3.238-1.723-4.836 0-8.92 4.696-34.375 21.467-53.702 3.904 6.016 18.827 25.302 46.797 25.302 3.085 0 6.281-.222 9.588-.736 25.149-3.724 36.612-23.511 40.378-31.903 11.852 10.643 18.257 18.689 20.842 25.066-8.476 4.197-28.332 12.964-43.616 32.903v.028l-.028.014c-.139.152-3.418 5.28-.333 8.864v.056c1.014 1.848 10.296 12.408 46.769 15.02 6.031 5.488 21.384 15.159 44.227 15.159 23.107 0 37.641-9.684 43.185-15.159 36.932-2.737 43.282-14.172 44.338-15.659 2.167-3.001.347-6.975-.612-8.281-15.214-19.842-33.75-28.61-41.712-32.834 2.585-6.447 9.157-14.922 21.509-25.718 3.558 8.031 14.896 28.622 40.601 32.43 3.376.514 6.572.736 9.601.736 27.581 0 42.448-18.744 46.658-25.011 17.382 19.856 22.107 45.964 22.107 53.412l.055.055c-.569 1.557-1.139 3.141-1.792 4.78-6.003 15.715-5.503 33.153-1.112 47.979l14.84 16.979c4.655 6.6 10.073 16.534 15.145 31.318 11.866 31.611 19.675 59.011 24.746 82.521 3.821 17.576 6.003 45.519 6.003 45.519 1.626 41.392-10.56 67.333-26.219 74.086-16.66 7.197-30.721 6.892-49.41 6.892-.208 0-.347.069-.528.083v2.112h-.486c0 2.585-3.265 4.655-.681 4.655 15.923 0 32.18-.333 48.034 9.768 0 20.884.028 41.003.055 61.262-22.759 6.127-47.922 10.74-72.238 14.214 1.181 1.653 2.334 3.404 3.502 5.197 20.675-3.127 41.406-7.17 60.024-11.38 7.198-1.64 8.726 1.584 8.726 9.851 0 8.226-1.32 9.24-7.753 10.56-11.685 2.445-31.457 6.516-50.451 9.865.792 1.765 1.639 3.543 2.362 5.35 23.065-4.127 46.839-9.129 55.87-11.047.097 43.324.25 81.618.306 107.17 0 14.312.041 24.371.041 28.72-9.67 4.03-39.377 15.535-83.02 25.15-2.195 2.557-4.46 5.016-6.753 7.239 48.715-10.074 81.923-22.954 92.191-27.275.07.055.111.097.195.153 2.014 1.111 8.545 9.948 9.99 20.536 1.07 7.892-.986 14.464-6.114 19.605ZM646.579 324.802c-.82 0-1.57.084-2.195.209-25.025 5.085-69.821 5.224-74.768 5.224-4.96 0-49.729-.139-74.767-5.224-.681-.112-1.417-.209-2.209-.209-7.239 0-16.896 5.864-20.509 16.785-2.167 6.391-.736 13.992 3.821 20.314 4.113 5.697 9.768 9.059 15.145 9.059H648.08c5.419 0 11.018-3.376 15.145-9.059 4.557-6.336 5.988-13.923 3.876-20.314-3.64-10.907-13.297-16.785-20.522-16.785Zm-6.642 9.629c2.112-.334 4.155-.82 6.1-1.084 3.307-.458 8.281 1.293 10.046 5.364.347.847.083 2.848-4.78 3.904-3.446.737-8.1 1.376-13.978 2.084l2.612-10.268Zm-113.742 2.835c20.273 1.375 43.421 1.445 43.421 1.445s23.121-.07 43.38-1.445l4.168 9.212c-14.186 1.056-31.096 1.597-47.548 1.597-16.465 0-33.361-.541-47.575-1.597l4.154-9.212Zm-43.045 1.445c1.778-4.071 6.711-5.822 10.032-5.364 1.959.264 3.988.75 6.1 1.084l2.612 10.268c-5.892-.708-10.518-1.347-14.006-2.084-4.808-1.07-5.113-3.057-4.738-3.904Zm7.961 23.787c-2.528 0-5.863-2.237-8.225-5.571a16.944 16.944 0 0 1-2.849-6.142c-.722-3.112 1.64-4.057 5.433-3.418 4.21.708 9.991 1.765 17.799 2.64l3.154 12.491h-15.312Zm18.425-8.364c-.917-3.516-4.752-18.911-4.752-18.911a378.698 378.698 0 0 0 15.979 1.64s-6.6 14.728-7.781 17.271c-1.32 2.876-2.487 3.696-3.446 0Zm60.08 8.364h-54.759l4.961-11.032.056.028c14.77 1.139 32.485 1.695 49.742 1.695 17.258 0 34.932-.556 49.743-1.695v-.028l4.989 11.032h-54.732Zm56.621-8.364c-1.167-2.557-7.795-17.271-7.795-17.271a375.373 375.373 0 0 0 16.007-1.64s-3.835 15.395-4.724 18.911c-.973 3.696-2.182 2.876-3.488 0Zm30.096 2.793c-2.362 3.334-5.697 5.571-8.226 5.571h-15.298l3.168-12.491c7.781-.875 13.603-1.932 17.758-2.64 3.793-.639 6.197.306 5.446 3.418a16.474 16.474 0 0 1-2.848 6.142Z" fill="#8F141B" fill-opacity=".04"/></svg>