<svg width="280" height="159" viewBox="0 0 280 159" fill="none" xmlns="http://www.w3.org/2000/svg">
<path d="M90.3294 115.424L90.3124 118.506C90.3124 118.974 90.2955 119.425 90.2672 119.83C90.1723 121.217 89.6884 122.152 88.7389 122.805C87.96 123.335 86.9302 123.615 85.7025 123.615C84.831 123.615 84.051 123.49 83.3671 123.211C82.8844 123.022 82.4311 122.774 82.1044 122.401C81.4657 121.699 81.2317 120.811 81.2475 119.253L81.2781 115.408C81.2928 113.99 81.1854 113.134 80.9661 112.464L81.3583 112.481H82.37L82.8686 112.464L82.7759 113.602C82.7578 113.867 82.7578 114.428 82.7453 115.285L82.7114 118.632C82.6967 120.066 82.777 120.516 83.0234 121.094C83.4293 122.013 84.5201 122.589 85.8099 122.589C86.5741 122.589 87.2603 122.416 87.8063 122.106C88.2426 121.841 88.5851 121.467 88.7717 121.046C89.0362 120.422 89.0995 119.769 89.1142 118.228L89.1311 115.425C89.1481 114.007 89.0373 113.15 88.8191 112.48L89.2238 112.496H90.0954L90.5351 112.48C90.361 113.587 90.3294 113.911 90.3294 115.424Z" fill="#DFD4A6"/>
<path d="M104.299 113.164C104.254 113.539 104.221 113.912 104.221 114.3C104.221 114.613 104.206 115.236 104.206 116.171L104.189 120.562C104.189 120.811 104.189 121.123 104.206 121.512C104.254 122.323 104.269 122.618 104.345 123.49H103.756L103.117 123.505C102.525 122.603 102.278 122.259 101.761 121.606L97.1672 115.797L95.9215 114.179L95.9542 114.973L95.9373 120.175C95.9373 121.467 96.0616 122.636 96.2945 123.322L95.8898 123.29H95.0024L94.5514 123.322C94.6147 123.009 94.6452 122.777 94.6588 122.62C94.7074 122.261 94.7526 121.888 94.7526 121.498V120.158L94.7696 115.408C94.7696 113.99 94.6927 113.149 94.4734 112.48L95.2817 112.512L96.6709 112.464C97.2147 113.4 97.4487 113.743 98.0557 114.52L102.183 119.831L103.056 120.938L103.008 119.831L103.023 116.157C103.023 114.599 102.884 113.214 102.636 112.48L103.008 112.497H103.96L104.411 112.48C104.345 112.791 104.316 113.009 104.299 113.164Z" fill="#DFD4A6"/>
<path d="M110.158 123.288H109.022L108.585 123.318L108.677 122.619C108.77 121.948 108.788 121.792 108.788 120.359L108.804 115.405C108.804 114.02 108.709 113.132 108.493 112.462L108.882 112.479H109.894L110.392 112.462L110.3 113.6C110.284 113.865 110.269 114.425 110.269 115.282L110.251 120.376C110.251 121.792 110.347 122.648 110.564 123.318L110.158 123.288Z" fill="#DFD4A6"/>
<path d="M123.283 113.275L122.859 114.162L122.426 115.127L119.792 121.466C119.326 122.587 119.264 122.776 119.107 123.554L118.78 123.522H118.095L117.704 123.554C117.611 122.978 117.581 122.806 117.301 122.06L114.764 115.191C114.233 113.743 113.845 113.01 113.517 112.48L113.907 112.497H115.138L115.682 112.463C115.712 112.744 115.726 112.962 115.756 113.103C115.822 113.493 116.023 114.132 116.351 115.065L118.063 120.065L118.608 121.778L119.34 119.924L121.021 115.532C121.443 114.441 121.643 113.694 121.643 113.103C121.643 112.885 121.628 112.759 121.537 112.48L122.032 112.497H123.201L123.651 112.463L123.682 112.526C123.498 112.854 123.357 113.103 123.283 113.275Z" fill="#DFD4A6"/>
<path d="M133.182 122.214L133.042 122.82L132.933 123.381C132.65 123.366 132.448 123.35 132.323 123.35C132.261 123.35 131.639 123.335 130.442 123.32L128.353 123.289L126.81 123.32L126.905 122.62C126.998 121.933 127.014 121.795 127.014 120.36L127.03 115.407C127.03 113.989 126.953 113.149 126.733 112.479L127.559 112.493H129.723C131.485 112.493 131.656 112.479 132.699 112.448L132.495 112.947L132.292 113.584L132.184 113.974L131.995 114.005C131.717 113.693 131.576 113.599 131.204 113.489C130.781 113.365 130.269 113.303 129.691 113.303C129.443 113.303 129.024 113.319 128.556 113.348L128.491 115.232V117.086H130.546C131.203 117.086 131.482 117.056 132.228 116.993L132.37 117.117L132.15 117.6L131.947 118.131C131.637 118.099 131.403 118.083 131.248 118.083C130.718 118.053 130.22 118.036 129.721 118.036C129.301 118.036 129.097 118.036 128.474 118.069V120.404C128.474 120.591 128.49 120.825 128.505 121.12C128.536 121.68 128.599 121.914 128.785 122.116C129.035 122.364 129.392 122.443 130.298 122.443C130.872 122.443 131.323 122.413 131.746 122.334C131.946 122.303 132.165 122.241 132.368 122.147C132.647 122.022 132.803 121.913 133.115 121.617L133.318 121.711L133.182 122.214Z" fill="#DFD4A6"/>
<path d="M145.18 123.318L144.776 123.335L143.593 123.366L142.937 123.411L142.754 123.132L142.548 122.775C142.472 122.62 142.347 122.431 142.206 122.197C141.55 121.138 140.865 120.157 140.04 119.005C139.341 118.024 139.045 117.774 138.671 117.386C139.417 117.37 139.885 117.338 140.274 117.182C141.022 116.902 141.475 116.077 141.475 115.173C141.475 113.974 140.694 113.194 139.387 113.194C139.107 113.194 138.856 113.211 138.281 113.288C138.248 113.944 138.234 114.1 138.234 115.282L138.219 120.376C138.219 121.794 138.313 122.65 138.529 123.318L138.126 123.289H136.988L136.55 123.318C136.722 122.213 136.754 121.839 136.754 120.36L136.771 115.407C136.771 113.989 136.693 113.149 136.472 112.479L137.284 112.51L138.764 112.463C139.168 112.447 139.528 112.447 139.868 112.447C141.193 112.447 141.677 112.572 142.206 112.991C142.719 113.413 143.001 114.112 143.001 114.875C143.001 115.529 142.782 116.215 142.375 116.65C142.034 117.011 141.598 117.306 140.851 117.693L141.208 118.176L142.687 120.295C143.372 121.292 144.058 122.148 144.526 122.63C144.775 122.88 144.885 122.974 145.195 123.208L145.18 123.318Z" fill="#DFD4A6"/>
<path d="M150.201 123.677C150.012 123.677 149.811 123.662 149.593 123.647C148.953 123.584 148.657 123.522 147.894 123.242L148.065 122.697L148.251 121.981L148.347 121.592L148.563 121.545C148.846 121.981 148.986 122.153 149.279 122.34C149.671 122.604 150.215 122.76 150.683 122.76C151.944 122.76 152.877 121.919 152.877 120.813C152.877 120.377 152.736 119.957 152.473 119.63C152.147 119.225 151.725 118.914 150.775 118.4C149.358 117.638 149.154 117.498 148.735 117.076C148.267 116.592 148.003 115.923 148.003 115.207C148.003 113.353 149.469 112.107 151.68 112.107C151.866 112.107 152.052 112.124 152.24 112.139C152.846 112.185 153.173 112.264 153.97 112.529L153.796 112.964L153.564 113.695L153.486 114.022L153.284 114.052C152.723 113.289 152.162 113.01 151.243 113.01C150.089 113.01 149.327 113.679 149.327 114.675C149.327 115.144 149.513 115.564 149.858 115.876C150.215 116.189 150.588 116.436 151.602 116.982C152.878 117.669 153.267 117.948 153.689 118.477C154.064 118.96 154.249 119.553 154.249 120.191C154.249 122.214 152.568 123.677 150.201 123.677Z" fill="#DFD4A6"/>
<path d="M159.312 123.288H158.176L157.738 123.318L157.831 122.619C157.925 121.948 157.942 121.792 157.942 120.359L157.96 115.405C157.96 114.02 157.864 113.132 157.646 112.462L158.035 112.479H159.048L159.546 112.462L159.453 113.6C159.438 113.865 159.422 114.425 159.422 115.282L159.405 120.376C159.405 121.792 159.502 122.648 159.717 123.318L159.312 123.288Z" fill="#DFD4A6"/>
<path d="M171.779 122.025C170.644 122.947 169.319 123.336 167.327 123.336C166.953 123.336 166.314 123.288 165.378 123.288H164.242L163.805 123.319L163.899 122.619C163.991 121.949 164.008 121.792 164.008 120.359L164.026 115.469C164.026 114.05 163.933 113.148 163.713 112.478C164.181 112.495 163.917 112.495 165.131 112.495C165.771 112.495 166.796 112.478 167.436 112.478C167.978 112.478 168.449 112.478 168.838 112.495C170.115 112.524 170.895 112.681 171.58 113.038C173.028 113.8 173.885 115.453 173.885 117.431C173.885 119.284 173.137 120.951 171.779 122.025ZM171.142 114.519C170.364 113.648 169.399 113.319 167.514 113.319C167.016 113.319 166.517 113.353 165.537 113.398L165.488 115.282L165.474 120.343C165.474 120.546 165.488 120.797 165.505 121.061C165.536 121.622 165.598 121.856 165.783 122.058C165.894 122.166 166.017 122.245 166.174 122.291C166.501 122.383 167.077 122.431 167.652 122.431C170.503 122.431 172.233 120.702 172.233 117.821C172.233 116.483 171.844 115.314 171.142 114.519Z" fill="#DFD4A6"/>
<path d="M185.4 123.288H184.403L183.718 123.335L183.611 122.679C183.516 122.181 183.36 121.699 183.048 120.797L182.52 119.255L181.568 119.222H179.717L178.626 119.255L178.097 120.672C177.801 121.482 177.643 122.135 177.643 122.603C177.643 122.837 177.66 122.992 177.753 123.319L177.269 123.288H176.195L175.776 123.319L175.713 123.225L176.086 122.523C176.195 122.32 176.337 122.025 176.522 121.635C176.709 121.233 176.849 120.903 176.945 120.671L179.528 114.315C179.903 113.413 179.981 113.148 180.181 112.368L180.509 112.323L181.195 112.212L181.537 112.15C181.693 112.804 181.756 113.052 182.022 113.738L184.606 120.608C184.808 121.168 185.135 121.9 185.51 122.647C185.648 122.927 185.71 123.037 185.882 123.316L185.4 123.288ZM180.65 113.881L178.955 118.351L179.874 118.383H181.384L182.192 118.351L180.65 113.881Z" fill="#DFD4A6"/>
<path d="M196.999 122.025C195.86 122.947 194.539 123.336 192.545 123.336C192.171 123.336 191.533 123.288 190.597 123.288H189.462L189.023 123.319L189.118 122.619C189.211 121.949 189.228 121.792 189.228 120.359L189.243 115.469C189.243 114.05 189.15 113.148 188.933 112.478C189.4 112.495 189.137 112.495 190.347 112.495C190.987 112.495 192.016 112.478 192.655 112.478C193.198 112.478 193.667 112.478 194.055 112.495C195.331 112.524 196.111 112.681 196.797 113.038C198.245 113.8 199.101 115.453 199.101 117.431C199.1 119.284 198.354 120.951 196.999 122.025ZM196.361 114.519C195.581 113.648 194.615 113.319 192.73 113.319C192.232 113.319 191.734 113.353 190.752 113.398L190.705 115.282L190.69 120.343C190.69 120.546 190.705 120.797 190.723 121.061C190.751 121.622 190.815 121.856 191.002 122.058C191.109 122.166 191.236 122.245 191.391 122.291C191.717 122.383 192.295 122.431 192.871 122.431C195.721 122.431 197.45 120.702 197.45 117.821C197.45 116.483 197.06 115.314 196.361 114.519Z" fill="#DFD4A6"/>
<path d="M1.75915 153.332C3.17962 154.279 4.87196 154.99 6.83275 154.99C8.55906 154.99 10.2831 154.382 10.2831 152.69C10.2831 148.666 0.745355 149.174 0.745355 142.341C0.745355 138.992 3.41638 135.982 8.22037 135.982C10.589 135.982 12.5837 136.523 13.8671 137.166V141.326C11.9403 140.38 10.146 139.87 8.3563 139.87C6.93356 139.87 5.68415 140.38 5.68415 141.934C5.68415 145.723 15.2208 145.183 15.2208 152.284C15.2208 156.343 11.6707 158.846 7.00267 158.846C4.39734 158.846 1.79314 158.136 0 156.816L1.75915 153.332Z" fill="#DFD4A6"/>
<path d="M20.4787 154.685C19.8353 153.467 19.4966 151.912 19.4966 150.084V136.217H24.1295V149.815C24.1295 150.965 24.3663 151.979 24.7729 152.757C25.5523 154.212 27.0384 154.99 29.1023 154.99C31.1311 154.99 32.6206 154.212 33.3988 152.757C33.8383 151.979 34.04 150.965 34.04 149.782V136.217H38.6752V150.084C38.6752 151.911 38.3342 153.465 37.6942 154.685C36.2386 157.525 33.1949 158.845 29.0694 158.845C24.9428 158.845 21.9331 157.525 20.4787 154.685Z" fill="#DFD4A6"/>
<path d="M44.2587 136.217H50.9192C52.9185 136.217 54.4047 136.522 55.5885 137.062C58.1598 138.178 59.1396 140.31 59.1396 142.678C59.1396 145.585 57.3147 147.615 54.8102 148.394V148.462C55.4865 148.835 56.4697 150.051 57.6501 152.115L61.2703 158.507H55.96L53.0194 153.164C51.9036 151.066 51.1231 150.221 50.5828 150.085H48.8928V158.507H44.2598V136.217H44.2587ZM50.6146 146.33C51.6295 146.33 52.2718 146.163 52.8495 145.857C53.7273 145.315 54.3368 144.402 54.3368 143.152C54.3368 141.968 53.7953 140.952 52.8155 140.444C52.3091 140.141 51.6657 139.971 50.6496 139.971H48.8916V146.329H50.6146V146.33Z" fill="#DFD4A6"/>
<path d="M82.2079 157.019C79.6037 158.442 77.1003 158.845 74.8008 158.845C67.3247 158.845 63.334 154.111 63.334 147.582C63.334 141.189 68.0043 135.982 75.374 135.982C77.8457 135.982 79.8744 136.421 81.3277 137.066V141.326C79.538 140.378 77.6089 139.873 75.4782 139.873C70.6074 139.873 68.2728 143.424 68.2728 147.516C68.2728 151.914 71.014 154.99 75.3751 154.99C77.6429 154.99 79.3024 154.313 80.9245 153.368L82.2079 157.019Z" fill="#DFD4A6"/>
<path d="M84.6083 147.412C84.6083 140.649 89.2741 135.982 95.9709 135.982C102.668 135.982 107.337 140.681 107.337 147.412C107.337 154.245 102.635 158.845 95.9709 158.845C89.2741 158.845 84.6083 154.212 84.6083 147.412ZM102.398 147.412C102.398 142.575 99.8268 139.869 95.9709 139.869C92.1501 139.869 89.5448 142.541 89.5448 147.412C89.5448 152.318 92.1501 154.988 95.9709 154.988C99.7939 154.989 102.398 152.318 102.398 147.412Z" fill="#DFD4A6"/>
<path d="M111.956 136.217H116.59V154.585H124.369V158.506H111.956V136.217Z" fill="#DFD4A6"/>
<path d="M126.3 147.412C126.3 140.649 130.967 135.982 137.664 135.982C144.36 135.982 149.029 140.681 149.029 147.412C149.029 154.245 144.327 158.845 137.664 158.845C130.967 158.845 126.3 154.212 126.3 147.412ZM144.09 147.412C144.09 142.575 141.52 139.869 137.664 139.869C133.843 139.869 131.237 142.541 131.237 147.412C131.237 152.318 133.843 154.988 137.664 154.988C141.487 154.989 144.09 152.318 144.09 147.412Z" fill="#DFD4A6"/>
<path d="M153.65 136.217H157.843L163.557 144.301C164.303 145.352 164.846 146.195 165.352 147.074H165.42C165.86 146.228 166.434 145.281 167.143 144.166L172.319 136.217H176.545V158.506H171.912V146.535C171.912 145.654 171.912 144.639 171.945 143.863H171.912C171.642 144.439 170.761 145.723 170.388 146.296L166.399 152.453H164.302L159.804 146.096C159.328 145.453 158.789 144.743 158.316 143.897H158.248C158.28 144.675 158.28 145.69 158.28 146.4V158.507H153.647V136.217H153.65Z" fill="#DFD4A6"/>
<path d="M182.292 136.218H189.294C194.131 136.218 196.295 139.025 196.295 141.865C196.295 143.691 195.382 145.484 193.655 146.364V146.432C196.329 147.143 197.818 149.307 197.818 151.811C197.818 155.192 195.179 158.508 189.903 158.508H182.293V136.218H182.292ZM188.685 145.315C190.715 145.315 191.765 144.164 191.765 142.711C191.765 141.189 190.749 140.004 188.584 140.004H186.925V145.314H188.685V145.315ZM189.294 154.718C191.866 154.718 193.148 153.84 193.148 151.811C193.148 150.085 191.864 149.103 189.731 149.103H186.923V154.718H189.294Z" fill="#DFD4A6"/>
<path d="M206.935 136.216H202.302V158.505H206.935V136.216Z" fill="#DFD4A6"/>
<path d="M218.751 136.115H222.504L231.603 158.508H226.63L224.467 153.061H216.891L214.828 158.508H210.058L218.751 136.115ZM223.08 149.341L221.761 145.587C221.22 143.964 220.947 143.015 220.747 142.272H220.677C220.508 143.05 220.17 143.997 219.561 145.619L218.211 149.341H223.08Z" fill="#DFD4A6"/>
<path d="M251.016 158.508L241.682 146.297C240.868 145.216 240.158 144.2 239.382 143.219H239.314C239.415 144.032 239.415 145.418 239.415 146.5V158.508H234.782V136.218H239.415L248.376 147.955C249.258 149.07 249.968 150.051 250.645 151.031H250.712C250.645 149.848 250.645 148.361 250.645 147.311V136.218H255.278V158.508H251.016Z" fill="#DFD4A6"/>
<path d="M267.148 136.115H270.901L280 158.508H275.026L272.864 153.061H265.287L263.224 158.508H258.455L267.148 136.115ZM271.477 149.341L270.158 145.587C269.616 143.964 269.344 143.015 269.143 142.272H269.074C268.906 143.05 268.567 143.997 267.957 145.619L266.606 149.341H271.477Z" fill="#DFD4A6"/>
<path d="M141.516 98.5953C140.827 98.5953 140.328 98.5839 140.012 98.5747C139.721 98.5839 139.221 98.5953 138.531 98.5953C135.102 98.5942 129.726 98.3361 123.583 97.1272C114.866 95.409 108.14 92.7662 103.015 89.0479C102.952 89.0022 102.839 88.9257 102.692 88.8253L102.609 88.7682C102.294 88.5524 101.856 88.2579 101.363 87.8503C100.872 87.4473 100.444 87.0352 100.061 86.5888C99.3208 85.7372 98.7215 84.7291 98.331 83.6708C97.8824 82.4893 97.6609 81.1878 97.6609 79.8007V22.8416L96.2476 22.055C95.7338 21.7685 95.2692 21.4169 94.8673 21.0139C94.2691 20.4237 93.7839 19.6645 93.5065 18.8836C93.2759 18.2523 93.1629 17.5845 93.1629 16.9052V10.5635C93.1629 9.52574 93.47 6.1431 97.4212 6.1431H117.969C118.967 5.52319 128.19 0 139.787 0H140.023H140.256C151.852 0 161.076 5.52205 162.075 6.1431H182.622C186.578 6.1431 186.881 9.52574 186.881 10.5635V16.9052C186.881 17.5845 186.766 18.2523 186.536 18.8836C186.259 19.6645 185.776 20.4237 185.177 21.0162C184.777 21.4169 184.311 21.7685 183.797 22.055L182.381 22.8416V79.8007C182.385 81.1878 182.162 82.4881 181.716 83.6708C181.324 84.7291 180.724 85.7372 179.983 86.5888C179.6 87.0364 179.172 87.4485 178.684 87.8503C178.188 88.2567 177.755 88.5513 177.434 88.7682L177.352 88.8253C177.202 88.9257 177.091 89.0022 177.029 89.0479C171.905 92.7662 165.178 95.409 156.461 97.1272C150.322 98.3373 144.946 98.5953 141.516 98.5953Z" fill="#DFD4A6"/>
<path d="M159.465 12.3067V16.5981C159.465 16.9897 159.867 17.3139 160.052 17.4178C163.122 19.1473 163.756 19.5207 163.756 20.3301V72.9042C163.756 74.6714 163.088 75.1532 161.787 75.7936C158.44 77.4433 151.029 80.3978 140.081 80.3978C129.129 80.3978 121.72 77.4433 118.373 75.7936C117.075 75.152 116.401 74.6714 116.401 72.9042V20.3312C116.401 19.5287 117.025 19.1142 120.039 17.4189C120.246 17.3013 120.693 17.0662 120.693 16.5022V12.4038C120.693 11.8478 120.375 10.8523 119.44 10.8523H99.5346C98.6019 10.8523 98.2788 11.535 98.2788 12.4038V16.5992C98.2788 17.1118 98.8496 17.2739 99.1065 17.4189C101.963 19.0297 102.529 19.5435 102.529 20.3312V79.1865C102.529 82.576 103.601 83.543 104.81 84.4197C118.423 94.3062 140.079 93.2981 140.079 93.2981C140.079 93.2981 160.709 94.3062 174.321 84.4197C175.529 83.543 177.629 82.576 177.629 79.1865V20.3312C177.629 19.5172 178.456 19.1679 181.582 17.4189C181.756 17.3196 182.13 17.0901 182.13 16.5992V12.3079C182.13 11.7519 181.727 10.8009 180.794 10.8009H160.799C159.867 10.7998 159.465 11.7507 159.465 12.3067Z" fill="#8F141B"/>
<path d="M142.038 72.4748C139.24 72.4748 137.66 71.3846 136.812 70.7978L136.587 70.6391C136.065 70.2703 135.807 70.0922 135.282 70.1516C134.552 70.2315 134.399 70.687 134.399 71.0558V71.7853C134.399 71.9131 134.295 72.017 134.166 72.017H128.616C128.486 72.017 128.382 71.9131 128.382 71.7853V60.5437C128.382 60.4158 128.486 60.312 128.616 60.312H136.759C136.81 60.312 136.863 60.3313 136.904 60.3645C136.923 60.3816 138.894 61.981 139.515 62.4411L139.644 62.5404C139.953 62.779 140.423 63.1375 140.936 63.1375C141.32 63.1375 141.68 62.9468 142.039 62.5484C142.345 62.2162 142.488 61.8577 142.463 61.4833C142.439 61.0791 142.208 60.6716 141.82 60.3359L132.409 53.066C130.905 51.8845 128.382 49.3832 128.382 45.9103C128.382 37.629 134.755 35.4382 138.126 35.4382C140.924 35.4382 142.501 36.5308 143.352 37.1164L143.577 37.274C144.098 37.6404 144.35 37.8162 144.882 37.7603C145.612 37.6804 145.765 37.2237 145.765 36.855V36.1266C145.765 35.9976 145.87 35.8926 145.996 35.8926H151.549C151.677 35.8926 151.782 35.9976 151.782 36.1266V47.3659C151.782 47.4972 151.677 47.5988 151.549 47.5988H143.406C143.353 47.5988 143.302 47.5805 143.259 47.5474C143.239 47.5337 141.269 45.9298 140.647 45.472L140.515 45.3715C140.208 45.1352 139.741 44.7767 139.229 44.7767C138.843 44.7767 138.484 44.9674 138.123 45.3624C137.819 45.6957 137.676 46.0542 137.7 46.4286C137.724 46.8351 137.955 47.2392 138.343 47.5748L147.756 54.8459C150.429 57.0047 151.782 59.4089 151.782 62.0004C151.782 65.8682 150.494 68.7543 147.953 70.5854C145.524 72.3378 142.812 72.4748 142.038 72.4748Z" fill="#8F141B"/>
<path d="M142.038 75.0881C140.216 75.0881 138.527 74.7114 137.013 73.9648V74.2479C137.013 74.4625 136.839 74.6326 136.627 74.6326H126.15C125.94 74.6326 125.764 74.4625 125.764 74.2479V58.0836C125.764 57.8724 125.94 57.7001 126.15 57.7001H134.118C133.128 56.942 131.562 55.7387 130.681 55.0389C129.203 53.863 125.763 50.622 125.763 45.9139C125.763 40.0973 128.429 36.9282 130.662 35.29C133.782 33.0056 137.16 32.8286 138.124 32.8286C139.948 32.8286 141.633 33.2053 143.149 33.9554V33.6688C143.149 33.4565 143.32 33.2853 143.533 33.2853H154.011C154.223 33.2853 154.396 33.4565 154.396 33.6688V49.832C154.396 50.0466 154.223 50.2178 154.011 50.2178H146.035C146.914 50.896 148.292 51.96 149.477 52.8755C151.853 54.7158 154.398 58.0813 154.398 62.0028C154.398 67.9244 151.724 71.0936 149.481 72.7079C146.42 74.9158 143.01 75.0881 142.038 75.0881ZM136.627 72.9396C136.694 72.9396 136.758 72.9567 136.818 72.9898C138.382 73.8848 140.09 74.3187 142.038 74.3187C142.953 74.3187 146.156 74.1566 149.031 72.0822C151.129 70.5719 153.626 67.5968 153.626 62.0017C153.626 58.3599 151.238 55.2136 149.006 53.4852C147.092 52.0011 144.673 50.1345 144.673 50.1345C144.543 50.0352 144.491 49.8639 144.543 49.7064C144.598 49.5511 144.742 49.4461 144.909 49.4461H153.626V34.0524H143.922V34.5901C143.922 34.7306 143.849 34.855 143.728 34.9246C143.609 34.992 143.465 34.9943 143.344 34.9246C141.783 34.033 140.075 33.5969 138.125 33.5969C137.223 33.5969 134.051 33.7659 131.119 35.911C129.027 37.4396 126.534 40.4181 126.534 45.9116C126.534 50.2852 129.769 53.3276 131.161 54.4338C132.502 55.5024 135.458 57.7549 135.489 57.7788C135.62 57.877 135.67 58.0483 135.62 58.2058C135.565 58.3622 135.418 58.4672 135.255 58.4672H126.534V73.8609H136.241V73.322C136.241 73.1839 136.314 73.0595 136.432 72.9887C136.492 72.9567 136.56 72.9396 136.627 72.9396Z" fill="#8F141B"/>
<path d="M129.339 36.7502C126.3 34.9636 125.083 32.5342 124.596 30.8115C124.069 28.9415 124.261 27.5076 124.269 27.4482L124.773 27.519C124.767 27.5738 124.083 33.0651 129.599 36.3084L129.339 36.7502Z" fill="#8F141B"/>
<path d="M154.135 33.6814L153.719 33.3835C155.77 30.5054 155.312 27.4048 155.308 27.3739L155.816 27.3043C155.836 27.4345 156.307 30.639 154.135 33.6814Z" fill="#8F141B"/>
<path d="M139.957 33.1779C134.222 33.1779 130.307 31.6024 128.029 30.2804C125.554 28.8408 124.452 27.4115 124.406 27.3522L124.813 27.0416C124.858 27.0976 129.231 32.6653 139.957 32.6653C145.563 32.6653 149.383 31.1355 151.597 29.8535C153.999 28.463 155.089 27.0553 155.099 27.0416L155.508 27.3522C155.46 27.4127 154.358 28.842 151.882 30.2804C149.609 31.6024 145.693 33.1779 139.957 33.1779Z" fill="#8F141B"/>
<path d="M158.557 68.5593C158.557 68.1552 158.552 67.372 158.548 66.3023C158.541 63.7313 158.528 59.5941 158.524 55.047V54.7388C158.521 53.0183 158.518 50.2202 158.518 48.4518C159.986 47.6036 163.235 43.9573 158.351 30.9861C157.703 29.0933 156.955 28.0453 156.393 27.495C157.105 27.1548 157.682 26.503 158.028 25.9048C158.872 24.4515 159.149 22.5461 159.296 21.5221C159.33 21.3052 159.351 21.1339 159.376 21.0277C159.599 19.9626 159.318 19.4157 158.328 19.0093L157.058 18.4808V12.3023C157.058 11.0853 157.171 10.9848 157.543 10.6446C157.621 10.5693 157.715 10.4882 157.816 10.3844C158.214 9.98821 158.383 9.51443 158.293 9.04979C158.214 8.65479 157.912 8.09539 156.917 7.67185C149.405 4.39424 142.428 4.14197 140.467 4.14197C140.254 4.14197 140.134 4.14538 140.132 4.14538C140.114 4.14538 139.992 4.14197 139.778 4.14197C137.819 4.14197 130.844 4.39539 123.333 7.67185C122.332 8.09539 122.033 8.65479 121.957 9.04979C121.864 9.51557 122.033 9.98821 122.43 10.3844C122.522 10.4803 122.613 10.5602 122.691 10.6321C123.066 10.9792 123.165 11.0705 123.165 12.3023L123.167 18.4762C122.867 18.5949 122.346 18.8084 121.884 19.0128C120.897 19.4466 120.624 19.974 120.849 21.0277C120.871 21.1339 120.897 21.3052 120.928 21.5221C121.075 22.5461 121.353 24.4515 122.196 25.9048C122.655 26.6925 123.15 27.213 123.696 27.4927C123.046 28.1537 122.398 29.2771 121.796 30.816C117.77 41.5051 119.05 47.0157 121.655 48.4918C121.658 55.0561 121.673 62.7735 121.686 66.3103C121.687 67.3777 121.689 68.1563 121.691 68.5604C121.28 68.928 120.815 69.7591 120.679 70.5925C120.529 71.515 120.773 72.3255 121.384 72.9386C123.004 74.5574 133.686 76.7036 140.122 76.7036C146.559 76.7036 157.237 74.5574 158.86 72.9386C159.47 72.3255 159.717 71.515 159.569 70.5925C159.435 69.7603 158.965 68.9292 158.557 68.5593ZM158.037 19.7217C158.685 19.9889 158.771 20.1624 158.625 20.8713C158.599 20.9889 158.569 21.1762 158.536 21.4136C158.397 22.3874 158.131 24.1992 157.364 25.52C157.179 25.8408 156.901 26.1947 156.568 26.4744C156.35 26.6582 155.72 26.971 155.649 25.8305C155.601 25.0839 155.696 24.3419 155.972 23.6135C156.68 21.7515 156.98 20.5802 157.044 19.313L158.037 19.7217ZM149.442 15.8231C146.839 15.6941 145.185 17.0229 144.208 18.2924C143.453 18.8221 141.922 19.6898 140.033 19.6327C138.085 19.6327 136.544 18.6931 135.836 18.1702C134.846 16.9362 133.215 15.6998 130.693 15.8231C126.613 16.0137 124.929 19.1646 124.346 21.2971C124.133 20.4466 123.994 19.6258 123.942 18.8415L125.084 18.4545C125.176 18.4248 125.241 18.3358 125.242 18.2364L125.267 16.4315C126.048 16.1427 129.953 14.7648 135.835 14.0433C135.954 14.0273 136.037 13.9291 136.037 13.8126V13.1814H143.71V13.8126C143.71 13.9314 143.8 14.0318 143.918 14.0433C143.983 14.0512 150.255 14.7237 155.014 16.5229V18.2125C155.014 18.3084 155.071 18.3929 155.158 18.4294C155.176 18.434 155.533 18.5801 156.288 18.8347C156.281 19.7035 156.176 20.4672 155.907 21.4204C155.325 19.3233 153.629 16.016 149.442 15.8231ZM153.304 18.2604C153.079 18.6394 151.773 20.5734 149.017 20.1635C147.851 19.9889 147.051 19.3438 146.578 18.7136C146.06 18.0332 146.22 17.4236 146.374 17.3311C147.161 16.8517 148.159 16.5331 149.404 16.5891C151.149 16.6736 152.407 17.3597 153.304 18.2604ZM143.219 20.538C143.238 20.5448 145.044 21.159 146.495 22.9422C146.611 23.1089 146.243 23.4343 145.982 23.3658C145.389 23.2105 144.087 22.9285 143.258 24.0119C143.251 24.0222 143.241 24.029 143.235 24.0382C143.154 24.1227 142.149 25.1364 140.139 25.1364C138.095 25.1364 136.982 24.0759 136.925 24.0188C135.758 22.9662 134.643 23.2745 133.979 23.3681C133.659 23.4149 133.315 23.182 133.498 22.9171C134.958 21.1567 136.884 20.5482 136.905 20.5414C137.088 20.4649 137.185 20.2617 137.127 20.0711C137.118 20.0551 136.939 19.8952 136.51 19.1566C137.38 19.6304 138.592 20.095 140.024 20.095C140.091 20.0962 140.15 20.0961 140.218 20.0961C141.583 20.0961 142.746 19.6669 143.589 19.2171C143.185 19.9249 143.011 20.0551 143.005 20.0711C142.95 20.2583 143.042 20.4581 143.219 20.538ZM133.73 18.5744C133.257 19.2354 132.444 19.9775 131.19 20.1647C128.371 20.5814 127.07 18.5504 126.883 18.2364C127.766 17.346 129.007 16.6713 130.725 16.5914C131.965 16.5354 132.942 16.8642 133.737 17.3174C134.014 17.4727 134.119 18.0298 133.73 18.5744ZM123.932 12.1641C124.969 11.7897 129.056 10.3513 132.295 9.80898C132.319 9.82382 132.35 9.84209 132.382 9.86263C134.715 11.2897 137.309 12.01 140.091 12.01C142.87 12.01 145.462 11.2897 147.795 9.86263C147.83 9.84209 147.86 9.82268 147.884 9.80898C151.124 10.3513 155.246 11.7897 156.288 12.1641C156.288 12.2109 156.287 12.2578 156.287 12.3057V18.3438C155.897 18.2114 155.626 18.112 155.478 18.0561V16.363C155.478 16.2672 155.42 16.1804 155.328 16.145C150.989 14.4725 145.323 13.7419 144.175 13.6049V12.9507C144.175 12.8206 144.072 12.7167 143.943 12.7167H135.804C135.677 12.7167 135.575 12.8206 135.575 12.9507V13.6083C129.065 14.4303 124.99 16.0388 124.947 16.0559C124.861 16.0913 124.803 16.1747 124.8 16.2694L124.777 18.0686L123.932 18.3552V12.3046C123.935 12.2566 123.932 12.2109 123.932 12.1641ZM122.975 9.84438C122.852 9.72108 122.656 9.47562 122.71 9.19821C122.77 8.89682 123.096 8.61026 123.64 8.37965C131.206 5.07807 138.413 4.9114 139.779 4.9114C139.994 4.9114 140.106 4.9137 140.137 4.9137C140.14 4.9137 140.255 4.9114 140.467 4.9114C141.835 4.9114 149.044 5.07809 156.613 8.38195C157.15 8.61028 157.481 8.89796 157.538 9.19821C157.592 9.47562 157.398 9.72108 157.275 9.84438C157.184 9.93571 157.1 10.011 157.024 10.0795C156.619 10.4494 156.417 10.6994 156.334 11.3627C154.982 10.8855 151.009 9.53158 147.884 9.02812C147.861 9.02584 147.841 9.02582 147.821 9.02582C147.695 9.02582 147.618 9.06919 147.396 9.20619C145.185 10.559 142.726 11.2429 140.093 11.2429C137.455 11.2429 134.997 10.559 132.785 9.20619C132.528 9.0475 132.443 9.00757 132.298 9.02812C129.176 9.53158 125.236 10.881 123.896 11.3627C123.815 10.6903 123.612 10.4369 123.212 10.0693C123.141 10.0031 123.061 9.93114 122.975 9.84438ZM123.275 26.1377C123.134 25.9607 122.997 25.7552 122.86 25.5189C122.093 24.198 121.828 22.3863 121.688 21.4125C121.656 21.175 121.624 20.9878 121.601 20.8679C121.454 20.1704 121.537 20.0105 122.196 19.7183C122.538 19.5653 122.919 19.41 123.211 19.2902C123.344 20.6635 123.704 22.1146 124.276 23.6124C124.52 24.254 124.549 25.02 124.462 25.8488C124.362 26.7769 123.582 26.5235 123.275 26.1377ZM158.316 72.3951C157.09 73.6258 147.016 75.933 140.123 75.933C136.101 75.933 130.994 75.1476 127.195 74.2469H126.038V73.958C123.915 73.4032 122.367 72.8289 121.93 72.3951C121.509 71.9727 121.342 71.4316 121.43 70.7843C121.545 69.9144 122.084 69.1895 122.247 69.097C122.252 69.0936 122.255 69.089 122.261 69.089C122.801 69.3185 124.109 69.8425 126.039 70.4121V69.9247C124.226 69.3847 122.983 68.8892 122.462 68.6666C122.462 68.3093 122.46 67.4884 122.455 66.3057C122.448 64.2394 122.439 61.0896 122.432 57.5186C123.101 57.6602 124.523 57.9673 126.038 58.2516V58.0826L127.759 57.9821C125.663 57.6248 123.254 57.2218 122.432 57.0426C122.432 56.4181 122.43 55.7845 122.43 55.1383C123.018 55.2959 127.13 56.3667 133.028 56.941C133.549 57.344 134.072 57.7458 134.516 58.0826H135.142C135.142 58.0826 132.678 56.2046 131.209 55.0527C131.09 55.2194 131.12 55.4477 131.279 55.5756C131.571 55.8073 131.939 56.095 132.334 56.4044C126.453 55.7731 122.534 54.684 122.481 54.6691C122.464 54.6669 122.449 54.668 122.431 54.6668C122.431 53.072 122.427 51.4235 122.427 49.7876C122.917 49.3811 124.939 49.1711 126.809 49.1711C126.929 49.1711 127.031 49.2567 127.1 49.1711C126.998 48.9656 126.902 48.8217 126.812 48.6071L126.809 48.4016C124.534 48.4016 123.662 48.5226 122.19 47.9016C120.901 47.3582 119.923 45.6263 120.023 41.5142C120.073 39.5689 120.646 37.1623 120.646 37.1623C121.053 35.3859 121.657 33.3721 122.514 31.0957C123.23 29.2714 123.868 28.4038 124.287 27.9893L124.914 27.2804C125.275 25.6444 125.415 24.4469 124.993 23.3384C124.945 23.206 124.898 23.0724 124.851 22.9411C124.851 22.2082 125.237 20.1167 126.615 18.5287C126.936 19.023 128.162 20.6076 130.46 20.6076C130.714 20.6076 130.976 20.5894 131.248 20.5471C133.314 20.2412 134.256 18.6155 134.565 17.9259C135.539 18.8004 136.066 19.4614 136.278 19.9854C135.582 20.3302 133.95 21.0506 132.694 22.6888V22.6911C132.692 22.6922 132.692 22.6922 132.692 22.6922C132.681 22.7048 132.411 23.126 132.665 23.4206V23.4228V23.4251C132.748 23.577 133.511 24.4446 136.507 24.6592C137.003 25.1102 138.264 25.9048 140.141 25.9048C142.04 25.9048 143.234 25.109 143.689 24.6592C146.724 24.4343 147.245 23.4948 147.332 23.3726C147.51 23.1261 147.361 22.7995 147.282 22.6922C146.032 21.062 144.509 20.3416 143.855 19.9946C144.067 19.4648 144.607 18.7685 145.622 17.8814C145.914 18.5413 146.846 20.2332 148.958 20.546C149.235 20.5882 149.498 20.6065 149.747 20.6065C152.013 20.6065 153.234 19.0664 153.58 18.5515C155.009 20.1829 155.397 22.3281 155.397 22.94L155.401 22.9445C155.354 23.0724 155.308 23.2025 155.254 23.3372C154.761 24.6284 154.802 26.0612 155.163 27.2793L156.382 28.6743C156.764 29.2166 157.21 30.0329 157.626 31.2475C158.601 33.8447 159.243 36.096 159.66 38.0277C159.973 39.4718 160.153 41.7676 160.153 41.7676C160.286 45.1685 159.285 47.2999 157.998 47.8548C156.63 48.4461 155.474 48.421 153.939 48.421C153.922 48.421 153.91 48.4267 153.895 48.4279V48.6014H153.855C153.855 48.8138 153.587 48.9838 153.8 48.9838C155.108 48.9838 156.444 48.9564 157.746 49.7864C157.746 51.5023 157.748 53.1553 157.751 54.8198C155.881 55.3233 153.813 55.7023 151.815 55.9877C151.912 56.1236 152.007 56.2674 152.103 56.4147C153.802 56.1578 155.505 55.8256 157.035 55.4797C157.626 55.345 157.752 55.6098 157.752 56.2891C157.752 56.9649 157.643 57.0483 157.115 57.1567C156.155 57.3577 154.53 57.6921 152.97 57.9673C153.035 58.1123 153.104 58.2584 153.164 58.4068C155.059 58.0677 157.012 57.6567 157.754 57.4992C157.762 61.0588 157.775 64.2051 157.779 66.3046C157.779 67.4804 157.783 68.307 157.783 68.6643C156.988 68.9954 154.547 69.9407 150.961 70.7307C150.781 70.9407 150.595 71.1428 150.407 71.3255C154.409 70.4978 157.138 69.4395 157.981 69.0844C157.987 69.089 157.99 69.0924 157.997 69.097C158.163 69.1883 158.699 69.9144 158.818 70.7843C158.906 71.4328 158.737 71.9727 158.316 72.3951ZM146.288 26.6868C146.22 26.6868 146.159 26.6936 146.107 26.7039C144.051 27.1217 140.371 27.1331 139.964 27.1331C139.557 27.1331 135.878 27.1217 133.821 26.7039C133.765 26.6948 133.705 26.6868 133.64 26.6868C133.045 26.6868 132.251 27.1685 131.955 28.0659C131.776 28.591 131.894 29.2155 132.269 29.7349C132.606 30.203 133.071 30.4792 133.513 30.4792H139.963H146.411C146.856 30.4792 147.316 30.2018 147.655 29.7349C148.03 29.2143 148.147 28.591 147.974 28.0659C147.675 27.1697 146.881 26.6868 146.288 26.6868ZM145.742 27.4779C145.915 27.4505 146.083 27.4105 146.243 27.3888C146.515 27.3512 146.924 27.495 147.069 27.8295C147.097 27.8992 147.075 28.0636 146.676 28.1503C146.393 28.2108 146.01 28.2634 145.527 28.3216L145.742 27.4779ZM136.397 27.7108C138.062 27.8238 139.964 27.8295 139.964 27.8295C139.964 27.8295 141.864 27.8238 143.528 27.7108L143.871 28.4677C142.705 28.5545 141.316 28.599 139.964 28.599C138.611 28.599 137.223 28.5545 136.055 28.4677L136.397 27.7108ZM132.86 27.8295C133.006 27.495 133.411 27.3512 133.684 27.3888C133.845 27.4105 134.012 27.4505 134.185 27.4779L134.4 28.3216C133.916 28.2634 133.536 28.2108 133.249 28.1503C132.854 28.0624 132.829 27.8992 132.86 27.8295ZM133.514 29.784C133.306 29.784 133.032 29.6002 132.838 29.3262C132.719 29.1652 132.644 28.9906 132.604 28.8216C132.545 28.5659 132.739 28.4882 133.051 28.5408C133.396 28.599 133.871 28.6857 134.513 28.7577L134.772 29.784H133.514ZM135.028 29.0967C134.952 28.8079 134.637 27.543 134.637 27.543C135.057 27.5955 135.503 27.6412 135.95 27.6777C135.95 27.6777 135.408 28.8878 135.311 29.0967C135.202 29.333 135.107 29.4004 135.028 29.0967ZM139.964 29.784H135.465L135.873 28.8775L135.877 28.8798C137.091 28.9734 138.546 29.0191 139.964 29.0191C141.382 29.0191 142.834 28.9734 144.051 28.8798V28.8775L144.461 29.784H139.964ZM144.616 29.0967C144.52 28.8867 143.976 27.6777 143.976 27.6777C144.425 27.6412 144.872 27.5955 145.291 27.543C145.291 27.543 144.976 28.8079 144.903 29.0967C144.823 29.4004 144.724 29.333 144.616 29.0967ZM147.089 29.3262C146.895 29.6002 146.621 29.784 146.413 29.784H145.156L145.417 28.7577C146.056 28.6857 146.534 28.599 146.876 28.5408C147.187 28.4882 147.385 28.5659 147.323 28.8216C147.284 28.9906 147.209 29.1652 147.089 29.3262Z" fill="#8F141B"/>
</svg>
