<svg width="280" height="159" fill="none" xmlns="http://www.w3.org/2000/svg"><path d="m90.33 115.424-.018 3.082c0 .468-.016.919-.045 1.324-.095 1.387-.579 2.322-1.528 2.975-.779.53-1.809.81-3.037.81-.871 0-1.651-.125-2.335-.404-.483-.189-.936-.437-1.263-.81-.638-.702-.872-1.59-.856-3.148l.03-3.845c.015-1.418-.093-2.274-.312-2.944l.392.017h1.012l.499-.017-.093 1.138c-.018.265-.018.826-.03 1.683l-.035 3.347c-.014 1.434.066 1.884.312 2.462.406.919 1.497 1.495 2.787 1.495.764 0 1.45-.173 1.996-.483.437-.265.78-.639.966-1.06.264-.624.328-1.277.342-2.818l.017-2.803c.017-1.418-.094-2.275-.312-2.945l.405.016h.871l.44-.016c-.174 1.107-.206 1.431-.206 2.944ZM104.299 113.164a9.448 9.448 0 0 0-.078 1.136c0 .313-.015.936-.015 1.871l-.017 4.391c0 .249 0 .561.017.95.048.811.063 1.106.139 1.978h-.589l-.639.015c-.592-.902-.839-1.246-1.356-1.899l-4.594-5.809-1.246-1.618.033.794-.017 5.202c0 1.292.125 2.461.358 3.147l-.405-.032h-.888l-.45.032c.063-.313.093-.545.107-.702a8.29 8.29 0 0 0 .094-1.122v-1.34l.017-4.75c0-1.418-.077-2.259-.297-2.928l.809.032 1.389-.048c.544.936.778 1.279 1.385 2.056l4.127 5.311.873 1.107-.048-1.107.015-3.674c0-1.558-.139-2.943-.387-3.677l.372.017h.952l.451-.017a6.71 6.71 0 0 0-.112.684ZM110.158 123.288h-1.136l-.437.03.092-.699c.093-.671.111-.827.111-2.26l.016-4.954c0-1.385-.095-2.273-.311-2.943l.389.017h1.012l.498-.017-.092 1.138c-.016.265-.031.825-.031 1.682l-.018 5.094c0 1.416.096 2.272.313 2.942l-.406-.03ZM123.283 113.275l-.424.887-.433.965-2.634 6.339c-.466 1.121-.528 1.31-.685 2.088l-.327-.032h-.685l-.391.032c-.093-.576-.123-.748-.403-1.494l-2.537-6.869c-.531-1.448-.919-2.181-1.247-2.711l.39.017h1.231l.544-.034c.03.281.044.499.074.64.066.39.267 1.029.595 1.962l1.712 5 .545 1.713.732-1.854 1.681-4.392c.422-1.091.622-1.838.622-2.429 0-.218-.015-.344-.106-.623l.495.017h1.169l.45-.034.031.063c-.184.328-.325.577-.399.749ZM133.182 122.214l-.14.606-.109.561c-.283-.015-.485-.031-.61-.031-.062 0-.684-.015-1.881-.03l-2.089-.031-1.543.031.095-.7c.093-.687.109-.825.109-2.26l.016-4.953c0-1.418-.077-2.258-.297-2.928l.826.014h2.164c1.762 0 1.933-.014 2.976-.045l-.204.499-.203.637-.108.39-.189.031c-.278-.312-.419-.406-.791-.516-.423-.124-.935-.186-1.513-.186-.248 0-.667.016-1.135.045l-.065 1.884v1.854h2.055c.657 0 .936-.03 1.682-.093l.142.124-.22.483-.203.531a7.468 7.468 0 0 0-.699-.048c-.53-.03-1.028-.047-1.527-.047-.42 0-.624 0-1.247.033v2.335c0 .187.016.421.031.716.031.56.094.794.28.996.25.248.607.327 1.513.327.574 0 1.025-.03 1.448-.109.2-.031.419-.093.622-.187.279-.125.435-.234.747-.53l.203.094-.136.503ZM145.18 123.318l-.404.017-1.183.031-.656.045-.183-.279-.206-.357c-.076-.155-.201-.344-.342-.578-.656-1.059-1.341-2.04-2.166-3.192-.699-.981-.995-1.231-1.369-1.619.746-.016 1.214-.048 1.603-.204.748-.28 1.201-1.105 1.201-2.009 0-1.199-.781-1.979-2.088-1.979-.28 0-.531.017-1.106.094-.033.656-.047.812-.047 1.994l-.015 5.094c0 1.418.094 2.274.31 2.942l-.403-.029h-1.138l-.438.029c.172-1.105.204-1.479.204-2.958l.017-4.953c0-1.418-.078-2.258-.299-2.928l.812.031 1.48-.047c.404-.016.764-.016 1.104-.016 1.325 0 1.809.125 2.338.544.513.422.795 1.121.795 1.884 0 .654-.219 1.34-.626 1.775-.341.361-.777.656-1.524 1.043l.357.483 1.479 2.119c.685.997 1.371 1.853 1.839 2.335.249.25.359.344.669.578l-.015.11ZM150.201 123.677c-.189 0-.39-.015-.608-.03-.64-.063-.936-.125-1.699-.405l.171-.545.186-.716.096-.389.216-.047c.283.436.423.608.716.795.392.264.936.42 1.404.42 1.261 0 2.194-.841 2.194-1.947 0-.436-.141-.856-.404-1.183-.326-.405-.748-.716-1.698-1.23-1.417-.762-1.621-.902-2.04-1.324a2.678 2.678 0 0 1-.732-1.869c0-1.854 1.466-3.1 3.677-3.1.186 0 .372.017.56.032.606.046.933.125 1.73.39l-.174.435-.232.731-.078.327-.202.03c-.561-.763-1.122-1.042-2.041-1.042-1.154 0-1.916.669-1.916 1.665 0 .469.186.889.531 1.201.357.313.73.56 1.744 1.106 1.276.687 1.665.966 2.087 1.495.375.483.56 1.076.56 1.714 0 2.023-1.681 3.486-4.048 3.486ZM159.312 123.288h-1.136l-.438.03.093-.699c.094-.671.111-.827.111-2.26l.018-4.954c0-1.385-.096-2.273-.314-2.943l.389.017h1.013l.498-.017-.093 1.138c-.015.265-.031.825-.031 1.682l-.017 5.094c0 1.416.097 2.272.312 2.942l-.405-.03ZM171.779 122.025c-1.135.922-2.46 1.311-4.452 1.311-.374 0-1.013-.048-1.949-.048h-1.136l-.437.031.094-.7c.092-.67.109-.827.109-2.26l.018-4.89c0-1.419-.093-2.321-.313-2.991.468.017.204.017 1.418.017.64 0 1.665-.017 2.305-.017.542 0 1.013 0 1.402.017 1.277.029 2.057.186 2.742.543 1.448.762 2.305 2.415 2.305 4.393 0 1.853-.748 3.52-2.106 4.594Zm-.637-7.506c-.778-.871-1.743-1.2-3.628-1.2-.498 0-.997.034-1.977.079l-.049 1.884-.014 5.061c0 .203.014.454.031.718.031.561.093.795.278.997a.913.913 0 0 0 .391.233c.327.092.903.14 1.478.14 2.851 0 4.581-1.729 4.581-4.61 0-1.338-.389-2.507-1.091-3.302ZM185.4 123.288h-.997l-.685.047-.107-.656c-.095-.498-.251-.98-.563-1.882l-.528-1.542-.952-.033h-1.851l-1.091.033-.529 1.417c-.296.81-.454 1.463-.454 1.931 0 .234.017.389.11.716l-.484-.031h-1.074l-.419.031-.063-.094.373-.702a24.133 24.133 0 0 0 .859-1.852l2.583-6.356c.375-.902.453-1.167.653-1.947l.328-.045.686-.111.342-.062c.156.654.219.902.485 1.588l2.584 6.87c.202.56.529 1.292.904 2.039.138.28.2.39.372.669l-.482-.028Zm-4.75-9.407-1.695 4.47.919.032h1.51l.808-.032-1.542-4.47ZM196.999 122.025c-1.139.922-2.46 1.311-4.454 1.311-.374 0-1.012-.048-1.948-.048h-1.135l-.439.031.095-.7c.093-.67.11-.827.11-2.26l.015-4.89c0-1.419-.093-2.321-.31-2.991.467.017.204.017 1.414.017.64 0 1.669-.017 2.308-.017.543 0 1.012 0 1.4.017 1.276.029 2.056.186 2.742.543 1.448.762 2.304 2.415 2.304 4.393-.001 1.853-.747 3.52-2.102 4.594Zm-.638-7.506c-.78-.871-1.746-1.2-3.631-1.2-.498 0-.996.034-1.978.079l-.047 1.884-.015 5.061c0 .203.015.454.033.718.028.561.092.795.279.997a.895.895 0 0 0 .389.233c.326.092.904.14 1.48.14 2.85 0 4.579-1.729 4.579-4.61 0-1.338-.39-2.507-1.089-3.302ZM1.76 153.332c1.42.947 3.112 1.658 5.073 1.658 1.726 0 3.45-.608 3.45-2.3 0-4.024-9.538-3.516-9.538-10.349 0-3.349 2.671-6.359 7.475-6.359 2.369 0 4.364.541 5.647 1.184v4.16c-1.927-.946-3.721-1.456-5.51-1.456-1.423 0-2.673.51-2.673 2.064 0 3.789 9.537 3.249 9.537 10.35 0 4.059-3.55 6.562-8.218 6.562-2.606 0-5.21-.71-7.003-2.03l1.76-3.484ZM20.479 154.685c-.644-1.218-.982-2.773-.982-4.601v-13.867h4.633v13.598c0 1.15.236 2.164.643 2.942.78 1.455 2.265 2.233 4.33 2.233 2.028 0 3.518-.778 4.296-2.233.44-.778.641-1.792.641-2.975v-13.565h4.635v13.867c0 1.827-.34 3.381-.98 4.601-1.456 2.84-4.5 4.16-8.626 4.16-4.126 0-7.136-1.32-8.59-4.16ZM44.259 136.217h6.66c2 0 3.486.305 4.67.845 2.57 1.116 3.55 3.248 3.55 5.616 0 2.907-1.824 4.937-4.329 5.716v.068c.676.373 1.66 1.589 2.84 3.653l3.62 6.392h-5.31l-2.94-5.343c-1.116-2.098-1.897-2.943-2.437-3.079h-1.69v8.422H44.26v-22.29h-.001Zm6.356 10.113c1.014 0 1.657-.167 2.234-.473.878-.542 1.488-1.455 1.488-2.705 0-1.184-.542-2.2-1.522-2.708-.506-.303-1.15-.473-2.165-.473h-1.758v6.358h1.723v.001ZM82.208 157.019c-2.604 1.423-5.108 1.826-7.407 1.826-7.476 0-11.467-4.734-11.467-11.263 0-6.393 4.67-11.6 12.04-11.6 2.472 0 4.5.439 5.954 1.084v4.26a12.268 12.268 0 0 0-5.85-1.453c-4.87 0-7.205 3.551-7.205 7.643 0 4.398 2.741 7.474 7.102 7.474 2.268 0 3.927-.677 5.55-1.622l1.283 3.651ZM84.608 147.412c0-6.763 4.666-11.43 11.363-11.43 6.697 0 11.366 4.699 11.366 11.43 0 6.833-4.702 11.433-11.366 11.433-6.697 0-11.363-4.633-11.363-11.433Zm17.79 0c0-4.837-2.571-7.543-6.427-7.543-3.82 0-6.426 2.672-6.426 7.543 0 4.906 2.605 7.576 6.426 7.576 3.823.001 6.427-2.67 6.427-7.576ZM111.956 136.217h4.634v18.368h7.779v3.921h-12.413v-22.289ZM126.3 147.412c0-6.763 4.667-11.43 11.364-11.43 6.696 0 11.365 4.699 11.365 11.43 0 6.833-4.702 11.433-11.365 11.433-6.697 0-11.364-4.633-11.364-11.433Zm17.79 0c0-4.837-2.57-7.543-6.426-7.543-3.821 0-6.427 2.672-6.427 7.543 0 4.906 2.606 7.576 6.427 7.576 3.823.001 6.426-2.67 6.426-7.576ZM153.65 136.217h4.193l5.714 8.084a33.564 33.564 0 0 1 1.795 2.773h.068c.44-.846 1.014-1.793 1.723-2.908l5.176-7.949h4.226v22.289h-4.633v-11.971c0-.881 0-1.896.033-2.672h-.033c-.27.576-1.151 1.86-1.524 2.433l-3.989 6.157h-2.097l-4.498-6.357c-.476-.643-1.015-1.353-1.488-2.199h-.068c.032.778.032 1.793.032 2.503v12.107h-4.633v-22.29h.003ZM182.292 136.218h7.002c4.837 0 7.001 2.807 7.001 5.647 0 1.826-.913 3.619-2.64 4.499v.068c2.674.711 4.163 2.875 4.163 5.379 0 3.381-2.639 6.697-7.915 6.697h-7.61v-22.29h-.001Zm6.393 9.097c2.03 0 3.08-1.151 3.08-2.604 0-1.522-1.016-2.707-3.181-2.707h-1.659v5.31h1.76v.001Zm.609 9.403c2.572 0 3.854-.878 3.854-2.907 0-1.726-1.284-2.708-3.417-2.708h-2.808v5.615h2.371ZM206.935 136.216h-4.633v22.289h4.633v-22.289ZM218.751 136.115h3.753l9.099 22.393h-4.973l-2.163-5.447h-7.576l-2.063 5.447h-4.77l8.693-22.393Zm4.329 13.226-1.319-3.754a55.92 55.92 0 0 1-1.014-3.315h-.07c-.169.778-.507 1.725-1.116 3.347l-1.35 3.722h4.869ZM251.016 158.508l-9.334-12.211c-.814-1.081-1.524-2.097-2.3-3.078h-.068c.101.813.101 2.199.101 3.281v12.008h-4.633v-22.29h4.633l8.961 11.737a57.305 57.305 0 0 1 2.269 3.076h.067c-.067-1.183-.067-2.67-.067-3.72v-11.093h4.633v22.29h-4.262ZM267.148 136.115h3.753L280 158.508h-4.974l-2.162-5.447h-7.577l-2.063 5.447h-4.769l8.693-22.393Zm4.329 13.226-1.319-3.754a56.14 56.14 0 0 1-1.015-3.315h-.069c-.168.778-.507 1.725-1.117 3.347l-1.351 3.722h4.871ZM141.516 98.595a50.89 50.89 0 0 1-1.504-.02c-.291.009-.791.02-1.481.02a78.87 78.87 0 0 1-14.948-1.468c-8.717-1.718-15.443-4.36-20.568-8.08-.063-.045-.176-.121-.323-.222l-.083-.057c-.315-.216-.753-.51-1.246-.918a10.32 10.32 0 0 1-1.302-1.261 9.519 9.519 0 0 1-1.73-2.918c-.449-1.182-.67-2.483-.67-3.87V22.84l-1.413-.786a6.242 6.242 0 0 1-1.38-1.041 5.753 5.753 0 0 1-1.704-4.109v-6.342c-.001-1.037.306-4.42 4.257-4.42h20.548C118.967 5.523 128.19 0 139.787 0h.469c11.596 0 20.82 5.522 21.819 6.143h20.547c3.956 0 4.259 3.383 4.259 4.42v6.342a5.788 5.788 0 0 1-1.704 4.111c-.4.4-.866.753-1.38 1.039l-1.416.787V79.8c.004 1.387-.219 2.687-.665 3.87a9.541 9.541 0 0 1-1.733 2.918c-.383.447-.811.86-1.299 1.261-.496.407-.929.701-1.25.918l-.082.057c-.15.1-.261.177-.323.223-5.124 3.718-11.851 6.361-20.568 8.08a78.616 78.616 0 0 1-14.945 1.467Z" fill="#DFD4A6"/><path d="M159.465 12.307v4.291c0 .392.402.716.587.82 3.07 1.73 3.704 2.103 3.704 2.912v52.574c0 1.767-.668 2.25-1.969 2.89-3.347 1.65-10.758 4.604-21.706 4.604-10.952 0-18.361-2.955-21.708-4.604-1.298-.642-1.972-1.123-1.972-2.89V20.331c0-.802.624-1.217 3.638-2.912.207-.118.654-.353.654-.917v-4.098c0-.556-.318-1.552-1.253-1.552H99.535c-.933 0-1.256.683-1.256 1.552v4.195c0 .513.57.675.828.82 2.856 1.61 3.422 2.125 3.422 2.912v58.855c0 3.39 1.072 4.357 2.281 5.234 13.613 9.886 35.269 8.878 35.269 8.878s20.63 1.008 34.242-8.878c1.208-.877 3.308-1.844 3.308-5.234V20.331c0-.814.827-1.163 3.953-2.912.174-.1.548-.329.548-.82v-4.291c0-.556-.403-1.507-1.336-1.507h-19.995c-.932-.001-1.334.95-1.334 1.506Z" fill="#8F141B"/><path d="M142.038 72.475c-2.798 0-4.378-1.09-5.226-1.677l-.225-.159c-.522-.369-.78-.547-1.305-.487-.73.08-.883.535-.883.904v.73a.232.232 0 0 1-.233.231h-5.55a.232.232 0 0 1-.234-.232V60.544c0-.128.104-.232.234-.232h8.143c.051 0 .104.02.145.053.019.017 1.99 1.616 2.611 2.076l.129.1c.309.238.779.597 1.292.597.384 0 .744-.191 1.103-.59.306-.332.449-.69.424-1.065-.024-.404-.255-.811-.643-1.147l-9.411-7.27c-1.504-1.181-4.027-3.683-4.027-7.156 0-8.281 6.373-10.472 9.744-10.472 2.798 0 4.375 1.093 5.226 1.678l.225.158c.521.366.773.542 1.305.486.73-.08.883-.536.883-.905v-.728c0-.13.105-.234.231-.234h5.553c.128 0 .233.105.233.234v11.239a.232.232 0 0 1-.233.233h-8.143a.24.24 0 0 1-.147-.052c-.02-.013-1.99-1.617-2.612-2.075l-.132-.1c-.307-.237-.774-.595-1.286-.595-.386 0-.745.19-1.106.585-.304.334-.447.692-.423 1.067.024.406.255.81.643 1.146l9.413 7.27c2.673 2.16 4.026 4.564 4.026 7.155 0 3.868-1.288 6.754-3.829 8.585-2.429 1.753-5.141 1.89-5.915 1.89Z" fill="#8F141B"/><path d="M142.038 75.088c-1.822 0-3.511-.377-5.025-1.123v.283a.385.385 0 0 1-.386.385H126.15a.386.386 0 0 1-.386-.385V58.084c0-.212.176-.384.386-.384h7.968c-.99-.758-2.556-1.961-3.437-2.661-1.478-1.176-4.918-4.417-4.918-9.125 0-5.817 2.666-8.986 4.899-10.624 3.12-2.284 6.498-2.461 7.462-2.461 1.824 0 3.509.376 5.025 1.126v-.286c0-.212.171-.384.384-.384h10.478c.212 0 .385.172.385.384v16.163a.385.385 0 0 1-.385.386h-7.976l3.442 2.657c2.376 1.84 4.921 5.206 4.921 9.128 0 5.921-2.674 9.09-4.917 10.705-3.061 2.208-6.471 2.38-7.443 2.38Zm-5.411-2.148c.067 0 .131.017.191.05 1.564.895 3.272 1.329 5.22 1.329.915 0 4.118-.162 6.993-2.237 2.098-1.51 4.595-4.485 4.595-10.08 0-3.642-2.388-6.788-4.62-8.517-1.914-1.484-4.333-3.35-4.333-3.35a.385.385 0 0 1 .236-.689h8.717V34.052h-9.704v.538a.384.384 0 0 1-.578.334c-1.561-.891-3.269-1.327-5.219-1.327-.902 0-4.074.169-7.006 2.314-2.092 1.529-4.585 4.507-4.585 10 0 4.374 3.235 7.417 4.627 8.523 1.341 1.068 4.297 3.32 4.328 3.345.131.098.181.27.131.427a.39.39 0 0 1-.365.261h-8.721v15.394h9.707v-.539c0-.138.073-.263.191-.333a.418.418 0 0 1 .195-.05Z" fill="#8F141B"/><path d="M129.339 36.75c-3.039-1.786-4.256-4.216-4.743-5.939-.527-1.87-.335-3.303-.327-3.363l.504.071c-.006.055-.69 5.546 4.826 8.79l-.26.441ZM154.135 33.681l-.416-.297c2.051-2.879 1.593-5.98 1.589-6.01l.508-.07c.02.13.491 3.335-1.681 6.377Z" fill="#8F141B"/><path d="M139.957 33.178c-5.735 0-9.65-1.576-11.928-2.898-2.475-1.44-3.577-2.869-3.623-2.928l.407-.31c.045.056 4.418 5.623 15.144 5.623 5.606 0 9.426-1.53 11.64-2.811 2.402-1.391 3.492-2.799 3.502-2.812l.409.31c-.048.06-1.15 1.49-3.626 2.928-2.273 1.322-6.189 2.898-11.925 2.898Z" fill="#8F141B"/><path d="M158.557 68.56c0-.405-.005-1.188-.009-2.258-.007-2.57-.02-6.708-.024-11.255v-.308c-.003-1.72-.006-4.519-.006-6.287 1.468-.848 4.717-4.495-.167-17.466-.648-1.893-1.396-2.94-1.958-3.491.712-.34 1.289-.992 1.635-1.59.844-1.454 1.121-3.359 1.268-4.383.034-.217.055-.388.08-.494.223-1.065-.058-1.612-1.048-2.019l-1.27-.528v-6.179c0-1.217.113-1.317.485-1.657.078-.076.172-.157.273-.26.398-.397.567-.87.477-1.335-.079-.395-.381-.955-1.376-1.378-7.512-3.278-14.489-3.53-16.45-3.53-.213 0-.333.003-.335.003-.018 0-.14-.003-.354-.003-1.959 0-8.934.253-16.445 3.53-1.001.423-1.3.983-1.376 1.378-.093.466.076.938.473 1.334.092.096.183.176.261.248.375.347.474.438.474 1.67l.002 6.174c-.3.119-.821.332-1.283.537-.987.434-1.26.961-1.035 2.015.022.106.048.277.079.494.147 1.024.425 2.93 1.268 4.383.459.787.954 1.308 1.5 1.588-.65.66-1.298 1.784-1.9 3.323-4.026 10.69-2.746 16.2-.141 17.676a6819.546 6819.546 0 0 0 .036 20.068c-.411.368-.876 1.2-1.012 2.032-.15.923.094 1.734.705 2.347 1.62 1.618 12.302 3.765 18.738 3.765 6.437 0 17.115-2.147 18.738-3.765.61-.613.857-1.424.709-2.346-.134-.833-.604-1.664-1.012-2.034Zm-.52-48.838c.648.267.734.44.588 1.15a7.846 7.846 0 0 0-.089.542c-.139.973-.405 2.785-1.172 4.106-.185.32-.463.675-.796.954-.218.184-.848.497-.919-.643a5.236 5.236 0 0 1 .323-2.218c.708-1.861 1.008-3.033 1.072-4.3l.993.409Zm-8.595-3.899c-2.603-.129-4.257 1.2-5.234 2.47-.755.53-2.286 1.397-4.175 1.34-1.948 0-3.489-.94-4.197-1.463-.99-1.234-2.621-2.47-5.143-2.347-4.08.19-5.764 3.342-6.347 5.474a13.955 13.955 0 0 1-.404-2.456l1.142-.387a.232.232 0 0 0 .158-.218l.025-1.805c.781-.288 4.686-1.666 10.568-2.388a.23.23 0 0 0 .202-.23v-.632h7.673v.632c0 .118.09.219.208.23.065.008 6.337.68 11.096 2.48v1.69c0 .095.057.18.144.216.018.005.375.151 1.13.406a9.258 9.258 0 0 1-.381 2.585c-.582-2.097-2.278-5.404-6.465-5.597Zm3.862 2.437c-.225.38-1.531 2.313-4.287 1.903a3.708 3.708 0 0 1-2.439-1.45c-.518-.68-.358-1.29-.204-1.382.787-.48 1.785-.798 3.03-.742 1.745.085 3.003.77 3.9 1.671Zm-10.085 2.278c.019.007 1.825.621 3.276 2.404.116.167-.252.492-.513.424-.593-.155-1.895-.438-2.724.646-.007.01-.017.017-.023.026-.081.085-1.086 1.098-3.096 1.098-2.044 0-3.157-1.06-3.214-1.117-1.167-1.053-2.282-.744-2.946-.65-.32.046-.664-.187-.481-.452 1.46-1.76 3.386-2.369 3.407-2.376a.388.388 0 0 0 .222-.47c-.009-.016-.188-.176-.617-.914.87.473 2.082.938 3.514.938l.194.001c1.365 0 2.528-.43 3.371-.879-.404.708-.578.838-.584.854a.392.392 0 0 0 .214.467Zm-9.489-1.964c-.473.661-1.286 1.403-2.54 1.59a4.186 4.186 0 0 1-4.307-1.928c.883-.89 2.124-1.565 3.842-1.645a5.422 5.422 0 0 1 3.012.726c.277.156.382.713-.007 1.257Zm-9.798-6.41c1.037-.374 5.124-1.813 8.363-2.355l.087.054c2.333 1.427 4.927 2.147 7.709 2.147 2.779 0 5.371-.72 7.704-2.147.035-.02.065-.04.089-.054 3.24.542 7.362 1.98 8.404 2.355l-.001.142v6.038c-.39-.133-.661-.232-.809-.288v-1.693a.233.233 0 0 0-.15-.218c-4.339-1.672-10.005-2.403-11.153-2.54v-.654a.232.232 0 0 0-.232-.234h-8.139a.23.23 0 0 0-.229.234v.657c-6.51.822-10.585 2.43-10.628 2.448a.239.239 0 0 0-.147.213l-.023 1.8-.845.286v-6.05c.003-.048 0-.094 0-.14Zm-.957-2.32c-.123-.123-.319-.368-.265-.646.06-.301.386-.588.93-.818 7.566-3.302 14.773-3.469 16.139-3.469.215 0 .327.003.358.003.003 0 .118-.003.33-.003 1.368 0 8.577.167 16.146 3.471.537.228.868.516.925.816.054.278-.14.523-.263.646-.091.092-.175.167-.251.236-.405.37-.607.62-.69 1.283-1.352-.477-5.325-1.831-8.45-2.335a.61.61 0 0 0-.063-.002c-.126 0-.203.043-.425.18-2.211 1.353-4.67 2.037-7.303 2.037-2.638 0-5.096-.684-7.308-2.037-.257-.159-.342-.198-.487-.178-3.122.504-7.062 1.853-8.402 2.335-.081-.673-.284-.926-.684-1.294-.071-.066-.151-.138-.237-.225Zm.3 16.294a5.086 5.086 0 0 1-.415-.62c-.767-1.32-1.032-3.132-1.172-4.105a10.225 10.225 0 0 0-.087-.545c-.147-.698-.064-.857.595-1.15.342-.153.723-.308 1.015-.428.133 1.373.493 2.825 1.065 4.322.244.642.273 1.408.186 2.237-.1.928-.88.674-1.187.289Zm35.041 46.257c-1.226 1.23-11.3 3.538-18.193 3.538-4.022 0-9.129-.785-12.928-1.686h-1.157v-.289c-2.123-.555-3.671-1.13-4.108-1.563-.421-.422-.588-.963-.5-1.61.115-.87.654-1.596.817-1.688.005-.003.008-.008.014-.008.54.23 1.848.754 3.778 1.323v-.487c-1.813-.54-3.056-1.036-3.577-1.258a6427.162 6427.162 0 0 1-.03-11.148c.669.141 2.091.448 3.606.733v-.17l1.721-.1c-2.096-.357-4.505-.76-5.327-.94l-.002-1.904c.588.158 4.7 1.229 10.598 1.803.521.403 1.044.805 1.488 1.142h.626s-2.464-1.878-3.933-3.03a.383.383 0 0 0 .07.523c.292.231.66.519 1.055.828-5.881-.63-9.8-1.72-9.853-1.735-.017-.002-.032-.001-.05-.002 0-1.595-.004-3.244-.004-4.88.49-.406 2.512-.616 4.382-.616.12 0 .222.086.291 0-.102-.205-.198-.35-.288-.564l-.003-.205c-2.275 0-3.147.12-4.619-.5-1.289-.544-2.267-2.276-2.167-6.388.05-1.945.623-4.352.623-4.352.407-1.776 1.011-3.79 1.868-6.066.716-1.825 1.354-2.692 1.773-3.107l.627-.709c.361-1.636.501-2.833.079-3.942l-.142-.397c0-.733.386-2.824 1.764-4.412.321.494 1.547 2.079 3.845 2.079.254 0 .516-.019.788-.06 2.066-.307 3.008-1.932 3.317-2.622.974.874 1.501 1.535 1.713 2.06-.696.344-2.328 1.065-3.584 2.703v.002l-.002.001c-.011.013-.281.434-.027.729v.004c.083.152.846 1.02 3.842 1.234.496.451 1.757 1.246 3.634 1.246 1.899 0 3.093-.796 3.548-1.246 3.035-.225 3.556-1.164 3.643-1.286.178-.247.029-.574-.05-.68-1.25-1.631-2.773-2.351-3.427-2.698.212-.53.752-1.227 1.767-2.114.292.66 1.224 2.352 3.336 2.665.277.042.54.06.789.06 2.266 0 3.487-1.54 3.833-2.055 1.429 1.632 1.817 3.777 1.817 4.389l.004.005c-.047.127-.093.258-.147.392-.493 1.291-.452 2.724-.091 3.942l1.219 1.395c.382.543.828 1.359 1.244 2.573.975 2.598 1.617 4.849 2.034 6.78.313 1.445.493 3.74.493 3.74.133 3.401-.868 5.533-2.155 6.088-1.368.591-2.524.566-4.059.566-.017 0-.029.006-.044.007v.173h-.04c0 .213-.268.383-.055.383 1.308 0 2.644-.028 3.946.802 0 1.716.002 3.37.005 5.034-1.87.503-3.938.882-5.936 1.168.097.136.192.28.288.427a70.62 70.62 0 0 0 4.932-.935c.591-.135.717.13.717.81 0 .675-.109.758-.637.867-.96.2-2.585.535-4.145.81.065.145.134.291.194.44 1.895-.34 3.848-.75 4.59-.908.008 3.56.021 6.706.025 8.806 0 1.175.004 2.002.004 2.36-.795.33-3.236 1.276-6.822 2.066-.18.21-.366.412-.554.595 4.002-.828 6.731-1.886 7.574-2.242l.016.013c.166.091.702.817.821 1.687.088.649-.081 1.189-.502 1.611Zm-12.028-45.708a.936.936 0 0 0-.181.017c-2.056.418-5.736.43-6.143.43-.407 0-4.086-.012-6.143-.43a1.113 1.113 0 0 0-.181-.017c-.595 0-1.389.482-1.685 1.379-.179.525-.061 1.15.314 1.669.337.468.802.744 1.244.744h12.898c.445 0 .905-.277 1.244-.744.375-.52.492-1.144.319-1.67-.299-.895-1.093-1.378-1.686-1.378Zm-.546.79c.173-.026.341-.067.501-.088.272-.038.681.106.826.44.028.07.006.235-.393.321-.283.06-.666.113-1.149.172l.215-.844Zm-9.345.234c1.665.113 3.567.119 3.567.119s1.9-.006 3.564-.12l.343.758a54.725 54.725 0 0 1-3.907.131c-1.353 0-2.741-.044-3.909-.131l.342-.757Zm-3.537.119c.146-.335.551-.479.824-.441.161.021.328.062.501.089l.215.844c-.484-.059-.864-.111-1.151-.172-.395-.088-.42-.25-.389-.32Zm.654 1.954c-.208 0-.482-.184-.676-.458a1.387 1.387 0 0 1-.234-.504c-.059-.256.135-.334.447-.281.345.058.82.145 1.462.217l.259 1.026h-1.258Zm1.514-.687c-.076-.29-.391-1.554-.391-1.554.42.053.866.098 1.313.135 0 0-.542 1.21-.639 1.419-.109.236-.204.303-.283 0Zm4.936.687h-4.499l.408-.906.004.002c1.214.093 2.669.14 4.087.14 1.418 0 2.87-.047 4.087-.14v-.002l.41.906h-4.497Zm4.652-.687c-.096-.21-.64-1.42-.64-1.42.449-.036.896-.081 1.315-.134l-.388 1.554c-.08.303-.179.236-.287 0Zm2.473.23c-.194.273-.468.457-.676.457h-1.257l.261-1.026c.639-.072 1.117-.159 1.459-.217.311-.053.509.025.447.28a1.355 1.355 0 0 1-.234.505Z" fill="#8F141B"/></svg>