<svg width="1141" height="1200" viewBox="0 0 1141 1200" fill="none" xmlns="http://www.w3.org/2000/svg">
<path fill-rule="evenodd" clip-rule="evenodd" d="M570.183 1189.34L570.496 1189.35C574.267 1189.46 580.237 1189.6 588.509 1189.6C629.759 1189.6 694.49 1186.49 768.392 1171.92C873.533 1151.2 953.836 1119.48 1014.58 1075.41C1015.55 1074.69 1017.07 1073.66 1018.79 1072.5C1018.82 1072.48 1018.84 1072.47 1018.86 1072.45L1019.78 1071.81L1019.84 1071.78C1023.69 1069.17 1028.62 1065.81 1034.26 1061.19C1039.8 1056.63 1044.57 1052.03 1048.79 1047.1L1048.82 1047.07L1048.84 1047.04C1057.04 1037.62 1063.69 1026.43 1068.03 1014.74L1068.04 1014.69C1072.98 1001.58 1075.52 987.024 1075.46 971.286L1075.46 971.252L1075.46 271.883L1098.04 259.34C1103.48 256.311 1108.37 252.614 1112.53 248.44L1112.56 248.414L1112.58 248.388C1118.77 242.267 1123.79 234.362 1126.64 226.349L1126.65 226.313L1126.67 226.278C1129.04 219.762 1130.24 212.839 1130.24 205.753V128.568C1130.24 122.927 1129.35 111.687 1123.79 102.184C1118.74 93.5405 1109.22 85.172 1088.8 85.172H835.754L833.231 83.6035C821.585 76.363 711.351 10.4046 573.169 10.4046H567.459C429.264 10.4046 319.045 76.3757 307.408 83.6053L304.886 85.172H51.8271C31.4402 85.172 21.9207 93.5366 16.8605 102.185C11.2983 111.692 10.4046 122.935 10.4046 128.568V205.753C10.4046 212.863 11.5866 219.778 13.9553 226.262L13.9711 226.305L13.9865 226.349C16.8289 234.35 21.8709 242.254 28.0522 248.353L28.0824 248.383L28.1123 248.413C32.3099 252.622 37.1884 256.32 42.6117 259.345L65.1497 271.888V971.252C65.1497 987.027 67.6678 1001.6 72.6283 1014.66L72.6458 1014.71L72.6628 1014.75C76.9741 1026.44 83.6181 1037.62 91.8068 1047.05L91.8249 1047.07L91.843 1047.09C96.0706 1052.01 100.837 1056.61 106.407 1061.18L106.433 1061.2C111.703 1065.56 116.401 1068.77 120.17 1071.35L121.842 1072.49L122.613 1073.02C123.993 1073.96 125.244 1074.81 126.031 1075.38C186.794 1119.47 267.091 1151.19 372.247 1171.92C446.19 1186.47 510.921 1189.58 552.175 1189.6M370.238 1182.13C264.152 1161.22 182.284 1129.05 119.911 1083.8C119.267 1083.33 118.19 1082.6 116.795 1081.65L115.979 1081.09L114.263 1079.91C110.492 1077.34 105.45 1073.89 99.8055 1069.22C93.8307 1064.32 88.6204 1059.3 83.9517 1053.87C74.948 1043.5 67.6533 1031.24 62.9013 1018.35C57.4407 1003.97 54.7451 988.134 54.7451 971.252V278.005L37.5434 268.431C31.2908 264.944 25.6356 260.664 20.7447 255.759C13.4639 248.576 7.55863 239.336 4.18223 229.832C1.3755 222.148 0 214.02 0 205.753V128.568C0 115.937 3.73761 74.7674 51.8271 74.7674H301.918C314.061 67.2226 426.316 0 567.459 0H573.169C714.298 0 826.567 67.2087 838.725 74.7674H1088.8C1136.95 74.7674 1140.64 115.937 1140.64 128.568V205.753C1140.64 214.02 1139.24 222.148 1136.45 229.832C1133.07 239.336 1127.19 248.576 1119.9 255.787C1115.03 260.664 1109.36 264.944 1103.1 268.431L1085.87 278.005V971.252C1085.92 988.134 1083.2 1003.96 1077.78 1018.35C1073 1031.24 1065.71 1043.5 1056.69 1053.87C1052.02 1059.32 1046.81 1064.33 1040.88 1069.22C1034.83 1074.17 1029.57 1077.75 1025.66 1080.39L1024.66 1081.09C1022.84 1082.31 1021.48 1083.24 1020.73 1083.8C958.372 1129.05 876.49 1161.22 770.404 1182.13C695.679 1196.86 630.249 1200 588.509 1200C580.117 1200 574.045 1199.86 570.196 1199.75C566.653 1199.86 560.567 1200 552.175 1200C510.435 1199.99 445.005 1196.85 370.238 1182.13ZM552.175 1189.6C560.45 1189.6 566.429 1189.46 569.87 1189.35L570.183 1189.34" fill="#DFD4A6" fill-opacity="0.05"/>
<path d="M806.964 149.784V202.015C806.964 206.78 811.855 210.727 814.106 211.991C851.469 233.042 859.181 237.585 859.181 247.436V887.314C859.181 908.823 851.052 914.687 835.226 922.482C794.487 942.559 704.283 978.519 571.033 978.519C437.741 978.519 347.565 942.559 306.826 922.482C291.027 914.673 282.829 908.823 282.829 887.314V247.45C282.829 237.683 290.43 232.638 327.112 212.005C329.627 210.574 335.074 207.712 335.074 200.848V150.966C335.074 144.199 331.197 132.083 319.817 132.083H77.5494C66.1974 132.083 62.2654 140.392 62.2654 150.966V202.029C62.2654 208.267 69.2126 210.24 72.3389 212.005C107.103 231.61 113.995 237.863 113.995 247.45V963.776C113.995 1005.03 127.042 1016.8 141.757 1027.47C307.437 1147.8 571.019 1135.53 571.019 1135.53C571.019 1135.53 822.096 1147.8 987.776 1027.47C1002.48 1016.8 1028.03 1005.03 1028.03 963.776V247.45C1028.03 237.544 1038.1 233.291 1076.15 212.005C1078.26 210.796 1082.82 208.003 1082.82 202.029V149.798C1082.82 143.032 1077.91 131.457 1066.56 131.457H823.193C811.855 131.444 806.964 143.018 806.964 149.784Z" fill="#DFD4A6" fill-opacity="0.05"/>
<path d="M594.86 882.089C560.804 882.089 541.574 868.82 531.25 861.678L528.513 859.747C522.163 855.259 519.023 853.091 512.631 853.814C503.739 854.786 501.877 860.33 501.877 864.818V873.697C501.877 875.253 500.613 876.518 499.042 876.518H431.501C429.917 876.518 428.652 875.253 428.652 873.697V736.876C428.652 735.32 429.917 734.056 431.501 734.056H530.611C531.223 734.056 531.876 734.292 532.376 734.695C532.598 734.903 556.594 754.37 564.153 759.969L565.723 761.178C569.475 764.082 575.199 768.445 581.438 768.445C586.12 768.445 590.497 766.124 594.874 761.275C598.598 757.232 600.335 752.869 600.029 748.312C599.737 743.393 596.93 738.432 592.206 734.347L477.659 645.866C459.359 631.485 428.652 601.042 428.652 558.774C428.652 457.982 506.212 431.319 547.243 431.319C581.299 431.319 600.487 444.616 610.853 451.744L613.59 453.661C619.926 458.121 622.997 460.261 629.472 459.58C638.35 458.608 640.212 453.05 640.212 448.562V439.697C640.212 438.127 641.491 436.848 643.033 436.848H710.617C712.173 436.848 713.451 438.127 713.451 439.697V576.49C713.451 578.088 712.173 579.324 710.617 579.324H611.506C610.867 579.324 610.241 579.102 609.713 578.699C609.477 578.533 585.495 559.011 577.923 553.439L576.325 552.216C572.587 549.34 566.904 544.977 560.665 544.977C555.969 544.977 551.606 547.297 547.201 552.105C543.505 556.162 541.769 560.525 542.06 565.082C542.352 570.029 545.159 574.948 549.883 579.033L664.445 667.528C696.986 693.803 713.451 723.065 713.451 754.606C713.451 801.681 697.778 836.807 666.848 859.094C637.281 880.422 604.281 882.089 594.86 882.089Z" fill="#DFD4A6" fill-opacity="0.05"/>
<path d="M594.861 913.895C572.685 913.895 552.121 909.309 533.696 900.222V903.668C533.696 906.281 531.584 908.351 529 908.351H401.488C398.932 908.351 396.792 906.281 396.792 903.668V706.934C396.792 704.363 398.932 702.265 401.488 702.265H498.459C486.413 693.039 467.349 678.394 456.636 669.876C438.643 655.565 396.778 616.118 396.778 558.816C396.778 488.023 429.222 449.451 456.4 429.513C494.374 401.709 535.489 399.556 547.216 399.556C569.419 399.556 589.928 404.141 608.38 413.27V409.782C608.38 407.198 610.464 405.113 613.049 405.113H740.574C743.158 405.113 745.271 407.198 745.271 409.782V606.503C745.271 609.115 743.158 611.199 740.574 611.199H643.506C654.205 619.453 670.976 632.403 685.398 643.546C714.313 665.944 745.284 706.906 745.284 754.634C745.284 826.706 712.743 865.278 685.44 884.925C648.188 911.797 606.685 913.895 594.861 913.895ZM529 887.745C529.82 887.745 530.598 887.953 531.32 888.356C550.356 899.25 571.142 904.53 594.861 904.53C605.99 904.53 644.979 902.557 679.965 877.31C705.504 858.928 735.892 822.718 735.892 754.62C735.892 710.296 706.824 672.002 679.66 650.966C656.372 632.903 626.929 610.185 626.929 610.185C625.345 608.976 624.706 606.892 625.345 604.974C626.012 603.085 627.763 601.807 629.806 601.807H735.892V414.451H617.787V420.995C617.787 422.704 616.898 424.219 615.425 425.066C613.98 425.886 612.229 425.914 610.756 425.066C591.748 414.214 570.962 408.907 547.23 408.907C536.253 408.907 497.653 410.963 461.958 437.071C436.503 455.676 406.157 491.927 406.157 558.788C406.157 612.019 445.534 649.048 462.472 662.512C478.798 675.518 514.772 702.932 515.147 703.224C516.745 704.419 517.356 706.503 516.745 708.42C516.078 710.324 514.285 711.602 512.298 711.602H406.157V898.958H524.304V892.4C524.304 890.719 525.193 889.204 526.624 888.343C527.36 887.954 528.18 887.745 529 887.745Z" fill="#DFD4A6" fill-opacity="0.05"/>
<path d="M440.295 447.284C403.307 425.539 388.495 395.971 382.576 375.004C376.157 352.244 378.491 334.792 378.588 334.07L384.73 334.932C384.646 335.599 376.324 402.432 443.463 441.907L440.295 447.284Z" fill="#DFD4A6" fill-opacity="0.05"/>
<path d="M742.093 409.935L737.021 406.308C761.99 371.28 756.418 333.542 756.362 333.167L762.546 332.319C762.796 333.903 768.52 372.906 742.093 409.935Z" fill="#DFD4A6" fill-opacity="0.05"/>
<path d="M569.527 403.807C499.734 403.807 452.075 384.633 424.355 368.543C394.231 351.022 380.823 333.625 380.253 332.903L385.214 329.123C385.756 329.804 438.986 397.569 569.527 397.569C637.763 397.569 684.255 378.95 711.197 363.346C740.431 346.422 753.701 329.29 753.826 329.123L758.8 332.903C758.216 333.639 744.808 351.035 714.67 368.543C687.006 384.633 639.347 403.807 569.527 403.807Z" fill="#DFD4A6" fill-opacity="0.05"/>
<path d="M795.905 834.431C795.905 829.512 795.849 819.98 795.794 806.961C795.711 775.67 795.558 725.316 795.502 669.974V666.222C795.474 645.283 795.433 611.227 795.433 589.704C813.301 579.38 852.845 535.001 793.404 377.129C785.512 354.092 776.411 341.337 769.575 334.64C778.231 330.499 785.262 322.565 789.472 315.284C799.74 297.596 803.116 274.406 804.909 261.943C805.312 259.303 805.576 257.218 805.882 255.926C808.591 242.962 805.173 236.307 793.126 231.36L777.661 224.927V149.729C777.661 134.917 779.037 133.695 783.567 129.554C784.512 128.637 785.665 127.65 786.888 126.386C791.737 121.565 793.793 115.798 792.695 110.143C791.737 105.336 788.055 98.5271 775.952 93.3722C684.525 53.4806 599.601 50.4101 575.73 50.4101C573.146 50.4101 571.687 50.4517 571.659 50.4517C571.437 50.4517 569.95 50.4101 567.352 50.4101C543.508 50.4101 458.612 53.4945 367.199 93.3722C355.013 98.5271 351.373 105.336 350.456 110.143C349.316 115.812 351.373 121.565 356.208 126.386C357.334 127.553 358.431 128.526 359.39 129.401C363.947 133.625 365.156 134.737 365.156 149.729L365.184 224.872C361.53 226.317 355.18 228.915 349.566 231.402C337.548 236.682 334.227 243.101 336.964 255.926C337.228 257.218 337.548 259.303 337.923 261.943C339.715 274.406 343.105 297.596 353.36 315.284C358.945 324.872 364.976 331.207 371.617 334.612C363.711 342.657 355.819 356.329 348.496 375.059C299.49 505.155 315.066 572.225 346.774 590.19C346.815 670.085 346.996 764.013 347.149 807.059C347.163 820.05 347.19 829.526 347.218 834.445C342.216 838.919 336.547 849.034 334.894 859.178C333.073 870.404 336.047 880.27 343.481 887.731C363.197 907.434 493.21 933.556 571.534 933.556C649.886 933.556 779.843 907.434 799.601 887.731C807.021 880.27 810.022 870.404 808.23 859.178C806.59 849.048 800.879 838.933 795.905 834.431ZM789.583 240.031C797.461 243.282 798.517 245.394 796.739 254.023C796.419 255.454 796.058 257.733 795.655 260.623C793.96 272.475 790.723 294.525 781.385 310.602C779.134 314.506 775.758 318.813 771.701 322.218C769.047 324.455 761.377 328.262 760.515 314.381C759.932 305.294 761.085 296.263 764.448 287.398C773.062 264.736 776.716 250.48 777.495 235.056L789.583 240.031ZM684.97 192.58C653.29 191.01 633.157 207.184 621.263 222.634C612.079 229.082 593.446 239.642 570.45 238.947C546.746 238.947 527.988 227.512 519.373 221.148C507.327 206.128 487.471 191.08 456.778 192.58C407.118 194.901 386.623 233.25 379.523 259.205C376.939 248.854 375.244 238.863 374.605 229.318L388.513 224.608C389.625 224.246 390.417 223.162 390.431 221.953L390.736 199.986C400.24 196.471 447.774 179.7 519.359 170.918C520.804 170.724 521.819 169.529 521.819 168.112V160.428H615.205V168.112C615.205 169.557 616.303 170.779 617.734 170.918C618.526 171.016 694.863 179.2 752.79 201.098V221.662C752.79 222.829 753.485 223.857 754.541 224.302C754.763 224.357 759.098 226.136 768.296 229.235C768.213 239.808 766.935 249.104 763.656 260.706C756.569 235.181 735.936 194.929 684.97 192.58ZM731.976 222.245C729.239 226.858 713.343 250.396 679.801 245.408C665.601 243.282 655.874 235.431 650.108 227.761C643.814 219.48 645.759 212.06 647.635 210.935C657.208 205.099 669.352 201.223 684.512 201.904C705.743 202.932 721.055 211.282 731.976 222.245ZM609.23 249.965C609.466 250.049 631.448 257.524 649.108 279.227C650.511 281.256 646.037 285.216 642.855 284.382C635.644 282.493 619.79 279.061 609.703 292.247C609.619 292.372 609.494 292.455 609.425 292.566C608.438 293.594 596.211 305.933 571.742 305.933C546.871 305.933 533.324 293.025 532.629 292.33C518.429 279.519 504.853 283.271 496.767 284.41C492.876 284.98 488.694 282.145 490.917 278.922C508.688 257.496 532.129 250.09 532.379 250.007C534.616 249.076 535.797 246.603 535.088 244.283C534.977 244.088 532.795 242.142 527.571 233.153C538.159 238.919 552.915 244.574 570.339 244.574C571.159 244.588 571.881 244.588 572.701 244.588C589.319 244.588 603.478 239.364 613.732 233.889C608.813 242.504 606.701 244.088 606.632 244.283C605.951 246.561 607.077 248.993 609.23 249.965ZM493.738 226.067C487.985 234.112 478.092 243.143 462.822 245.422C428.516 250.494 412.676 225.775 410.411 221.953C421.152 211.116 436.255 202.904 457.167 201.932C472.256 201.251 484.15 205.252 493.821 210.768C497.197 212.658 498.476 219.439 493.738 226.067ZM374.493 148.048C387.11 143.49 436.853 125.983 476.272 119.383C476.564 119.564 476.939 119.786 477.328 120.036C505.729 137.404 537.297 146.172 571.159 146.172C604.978 146.172 636.533 137.404 664.92 120.036C665.351 119.786 665.712 119.55 666.004 119.383C705.437 125.983 755.611 143.49 768.296 148.048C768.296 148.617 768.282 149.187 768.282 149.771V223.26C763.531 221.648 760.237 220.439 758.431 219.758V199.152C758.431 197.985 757.723 196.929 756.611 196.498C703.797 176.143 634.838 167.25 620.86 165.583V157.621C620.86 156.037 619.609 154.773 618.039 154.773H518.984C517.442 154.773 516.191 156.037 516.191 157.621V165.625C436.964 175.629 387.36 195.206 386.846 195.415C385.79 195.845 385.095 196.86 385.053 198.013L384.776 219.911L374.493 223.399V149.757C374.521 149.173 374.493 148.617 374.493 148.048ZM362.836 119.814C361.349 118.313 358.959 115.326 359.612 111.949C360.349 108.281 364.309 104.794 370.936 101.987C463.016 61.8034 550.734 59.7749 567.366 59.7749C569.978 59.7749 571.339 59.8028 571.714 59.8028C571.756 59.8028 573.16 59.7749 575.73 59.7749C592.39 59.7749 680.121 61.8036 772.243 102.015C778.787 104.794 782.816 108.295 783.511 111.949C784.164 115.326 781.802 118.313 780.301 119.814C779.204 120.926 778.176 121.842 777.245 122.676C772.326 127.178 769.866 130.221 768.852 138.294C752.401 132.486 704.047 116.007 666.004 109.879C665.726 109.852 665.49 109.851 665.24 109.851C663.711 109.851 662.766 110.379 660.071 112.047C633.157 128.512 603.228 136.835 571.187 136.835C539.076 136.835 509.161 128.512 482.233 112.047C479.106 110.115 478.078 109.629 476.314 109.879C438.312 116.007 390.361 132.43 374.049 138.294C373.062 130.11 370.589 127.025 365.726 122.551C364.864 121.745 363.892 120.87 362.836 119.814ZM366.49 318.119C364.781 315.965 363.114 313.464 361.446 310.588C352.109 294.511 348.886 272.461 347.177 260.609C346.788 257.719 346.398 255.44 346.121 253.981C344.328 245.491 345.342 243.546 353.36 239.989C357.528 238.127 362.155 236.237 365.712 234.778C367.338 251.494 371.715 269.154 378.676 287.384C381.649 295.193 381.997 304.516 380.941 314.603C379.718 325.9 370.228 322.815 366.49 318.119ZM792.973 881.117C778.051 896.095 655.444 924.177 571.548 924.177C522.597 924.177 460.446 914.617 414.204 903.654H400.115V900.139C374.285 893.386 355.444 886.397 350.122 881.117C344.995 875.976 342.966 869.39 344.036 861.512C345.44 850.924 351.998 842.101 353.985 840.976C354.04 840.934 354.082 840.878 354.152 840.878C360.724 843.671 376.647 850.049 400.129 856.982V851.049C378.064 844.477 362.933 838.447 356.597 835.737C356.597 831.388 356.569 821.398 356.514 807.003C356.43 781.854 356.319 743.518 356.236 700.055C364.378 701.778 381.677 705.516 400.115 708.976V706.92L421.068 705.697C395.558 701.348 366.24 696.443 356.236 694.261C356.236 686.661 356.208 678.949 356.208 671.085C363.364 673.003 413.413 686.036 485.192 693.025C491.542 697.93 497.906 702.821 503.311 706.92H510.925C510.925 706.92 480.941 684.063 463.058 670.043C461.613 672.072 461.974 674.85 463.906 676.407C467.463 679.227 471.937 682.729 476.744 686.494C405.173 678.811 357.472 665.555 356.833 665.375C356.625 665.347 356.444 665.361 356.222 665.347C356.222 645.936 356.166 625.872 356.166 605.961C362.141 601.015 386.749 598.458 409.508 598.458C410.967 598.458 412.204 599.5 413.051 598.458C411.801 595.957 410.633 594.206 409.536 591.594L409.508 589.093C381.816 589.093 371.2 590.566 353.29 583.007C337.603 576.393 325.695 555.315 326.918 505.266C327.516 481.59 334.491 452.299 334.491 452.299C339.451 430.679 346.801 406.169 357.236 378.463C365.948 356.26 373.715 345.699 378.815 340.656L386.443 332.027C390.834 312.116 392.543 297.541 387.402 284.049C386.818 282.437 386.248 280.811 385.679 279.213C385.679 270.293 390.375 244.838 407.146 225.511C411.05 231.527 425.973 250.813 453.943 250.813C457.028 250.813 460.224 250.591 463.531 250.077C488.68 246.353 500.143 226.566 503.909 218.174C515.761 228.817 522.166 236.863 524.751 243.24C516.275 247.437 496.419 256.204 481.135 276.143V276.171C481.107 276.185 481.107 276.185 481.107 276.185C480.968 276.337 477.689 281.465 480.774 285.049V285.077V285.105C481.788 286.953 491.07 297.513 527.543 300.125C533.574 305.613 548.927 315.284 571.77 315.284C594.877 315.284 609.411 305.6 614.955 300.125C651.887 297.388 658.237 285.953 659.293 284.466C661.46 281.465 659.64 277.491 658.681 276.185C643.467 256.343 624.931 247.575 616.969 243.351C619.554 236.904 626.126 228.429 638.478 217.633C642.036 225.664 653.374 246.255 679.079 250.063C682.455 250.577 685.651 250.799 688.68 250.799C716.261 250.799 731.128 232.055 735.338 225.788C752.72 245.644 757.445 271.752 757.445 279.2L757.5 279.255C756.931 280.812 756.361 282.396 755.708 284.035C749.705 299.75 750.205 317.188 754.596 332.014L769.436 348.993C774.091 355.593 779.509 365.527 784.581 380.311C796.447 411.922 804.256 439.322 809.327 462.832C813.148 480.408 815.33 508.351 815.33 508.351C816.956 549.743 804.77 575.684 789.111 582.437C772.451 589.634 758.39 589.329 739.701 589.329C739.493 589.329 739.354 589.398 739.173 589.412V591.524H738.687C738.687 594.109 735.422 596.179 738.006 596.179C753.929 596.179 770.186 595.846 786.04 605.947C786.04 626.831 786.068 646.95 786.095 667.209C763.336 673.336 738.173 677.949 713.857 681.423C715.038 683.076 716.191 684.827 717.359 686.62C738.034 683.493 758.765 679.45 777.383 675.24C784.581 673.6 786.109 676.824 786.109 685.091C786.109 693.317 784.789 694.331 778.356 695.651C766.671 698.096 746.899 702.167 727.905 705.516C728.697 707.281 729.544 709.059 730.267 710.866C753.332 706.739 777.106 701.737 786.137 699.819C786.234 743.143 786.387 781.437 786.443 806.989C786.443 821.301 786.484 831.36 786.484 835.709C776.814 839.739 747.107 851.244 703.464 860.859C701.269 863.416 699.004 865.875 696.711 868.098C745.426 858.024 778.634 845.144 788.902 840.823C788.972 840.878 789.013 840.92 789.097 840.976C791.111 842.087 797.642 850.924 799.087 861.512C800.157 869.404 798.101 875.976 792.973 881.117ZM646.579 324.802C645.759 324.802 645.009 324.886 644.384 325.011C619.359 330.096 574.563 330.235 569.616 330.235C564.656 330.235 519.887 330.096 494.849 325.011C494.168 324.899 493.432 324.802 492.64 324.802C485.401 324.802 475.744 330.666 472.131 341.587C469.964 347.978 471.395 355.579 475.952 361.901C480.065 367.598 485.72 370.96 491.097 370.96H569.603H648.08C653.499 370.96 659.098 367.584 663.225 361.901C667.782 355.565 669.213 347.978 667.101 341.587C663.461 330.68 653.804 324.802 646.579 324.802ZM639.937 334.431C642.049 334.097 644.092 333.611 646.037 333.347C649.344 332.889 654.318 334.64 656.083 338.711C656.43 339.558 656.166 341.559 651.303 342.615C647.857 343.352 643.203 343.991 637.325 344.699L639.937 334.431ZM526.195 337.266C546.468 338.641 569.616 338.711 569.616 338.711C569.616 338.711 592.737 338.641 612.996 337.266L617.164 346.478C602.978 347.534 586.068 348.075 569.616 348.075C553.151 348.075 536.255 347.534 522.041 346.478L526.195 337.266ZM483.15 338.711C484.928 334.64 489.861 332.889 493.182 333.347C495.141 333.611 497.17 334.097 499.282 334.431L501.894 344.699C496.002 343.991 491.376 343.352 487.888 342.615C483.08 341.545 482.775 339.558 483.15 338.711ZM491.111 362.498C488.583 362.498 485.248 360.261 482.886 356.927C481.441 354.968 480.524 352.841 480.037 350.785C479.315 347.673 481.677 346.728 485.47 347.367C489.68 348.075 495.461 349.132 503.269 350.007L506.423 362.498H491.111ZM509.536 354.134C508.619 350.618 504.784 335.223 504.784 335.223C509.897 335.862 515.316 336.418 520.763 336.863C520.763 336.863 514.163 351.591 512.982 354.134C511.662 357.01 510.495 357.83 509.536 354.134ZM569.616 362.498H514.857L519.818 351.466L519.874 351.494C534.644 352.633 552.359 353.189 569.616 353.189C586.874 353.189 604.548 352.633 619.359 351.494V351.466L624.348 362.498H569.616ZM626.237 354.134C625.07 351.577 618.442 336.863 618.442 336.863C623.903 336.418 629.35 335.862 634.449 335.223C634.449 335.223 630.614 350.618 629.725 354.134C628.752 357.83 627.543 357.01 626.237 354.134ZM656.333 356.927C653.971 360.261 650.636 362.498 648.107 362.498H632.809L635.977 350.007C643.758 349.132 649.58 348.075 653.735 347.367C657.528 346.728 659.932 347.673 659.181 350.785C658.709 352.841 657.792 354.968 656.333 356.927Z" fill="#DFD4A6" fill-opacity="0.05"/>
</svg>
