<svg width="280" height="71" viewBox="0 0 280 71" fill="none" xmlns="http://www.w3.org/2000/svg">
<path d="M83.7876 23.661L83.7753 25.8976C83.7753 26.2372 83.763 26.5644 83.7425 26.858C83.6736 27.8644 83.3226 28.5426 82.6336 29.0167C82.0685 29.4013 81.3213 29.6039 80.4306 29.6039C79.7983 29.6039 79.2324 29.5137 78.7362 29.3111C78.386 29.1742 78.0571 28.9937 77.82 28.7231C77.3566 28.2137 77.1869 27.5699 77.1984 26.4397L77.2205 23.6495C77.2312 22.621 77.1533 22.0002 76.9941 21.5138L77.2787 21.5261H78.0128L78.3745 21.5138L78.3072 22.3397C78.2941 22.5316 78.2941 22.9384 78.2851 23.5601L78.2605 25.9886C78.2498 27.0294 78.308 27.3559 78.4868 27.775C78.7813 28.4418 79.5727 28.8601 80.5086 28.8601C81.063 28.8601 81.5608 28.7346 81.957 28.509C82.2736 28.3171 82.5221 28.0456 82.6574 27.7405C82.8493 27.2878 82.8953 26.8137 82.9059 25.6958L82.9182 23.6618C82.9305 22.6333 82.8501 22.0116 82.6918 21.5253L82.9855 21.5367H83.6178L83.9369 21.5253C83.8106 22.3282 83.7876 22.5636 83.7876 23.661Z" fill="#DFD4A6"/>
<path d="M93.9232 22.0215C93.8904 22.2938 93.8666 22.5644 93.8666 22.8457C93.8666 23.0729 93.8559 23.5248 93.8559 24.2031L93.8436 27.3895C93.8436 27.5699 93.8436 27.7963 93.8559 28.0784C93.8904 28.6665 93.901 28.8806 93.9568 29.5137H93.5295L93.0653 29.5244C92.6363 28.8699 92.4567 28.6206 92.0819 28.1465L88.7487 23.9317L87.8449 22.758L87.8687 23.3337L87.8564 27.1082C87.8564 28.0456 87.9466 28.8937 88.1155 29.3915L87.8219 29.3686H87.1781L86.8508 29.3915C86.8968 29.1643 86.9189 28.9962 86.9288 28.8822C86.964 28.6222 86.9968 28.3515 86.9968 28.0686V27.0959L87.0091 23.6495C87.0091 22.621 86.9534 22.0108 86.7943 21.5253L87.3807 21.5482L88.3887 21.5138C88.7832 22.1929 88.9529 22.4414 89.3934 23.0057L92.3878 26.8588L93.021 27.6618L92.9865 26.8588L92.9972 24.1933C92.9972 23.0631 92.8963 22.0575 92.7167 21.5253L92.9865 21.5376H93.6771L94.0044 21.5253C93.9568 21.7508 93.9355 21.9091 93.9232 22.0215Z" fill="#DFD4A6"/>
<path d="M98.1742 29.367H97.35L97.0326 29.3891L97.0998 28.8814C97.1671 28.3951 97.1802 28.2819 97.1802 27.2419L97.1917 23.6479C97.1917 22.6424 97.1228 21.9986 96.9661 21.5122L97.2483 21.5245H97.9823L98.344 21.5122L98.2767 22.3381C98.2653 22.5301 98.2546 22.9368 98.2546 23.5585L98.2415 27.2542C98.2415 28.2819 98.3112 28.9028 98.4687 29.3891L98.1742 29.367Z" fill="#DFD4A6"/>
<path d="M107.696 22.1019L107.389 22.7458L107.075 23.4462L105.164 28.0449C104.826 28.8585 104.781 28.9955 104.667 29.5597L104.43 29.5368H103.933L103.649 29.5597C103.582 29.1423 103.559 29.0176 103.357 28.4763L101.516 23.4921C101.131 22.4415 100.849 21.91 100.611 21.5254L100.894 21.5377H101.787L102.182 21.5131C102.204 21.7173 102.214 21.8748 102.236 21.9773C102.283 22.2602 102.429 22.7236 102.667 23.4011L103.91 27.0287L104.305 28.2712L104.836 26.9262L106.055 23.7398C106.362 22.9484 106.507 22.4062 106.507 21.9773C106.507 21.819 106.496 21.7279 106.43 21.5254L106.789 21.5377H107.637L107.964 21.5131L107.986 21.559C107.853 21.7968 107.751 21.9773 107.696 22.1019Z" fill="#DFD4A6"/>
<path d="M114.879 28.5878L114.777 29.0274L114.698 29.4342C114.493 29.4235 114.346 29.412 114.256 29.412C114.211 29.412 113.76 29.4014 112.891 29.3899L111.375 29.3677L110.256 29.3899L110.325 28.8822C110.392 28.3835 110.403 28.2835 110.403 27.2427L110.415 23.6487C110.415 22.6202 110.359 22.0108 110.2 21.5245L110.799 21.5351H112.369C113.647 21.5351 113.772 21.5245 114.528 21.5023L114.38 21.864L114.233 22.3266L114.155 22.6096L114.018 22.6317C113.816 22.4053 113.714 22.3372 113.444 22.2577C113.137 22.1675 112.766 22.1224 112.346 22.1224C112.166 22.1224 111.862 22.1338 111.522 22.1552L111.475 23.5224V24.8675H112.966C113.443 24.8675 113.646 24.8453 114.187 24.7994L114.289 24.8896L114.13 25.2398L113.983 25.6253C113.758 25.6024 113.588 25.5909 113.476 25.5909C113.091 25.5687 112.729 25.5564 112.368 25.5564C112.063 25.5564 111.915 25.5564 111.463 25.5802V27.2747C111.463 27.41 111.475 27.5798 111.485 27.7938C111.508 28.2006 111.553 28.3704 111.689 28.5164C111.87 28.6968 112.129 28.7543 112.786 28.7543C113.203 28.7543 113.53 28.7321 113.837 28.6747C113.982 28.6526 114.141 28.6074 114.289 28.5394C114.49 28.4483 114.604 28.3696 114.83 28.1547L114.978 28.2228L114.879 28.5878Z" fill="#DFD4A6"/>
<path d="M123.584 29.389L123.291 29.4014L122.432 29.4235L121.957 29.4563L121.824 29.2537L121.674 28.9945C121.619 28.8822 121.528 28.7452 121.426 28.5754C120.95 27.8069 120.453 27.095 119.855 26.2593C119.348 25.5474 119.133 25.3661 118.861 25.0848C119.403 25.0733 119.742 25.0503 120.024 24.9372C120.567 24.7337 120.895 24.135 120.895 23.4789C120.895 22.6095 120.329 22.0436 119.38 22.0436C119.178 22.0436 118.996 22.0559 118.578 22.1117C118.555 22.5874 118.544 22.7005 118.544 23.5584L118.533 27.2541C118.533 28.2826 118.601 28.9043 118.758 29.389L118.466 29.3677H117.64L117.323 29.389C117.447 28.5869 117.47 28.3154 117.47 27.2427L117.483 23.6487C117.483 22.6202 117.426 22.0108 117.266 21.5244L117.855 21.5474L118.929 21.513C119.222 21.5015 119.483 21.5015 119.73 21.5015C120.691 21.5015 121.042 21.5917 121.426 21.896C121.798 22.2019 122.003 22.7096 122.003 23.2632C122.003 23.7373 121.844 24.2351 121.549 24.5509C121.301 24.8125 120.985 25.0265 120.443 25.3079L120.702 25.6581L121.775 27.1951C122.272 27.9185 122.769 28.5402 123.109 28.8895C123.29 29.0708 123.37 29.1389 123.594 29.3087L123.584 29.389Z" fill="#DFD4A6"/>
<path d="M127.227 29.6491C127.09 29.6491 126.944 29.6384 126.786 29.6278C126.321 29.5818 126.107 29.5367 125.553 29.3333L125.677 28.938L125.812 28.4188L125.882 28.1367L126.039 28.1022C126.244 28.4188 126.345 28.5435 126.558 28.6788C126.842 28.8707 127.237 28.9839 127.576 28.9839C128.492 28.9839 129.168 28.3737 129.168 27.5716C129.168 27.255 129.066 26.9499 128.875 26.7129C128.638 26.4192 128.333 26.1937 127.644 25.8205C126.615 25.2677 126.467 25.166 126.163 24.8601C125.824 24.5091 125.632 24.0235 125.632 23.5035C125.632 22.1585 126.695 21.2546 128.3 21.2546C128.435 21.2546 128.57 21.267 128.707 21.2776C129.146 21.3112 129.383 21.3687 129.961 21.5606L129.835 21.8763L129.667 22.407L129.61 22.644L129.464 22.6662C129.057 22.1125 128.65 21.91 127.983 21.91C127.146 21.91 126.593 22.3955 126.593 23.1181C126.593 23.4584 126.727 23.7627 126.978 23.9891C127.237 24.2163 127.507 24.3959 128.243 24.792C129.169 25.2899 129.451 25.4925 129.757 25.8763C130.029 26.2265 130.164 26.6571 130.164 27.1197C130.164 28.5878 128.944 29.6491 127.227 29.6491Z" fill="#DFD4A6"/>
<path d="M133.837 29.367H133.013L132.695 29.3891L132.762 28.8814C132.831 28.3951 132.843 28.2819 132.843 27.2419L132.856 23.6479C132.856 22.6424 132.786 21.9986 132.629 21.5122L132.911 21.5245H133.646L134.007 21.5122L133.939 22.3381C133.929 22.5301 133.917 22.9368 133.917 23.5585L133.905 27.2542C133.905 28.2819 133.975 28.9028 134.131 29.3891L133.837 29.367Z" fill="#DFD4A6"/>
<path d="M142.882 28.4508C142.059 29.1193 141.098 29.4014 139.653 29.4014C139.381 29.4014 138.918 29.367 138.239 29.367H137.414L137.097 29.3891L137.165 28.8814C137.232 28.3951 137.245 28.2819 137.245 27.2419L137.258 23.6938C137.258 22.6645 137.19 22.01 137.031 21.5237C137.37 21.536 137.178 21.536 138.059 21.536C138.523 21.536 139.267 21.5237 139.731 21.5237C140.125 21.5237 140.466 21.5237 140.748 21.536C141.675 21.5573 142.241 21.6713 142.738 21.9305C143.789 22.4833 144.41 23.6824 144.41 25.1177C144.41 26.4619 143.867 27.6717 142.882 28.4508ZM142.421 23.0049C141.856 22.3726 141.156 22.1339 139.788 22.1339C139.427 22.1339 139.065 22.1585 138.353 22.1913L138.318 23.5585L138.308 27.2304C138.308 27.3772 138.318 27.5593 138.331 27.7512C138.353 28.158 138.398 28.3278 138.532 28.4746C138.613 28.5525 138.702 28.6099 138.816 28.6436C139.053 28.71 139.471 28.7453 139.888 28.7453C141.956 28.7453 143.212 27.4904 143.212 25.4006C143.212 24.4295 142.93 23.5815 142.421 23.0049Z" fill="#DFD4A6"/>
<path d="M152.765 29.367H152.042L151.545 29.4015L151.467 28.9249C151.398 28.5641 151.285 28.2139 151.059 27.5594L150.676 26.4407L149.985 26.4169H148.642L147.85 26.4407L147.466 27.4691C147.251 28.0564 147.137 28.5305 147.137 28.87C147.137 29.0398 147.15 29.1521 147.217 29.3892L146.866 29.367H146.087L145.782 29.3892L145.737 29.3211L146.007 28.8118C146.087 28.6649 146.189 28.4509 146.324 28.1679C146.459 27.876 146.561 27.6365 146.63 27.4683L148.505 22.8565C148.777 22.202 148.833 22.0101 148.979 21.4442L149.216 21.4114L149.714 21.331L149.962 21.2859C150.075 21.7608 150.121 21.9404 150.314 22.4382L152.189 27.4224C152.336 27.8292 152.573 28.3599 152.845 28.902C152.945 29.1054 152.99 29.185 153.115 29.3875L152.765 29.367ZM149.319 22.5416L148.089 25.7853L148.756 25.8083H149.851L150.438 25.7853L149.319 22.5416Z" fill="#DFD4A6"/>
<path d="M161.18 28.4508C160.354 29.1193 159.396 29.4014 157.949 29.4014C157.677 29.4014 157.215 29.367 156.536 29.367H155.712L155.393 29.3891L155.462 28.8814C155.53 28.3951 155.543 28.2819 155.543 27.2419L155.553 23.6938C155.553 22.6645 155.486 22.01 155.328 21.5237C155.667 21.536 155.476 21.536 156.355 21.536C156.819 21.536 157.565 21.5237 158.029 21.5237C158.423 21.5237 158.763 21.5237 159.045 21.536C159.971 21.5573 160.537 21.6713 161.034 21.9305C162.084 22.4833 162.706 23.6824 162.706 25.1177C162.705 26.4619 162.164 27.6717 161.18 28.4508ZM160.718 23.0049C160.152 22.3726 159.451 22.1339 158.083 22.1339C157.722 22.1339 157.361 22.1585 156.648 22.1913L156.614 23.5585L156.603 27.2304C156.603 27.3772 156.614 27.5593 156.627 27.7512C156.647 28.158 156.694 28.3278 156.829 28.4746C156.907 28.5525 156.999 28.6099 157.112 28.6436C157.349 28.71 157.768 28.7453 158.185 28.7453C160.254 28.7453 161.508 27.4904 161.508 25.4006C161.508 24.4295 161.225 23.5815 160.718 23.0049Z" fill="#DFD4A6"/>
<path d="M78.5393 51.076C79.5678 51.7616 80.7932 52.2767 82.2129 52.2767C83.4628 52.2767 84.7111 51.8363 84.7111 50.6109C84.7111 47.6977 77.8053 48.0651 77.8053 43.1179C77.8053 40.6934 79.7393 38.5134 83.2176 38.5134C84.9326 38.5134 86.3769 38.9055 87.3061 39.3713V42.383C85.911 41.6981 84.6119 41.3291 83.316 41.3291C82.2859 41.3291 81.3812 41.6981 81.3812 42.8234C81.3812 45.5669 88.2862 45.1757 88.2862 50.3173C88.2862 53.256 85.7158 55.0685 82.3359 55.0685C80.4495 55.0685 78.564 54.5543 77.2656 53.5988L78.5393 51.076Z" fill="#DFD4A6"/>
<path d="M92.0932 52.0561C91.6274 51.1736 91.3821 50.0484 91.3821 48.7246V38.6841H94.7366V48.5294C94.7366 49.3627 94.908 50.0967 95.2025 50.6602C95.7668 51.7133 96.8428 52.2767 98.3372 52.2767C99.8061 52.2767 100.885 51.7133 101.448 50.6602C101.766 50.0967 101.912 49.3627 101.912 48.5056V38.6841H105.268V48.7246C105.268 50.0475 105.022 51.1728 104.558 52.0561C103.504 54.1123 101.3 55.0678 98.3134 55.0678C95.3255 55.0678 93.1463 54.1123 92.0932 52.0561Z" fill="#DFD4A6"/>
<path d="M109.311 38.6841H114.134C115.581 38.6841 116.657 38.9047 117.515 39.2959C119.376 40.1038 120.086 41.6473 120.086 43.3623C120.086 45.4669 118.764 46.9366 116.951 47.5009V47.5501C117.441 47.8199 118.153 48.7008 119.007 50.1952L121.628 54.8234H117.784L115.654 50.9546C114.846 49.4357 114.281 48.8238 113.89 48.7254H112.666V54.8234H109.312V38.6841H109.311ZM113.913 46.0066C114.648 46.0066 115.113 45.8852 115.531 45.6637C116.167 45.2717 116.608 44.6106 116.608 43.7052C116.608 42.8481 116.216 42.1124 115.507 41.7449C115.14 41.5251 114.674 41.4021 113.939 41.4021H112.666V46.0057H113.913V46.0066Z" fill="#DFD4A6"/>
<path d="M136.788 53.7456C134.903 54.7757 133.09 55.0677 131.425 55.0677C126.012 55.0677 123.123 51.6402 123.123 46.9128C123.123 42.2837 126.504 38.5134 131.84 38.5134C133.63 38.5134 135.099 38.8317 136.151 39.2983V42.383C134.855 41.6965 133.458 41.3307 131.916 41.3307C128.389 41.3307 126.699 43.902 126.699 46.8652C126.699 50.0491 128.683 52.2767 131.841 52.2767C133.483 52.2767 134.685 51.7862 135.859 51.1022L136.788 53.7456Z" fill="#DFD4A6"/>
<path d="M138.526 46.7898C138.526 41.8925 141.905 38.5134 146.753 38.5134C151.602 38.5134 154.983 41.9163 154.983 46.7898C154.983 51.737 151.579 55.0677 146.753 55.0677C141.905 55.0677 138.526 51.7132 138.526 46.7898ZM151.407 46.7898C151.407 43.2876 149.545 41.3283 146.753 41.3283C143.987 41.3283 142.101 43.263 142.101 46.7898C142.101 50.3419 143.987 52.275 146.753 52.275C149.522 52.2759 151.407 50.3419 151.407 46.7898Z" fill="#DFD4A6"/>
<path d="M158.327 38.6841H161.682V51.9831H167.315V54.8226H158.327V38.6841Z" fill="#DFD4A6"/>
<path d="M168.713 46.7898C168.713 41.8925 172.093 38.5134 176.941 38.5134C181.789 38.5134 185.17 41.9163 185.17 46.7898C185.17 51.737 181.766 55.0677 176.941 55.0677C172.093 55.0677 168.713 51.7132 168.713 46.7898ZM181.594 46.7898C181.594 43.2876 179.733 41.3283 176.941 41.3283C174.175 41.3283 172.288 43.263 172.288 46.7898C172.288 50.3419 174.175 52.275 176.941 52.275C179.709 52.2759 181.594 50.3419 181.594 46.7898Z" fill="#DFD4A6"/>
<path d="M188.516 38.6841H191.552L195.689 44.5376C196.23 45.2979 196.622 45.9089 196.989 46.5454H197.038C197.356 45.9327 197.772 45.2471 198.286 44.4392L202.033 38.6841H205.093V54.8226H201.739V46.155C201.739 45.5169 201.739 44.782 201.762 44.2202H201.739C201.543 44.6369 200.905 45.5669 200.636 45.9819L197.747 50.4396H196.229L192.972 45.8368C192.627 45.3717 192.237 44.8575 191.894 44.2448H191.845C191.869 44.8083 191.869 45.5432 191.869 46.0574V54.8234H188.514V38.6841H188.516Z" fill="#DFD4A6"/>
<path d="M209.254 38.6848H214.324C217.826 38.6848 219.393 40.7172 219.393 42.7733C219.393 44.0955 218.732 45.3938 217.482 46.0311V46.0803C219.418 46.5945 220.496 48.1619 220.496 49.9744C220.496 52.4226 218.585 54.8241 214.765 54.8241H209.255V38.6848H209.254ZM213.883 45.2716C215.353 45.2716 216.113 44.4383 216.113 43.386C216.113 42.2837 215.377 41.4258 213.81 41.4258H212.609V45.2708H213.883V45.2716ZM214.324 52.0798C216.186 52.0798 217.115 51.4442 217.115 49.9744C217.115 48.7253 216.185 48.0142 214.641 48.0142H212.608V52.0798H214.324Z" fill="#DFD4A6"/>
<path d="M227.097 38.6832H223.743V54.8217H227.097V38.6832Z" fill="#DFD4A6"/>
<path d="M235.652 38.6102H238.37L244.958 54.8241H241.358L239.791 50.88H234.306L232.812 54.8241H229.359L235.652 38.6102ZM238.787 48.1865L237.832 45.4685C237.44 44.2932 237.243 43.6059 237.098 43.0678H237.047C236.925 43.6313 236.68 44.317 236.239 45.4914L235.261 48.1865H238.787V48.1865Z" fill="#DFD4A6"/>
<path d="M259.014 54.8241L252.256 45.9827C251.667 45.1994 251.152 44.4637 250.591 43.7535H250.541C250.614 44.3423 250.614 45.3462 250.614 46.1295V54.8241H247.26V38.6848H250.614L257.103 47.1826C257.741 47.9904 258.255 48.7007 258.746 49.4102H258.794C258.746 48.5531 258.746 47.477 258.746 46.7167V38.6848H262.1V54.8241H259.014Z" fill="#DFD4A6"/>
<path d="M270.694 38.6102H273.412L280 54.8241H276.399L274.833 50.88H269.347L267.853 54.8241H264.4L270.694 38.6102ZM273.829 48.1865L272.874 45.4685C272.482 44.2932 272.285 43.6059 272.139 43.0678H272.089C271.967 43.6313 271.722 44.317 271.28 45.4914L270.302 48.1865H273.829V48.1865Z" fill="#DFD4A6"/>
<path d="M34.7383 70.8331C34.2429 70.8331 33.8845 70.8249 33.6573 70.8183C33.4482 70.8249 33.0889 70.8331 32.5935 70.8331C30.1297 70.8323 26.2676 70.6469 21.8542 69.7784C15.5922 68.544 10.7598 66.6453 7.07807 63.974C7.03296 63.9412 6.95176 63.8863 6.84595 63.8141L6.78608 63.7731C6.55972 63.6181 6.24559 63.4065 5.89128 63.1137C5.5386 62.8241 5.23105 62.5281 4.95547 62.2074C4.424 61.5955 3.99341 60.8713 3.71291 60.111C3.39059 59.2622 3.23147 58.3272 3.23147 57.3307V16.4099L2.21609 15.8449C1.84702 15.639 1.51321 15.3864 1.22451 15.0969C0.794741 14.6728 0.446168 14.1274 0.246867 13.5664C0.0811926 13.1129 0 12.6331 0 12.1451V7.58904C0 6.84351 0.220622 4.41334 3.05923 4.41334H17.8215C18.5383 3.96799 25.1644 0 33.4957 0H33.6655H33.8328C42.1633 0 48.7902 3.96717 49.5079 4.41334H64.2693C67.1112 4.41334 67.3293 6.84351 67.3293 7.58904V12.1451C67.3293 12.6331 67.2465 13.1129 67.0817 13.5664C66.8824 14.1274 66.5354 14.6728 66.1048 15.0985C65.8178 15.3864 65.4831 15.639 65.1133 15.8449L64.0962 16.4099V57.3307C64.0995 58.3272 63.9388 59.2613 63.6189 60.111C63.3368 60.8713 62.9062 61.5955 62.3739 62.2074C62.0983 62.5289 61.7907 62.825 61.4405 63.1137C61.0838 63.4056 60.7729 63.6173 60.5424 63.7731L60.4834 63.8141C60.3759 63.8863 60.2956 63.9412 60.2513 63.974C56.5704 66.6453 51.7371 68.544 45.4751 69.7784C41.0642 70.6477 37.2021 70.8331 34.7383 70.8331Z" fill="#DFD4A6"/>
<path d="M47.6332 8.84145V11.9245C47.6332 12.2058 47.9219 12.4387 48.0548 12.5134C50.2602 13.7559 50.7154 14.0241 50.7154 14.6056V52.376C50.7154 53.6457 50.2356 53.9918 49.3014 54.4519C46.8967 55.637 41.5722 57.7596 33.7067 57.7596C25.8388 57.7596 20.516 55.637 18.1112 54.4519C17.1787 53.991 16.6948 53.6457 16.6948 52.376V14.6064C16.6948 14.0299 17.1434 13.7321 19.3087 12.5142C19.4571 12.4297 19.7786 12.2607 19.7786 11.8556V8.91118C19.7786 8.51176 19.5498 7.79656 18.8781 7.79656H4.57759C3.90752 7.79656 3.67542 8.28703 3.67542 8.91118V11.9253C3.67542 12.2935 4.08549 12.41 4.27003 12.5142C6.32209 13.6714 6.7289 14.0405 6.7289 14.6064V56.8894C6.7289 59.3245 7.49904 60.0192 8.3676 60.6491C18.1473 67.7518 33.7059 67.0275 33.7059 67.0275C33.7059 67.0275 48.5264 67.7518 58.3061 60.6491C59.1738 60.0192 60.6821 59.3245 60.6821 56.8894V14.6064C60.6821 14.0217 61.2767 13.7707 63.5224 12.5142C63.647 12.4428 63.916 12.278 63.916 11.9253V8.84227C63.916 8.44285 63.6265 7.75964 62.9564 7.75964H48.5912C47.9219 7.75882 47.6332 8.44203 47.6332 8.84145Z" fill="#8F141B"/>
<path d="M25.9896 26.4021C23.8063 25.1185 22.932 23.3732 22.5826 22.1356C22.2037 20.7922 22.3414 19.762 22.3472 19.7194L22.7097 19.7702C22.7048 19.8096 22.2135 23.7546 26.1766 26.0847L25.9896 26.4021Z" fill="#8F141B"/>
<path d="M43.804 24.1974L43.5046 23.9834C44.9785 21.9157 44.6496 19.6881 44.6463 19.666L45.0113 19.616C45.0261 19.7095 45.364 22.0117 43.804 24.1974Z" fill="#8F141B"/>
<path d="M35.1132 53.945C33.8042 53.945 32.5903 53.6744 31.5028 53.138V53.3414C31.5028 53.4956 31.3781 53.6178 31.2256 53.6178H23.6989C23.548 53.6178 23.4217 53.4956 23.4217 53.3414V41.7286C23.4217 41.5769 23.548 41.4531 23.6989 41.4531H29.4228C28.7118 40.9085 27.5865 40.044 26.9541 39.5412C25.892 38.6964 23.4208 36.368 23.4208 32.9856C23.4208 28.8069 25.3359 26.5301 26.9402 25.3531C29.1817 23.712 31.6086 23.5848 32.3008 23.5848C33.6114 23.5848 34.822 23.8555 35.9112 24.3943V24.1885C35.9112 24.0359 36.0342 23.9129 36.1868 23.9129H43.7143C43.8668 23.9129 43.9915 24.0359 43.9915 24.1885V35.8005C43.9915 35.9546 43.8668 36.0777 43.7143 36.0777H37.9846C38.6161 36.5648 39.6061 37.3292 40.4574 37.987C42.1642 39.3091 43.9923 41.727 43.9923 44.5443C43.9923 48.7985 42.0715 51.0753 40.4599 52.235C38.261 53.8212 35.8111 53.945 35.1132 53.945ZM31.2256 52.4015C31.274 52.4015 31.3199 52.4138 31.3625 52.4376C32.4862 53.0806 33.7131 53.3922 35.1132 53.3922C35.7701 53.3922 38.0715 53.2758 40.1367 51.7855C41.6442 50.7005 43.4379 48.5631 43.4379 44.5434C43.4379 41.9271 41.7221 39.6667 40.1187 38.425C38.7441 37.3588 37.0061 36.0178 37.0061 36.0178C36.9126 35.9464 36.8749 35.8234 36.9126 35.7102C36.952 35.5987 37.0553 35.5232 37.1759 35.5232H43.4379V24.4641H36.4665V24.8504C36.4665 24.9512 36.414 25.0406 36.327 25.0907C36.2417 25.1391 36.1384 25.1407 36.0514 25.0907C34.9294 24.4501 33.7025 24.1368 32.3016 24.1368C31.6537 24.1368 29.3753 24.2582 27.2682 25.7993C25.7657 26.8975 23.9745 29.0373 23.9745 32.984C23.9745 36.126 26.2988 38.3118 27.2986 39.1065C28.2623 39.8742 30.3857 41.4924 30.4079 41.5096C30.5022 41.5802 30.5383 41.7032 30.5022 41.8164C30.4628 41.9288 30.357 42.0042 30.2397 42.0042H23.9745V53.0634H30.9484V52.6762C30.9484 52.577 31.0008 52.4876 31.0853 52.4368C31.1288 52.4138 31.1772 52.4015 31.2256 52.4015Z" fill="#8F141B"/>
<path d="M35.1132 52.0676C33.103 52.0676 31.9679 51.2844 31.3585 50.8628L31.1969 50.7488C30.8221 50.4839 30.6367 50.3559 30.2595 50.3986C29.7346 50.456 29.6247 50.7832 29.6247 51.0482V51.5723C29.6247 51.6641 29.55 51.7388 29.4573 51.7388H25.4705C25.377 51.7388 25.3024 51.6641 25.3024 51.5723V43.4961C25.3024 43.4042 25.377 43.3296 25.4705 43.3296H31.3208C31.3569 43.3296 31.3954 43.3435 31.4249 43.3673C31.4381 43.3796 32.8545 44.5286 33.3007 44.8592L33.3933 44.9305C33.6148 45.1019 33.9527 45.3595 34.321 45.3595C34.5973 45.3595 34.8557 45.2225 35.1141 44.9363C35.3339 44.6976 35.4364 44.4401 35.4183 44.1711C35.4011 43.8807 35.2354 43.5879 34.9566 43.3468L28.1951 38.1239C27.1149 37.2751 25.3024 35.4781 25.3024 32.9831C25.3024 27.0336 29.8805 25.4597 32.3025 25.4597C34.3127 25.4597 35.4454 26.2446 36.0572 26.6654L36.2188 26.7786C36.5928 27.0418 36.7741 27.1681 37.1563 27.1279C37.6804 27.0705 37.7903 26.7425 37.7903 26.4775V25.9543C37.7903 25.8616 37.8657 25.7861 37.9568 25.7861H41.9461C42.0379 25.7861 42.1134 25.8616 42.1134 25.9543V34.0288C42.1134 34.1232 42.0379 34.1961 41.9461 34.1961H36.0958C36.0581 34.1961 36.0212 34.183 35.99 34.1592C35.976 34.1494 34.5604 32.9971 34.1134 32.6682L34.0191 32.596C33.7985 32.4262 33.463 32.1687 33.0948 32.1687C32.8176 32.1687 32.56 32.3057 32.3001 32.5894C32.0819 32.8289 31.9794 33.0865 31.9966 33.3555C32.0138 33.6475 32.1795 33.9378 32.4583 34.1789L39.2206 39.4026C41.1415 40.9535 42.1134 42.6808 42.1134 44.5426C42.1134 47.3213 41.1882 49.3947 39.3625 50.7103C37.6172 51.9692 35.6693 52.0676 35.1132 52.0676Z" fill="#8F141B"/>
<path d="M33.6178 23.8358C29.4981 23.8358 26.6849 22.7039 25.0487 21.7542C23.2706 20.72 22.4791 19.6931 22.4455 19.6505L22.7383 19.4274C22.7703 19.4676 25.9123 23.4675 33.6178 23.4675C37.6457 23.4675 40.39 22.3685 41.9803 21.4475C43.7059 20.4485 44.4892 19.4372 44.4966 19.4274L44.7902 19.6505C44.7557 19.6939 43.9643 20.7208 42.1853 21.7542C40.5524 22.7039 37.7392 23.8358 33.6178 23.8358Z" fill="#8F141B"/>
<path d="M46.9805 49.2545C46.9805 48.9641 46.9772 48.4015 46.9739 47.633C46.969 45.7859 46.96 42.8137 46.9567 39.5469V39.3255C46.955 38.0895 46.9526 36.0793 46.9526 34.8088C48.0073 34.1994 50.3415 31.5798 46.8328 22.261C46.367 20.9012 45.8298 20.1483 45.4262 19.753C45.9372 19.5086 46.3522 19.0402 46.6007 18.6105C47.2068 17.5664 47.4061 16.1975 47.5119 15.4618C47.5357 15.306 47.5513 15.183 47.5694 15.1067C47.7293 14.3415 47.5275 13.9486 46.8164 13.6566L45.9036 13.2769V8.83814C45.9036 7.96384 45.9848 7.89167 46.2522 7.64726C46.3079 7.59313 46.376 7.5349 46.4482 7.46026C46.7344 7.17566 46.8558 6.83529 46.791 6.50148C46.7344 6.2177 46.5171 5.81582 45.8027 5.51153C40.406 3.15683 35.3931 2.97559 33.9841 2.97559C33.8315 2.97559 33.7454 2.97804 33.7438 2.97804C33.7306 2.97804 33.6429 2.97559 33.4895 2.97559C32.0821 2.97559 27.0709 3.15765 21.675 5.51153C20.9557 5.81582 20.7408 6.2177 20.6867 6.50148C20.6194 6.83611 20.7408 7.17566 21.0262 7.46026C21.0926 7.52916 21.1574 7.58658 21.214 7.63825C21.483 7.88758 21.5544 7.95318 21.5544 8.83814L21.556 13.2736C21.3403 13.3589 20.9655 13.5123 20.6342 13.6591C19.9247 13.9708 19.7287 14.3497 19.8903 15.1067C19.9059 15.183 19.9247 15.306 19.9469 15.4618C20.0527 16.1975 20.2528 17.5664 20.8581 18.6105C21.1878 19.1764 21.5437 19.5504 21.9358 19.7513C21.4691 20.2262 21.0032 21.0332 20.571 22.1388C17.6783 29.8181 18.5977 33.777 20.4693 34.8375C20.4718 39.5535 20.4824 45.0978 20.4915 47.6387C20.4923 48.4056 20.4939 48.9649 20.4956 49.2553C20.2003 49.5194 19.8657 50.1165 19.7681 50.7152C19.6606 51.3779 19.8361 51.9602 20.2749 52.4006C21.4388 53.5636 29.1131 55.1056 33.7364 55.1056C38.3613 55.1056 46.0323 53.5636 47.1986 52.4006C47.6366 51.9602 47.8138 51.3779 47.708 50.7152C47.6112 50.1173 47.2741 49.5202 46.9805 49.2545ZM46.6073 14.1684C47.0723 14.3604 47.1347 14.485 47.0297 14.9943C47.0108 15.0788 46.9895 15.2133 46.9657 15.3839C46.8656 16.0835 46.6745 17.3851 46.1234 18.3341C45.9905 18.5645 45.7912 18.8188 45.5517 19.0197C45.3951 19.1518 44.9424 19.3765 44.8915 18.5572C44.8571 18.0208 44.9251 17.4877 45.1236 16.9644C45.6321 15.6267 45.8478 14.7852 45.8937 13.8748L46.6073 14.1684ZM40.4322 11.3676C38.5622 11.2749 37.3738 12.2295 36.6718 13.1416C36.1296 13.5221 35.0298 14.1455 33.6724 14.1045C32.2732 14.1045 31.166 13.4295 30.6575 13.0538C29.9464 12.1672 28.7744 11.279 26.9626 11.3676C24.0313 11.5045 22.8216 13.7682 22.4024 15.3003C22.2499 14.6892 22.1498 14.0995 22.1121 13.5361L22.9331 13.258C22.9987 13.2367 23.0455 13.1727 23.0463 13.1014L23.0643 11.8047C23.6253 11.5972 26.4311 10.6072 30.6566 10.0889C30.7419 10.0774 30.8018 10.0069 30.8018 9.92322V9.46969H36.3142V9.92322C36.3142 10.0085 36.379 10.0807 36.4634 10.0889C36.5102 10.0946 41.0162 10.5777 44.4355 11.8703V13.0842C44.4355 13.1531 44.4765 13.2137 44.5388 13.24C44.5519 13.2433 44.8078 13.3483 45.3508 13.5312C45.3459 14.1553 45.2704 14.704 45.0769 15.3888C44.6586 13.8822 43.4406 11.5062 40.4322 11.3676ZM43.2069 13.1186C43.0453 13.3909 42.107 14.7803 40.1271 14.4858C39.2889 14.3604 38.7148 13.8969 38.3744 13.4442C38.0029 12.9554 38.1177 12.5174 38.2284 12.451C38.7935 12.1065 39.5104 11.8777 40.4052 11.9179C41.6584 11.9786 42.5622 12.4715 43.2069 13.1186ZM35.9615 14.7549C35.9754 14.7598 37.2729 15.201 38.3154 16.4821C38.3982 16.6019 38.1341 16.8356 37.9463 16.7864C37.5206 16.6749 36.5848 16.4723 35.9894 17.2506C35.9845 17.258 35.9771 17.2629 35.973 17.2695C35.9147 17.3302 35.193 18.0585 33.7487 18.0585C32.2806 18.0585 31.4809 17.2965 31.4399 17.2555C30.6017 16.4993 29.8004 16.7208 29.323 16.7881C29.0934 16.8217 28.8465 16.6544 28.9777 16.4641C30.0267 15.1994 31.4104 14.7622 31.4251 14.7573C31.5572 14.7024 31.6269 14.5564 31.5851 14.4194C31.5785 14.4079 31.4497 14.2931 31.1413 13.7624C31.7663 14.1028 32.6373 14.4366 33.6658 14.4366C33.7142 14.4375 33.7569 14.4374 33.8053 14.4374C34.7862 14.4374 35.6219 14.1291 36.2272 13.8059C35.9369 14.3144 35.8122 14.4079 35.8081 14.4194C35.7679 14.5539 35.8344 14.6974 35.9615 14.7549ZM29.1442 13.3442C28.8047 13.819 28.2207 14.3522 27.3194 14.4867C25.2944 14.786 24.3594 13.3269 24.2257 13.1014C24.8597 12.4616 25.7512 11.9769 26.9856 11.9195C27.8763 11.8793 28.5783 12.1155 29.1492 12.4411C29.3485 12.5527 29.4239 12.9529 29.1442 13.3442ZM22.1055 8.7389C22.8503 8.46988 25.7865 7.43648 28.1133 7.0469C28.1305 7.05756 28.1527 7.07068 28.1756 7.08544C29.852 8.11066 31.7155 8.62819 33.7142 8.62819C35.7105 8.62819 37.5731 8.11066 39.2487 7.08544C39.2742 7.07068 39.2955 7.05674 39.3127 7.0469C41.6403 7.43648 44.602 8.46988 45.3508 8.7389C45.3508 8.77252 45.35 8.80617 45.35 8.84062V13.1785C45.0695 13.0834 44.8751 13.012 44.7685 12.9718V11.7555C44.7685 11.6866 44.7266 11.6243 44.661 11.5988C41.5436 10.3973 37.4731 9.87239 36.648 9.77397V9.30402C36.648 9.21052 36.5742 9.13587 36.4815 9.13587H30.6345C30.5434 9.13587 30.4696 9.21052 30.4696 9.30402V9.77642C25.793 10.3669 22.865 11.5225 22.8347 11.5349C22.7723 11.5603 22.7313 11.6202 22.7289 11.6882L22.7125 12.9808L22.1055 13.1867V8.83979C22.1072 8.80534 22.1055 8.77252 22.1055 8.7389ZM21.4174 7.07233C21.3297 6.98375 21.1886 6.80741 21.2271 6.6081C21.2706 6.39158 21.5044 6.18571 21.8956 6.02003C27.3308 3.6481 32.5086 3.52836 33.4903 3.52836C33.6445 3.52836 33.7249 3.53002 33.747 3.53002C33.7495 3.53002 33.8323 3.52836 33.9841 3.52836C34.9674 3.52836 40.146 3.64812 45.5837 6.02169C45.97 6.18572 46.2079 6.3924 46.2489 6.6081C46.2874 6.80741 46.148 6.98375 46.0594 7.07233C45.9946 7.13794 45.9339 7.19207 45.879 7.24128C45.5886 7.50701 45.4435 7.68662 45.3836 8.16314C44.4125 7.82031 41.5583 6.8476 39.3127 6.48591C39.2963 6.48427 39.2824 6.48426 39.2676 6.48426C39.1774 6.48426 39.1216 6.51542 38.9625 6.61384C37.3738 7.58574 35.6072 8.07704 33.7159 8.07704C31.8205 8.07704 30.0546 7.58574 28.4651 6.61384C28.2806 6.49983 28.2199 6.47115 28.1157 6.48591C25.8726 6.8476 23.0422 7.81703 22.0793 8.16314C22.0211 7.68006 21.8751 7.49799 21.588 7.23389C21.5372 7.18632 21.4798 7.13466 21.4174 7.07233ZM21.6331 18.7778C21.5323 18.6507 21.4338 18.503 21.3354 18.3332C20.7843 17.3843 20.594 16.0827 20.4931 15.3831C20.4701 15.2125 20.4472 15.078 20.4308 14.9919C20.325 14.4908 20.3848 14.3759 20.8581 14.166C21.1041 14.0561 21.3772 13.9445 21.5872 13.8584C21.6832 14.8451 21.9415 15.8875 22.3524 16.9636C22.5279 17.4245 22.5484 17.9748 22.4861 18.5703C22.4139 19.2371 21.8538 19.055 21.6331 18.7778ZM46.8074 52.0102C45.9266 52.8944 38.6894 54.5519 33.7372 54.5519C30.8477 54.5519 27.1791 53.9877 24.4496 53.3405H23.6179V53.133C22.0932 52.7344 20.9811 52.3219 20.667 52.0102C20.3643 51.7068 20.2446 51.318 20.3077 50.853C20.3906 50.228 20.7777 49.7072 20.895 49.6408C20.8983 49.6383 20.9007 49.635 20.9048 49.635C21.2928 49.7999 22.2327 50.1763 23.6188 50.5856V50.2354C22.3163 49.8474 21.4232 49.4915 21.0492 49.3316C21.0492 49.0748 21.0475 48.4851 21.0443 47.6354C21.0393 46.1509 21.0328 43.8881 21.0278 41.3226C21.5085 41.4243 22.5296 41.6449 23.6179 41.8492V41.7278L24.8548 41.6556C23.3489 41.3989 21.6184 41.1093 21.0278 40.9806C21.0278 40.5319 21.0262 40.0768 21.0262 39.6125C21.4486 39.7257 24.4028 40.495 28.6398 40.9076C29.0147 41.1971 29.3903 41.4858 29.7093 41.7278H30.1588C30.1588 41.7278 28.3889 40.3786 27.3333 39.551C27.248 39.6708 27.2693 39.8348 27.3833 39.9267C27.5933 40.0932 27.8574 40.2998 28.1412 40.5221C23.9165 40.0686 21.1008 39.2861 21.0631 39.2755C21.0508 39.2738 21.0402 39.2746 21.027 39.2738C21.027 38.128 21.0237 36.9437 21.0237 35.7684C21.3764 35.4764 22.8289 35.3255 24.1724 35.3255C24.2585 35.3255 24.3315 35.387 24.3815 35.3255C24.3077 35.1779 24.2388 35.0745 24.174 34.9203L24.1724 34.7727C22.5378 34.7727 21.9112 34.8597 20.854 34.4135C19.928 34.0231 19.2251 32.7789 19.2973 29.8246C19.3326 28.4271 19.7443 26.6981 19.7443 26.6981C20.0371 25.422 20.471 23.9752 21.0869 22.3398C21.6011 21.0291 22.0596 20.4058 22.3606 20.1081L22.8109 19.5988C23.0701 18.4235 23.1709 17.5631 22.8675 16.7667C22.833 16.6716 22.7994 16.5756 22.7658 16.4813C22.7658 15.9548 23.043 14.4522 24.0329 13.3114C24.2634 13.6665 25.1443 14.8049 26.7953 14.8049C26.9774 14.8049 27.166 14.7918 27.3612 14.7614C28.8457 14.5416 29.5223 13.3737 29.7446 12.8783C30.4442 13.5065 30.8223 13.9814 30.9749 14.3579C30.4746 14.6056 29.3025 15.1231 28.4003 16.3001V16.3017C28.3987 16.3025 28.3987 16.3025 28.3987 16.3025C28.3905 16.3115 28.1969 16.6142 28.379 16.8258V16.8274V16.8291C28.4389 16.9381 28.9868 17.5615 31.1397 17.7157C31.4957 18.0396 32.4019 18.6105 33.7503 18.6105C35.1142 18.6105 35.9721 18.0388 36.2994 17.7157C38.4794 17.5541 38.8542 16.8791 38.9166 16.7913C39.0445 16.6142 38.9371 16.3796 38.8805 16.3025C37.9824 15.1313 36.8883 14.6138 36.4183 14.3644C36.5709 13.9839 36.9588 13.4836 37.6879 12.8463C37.8979 13.3204 38.5672 14.5359 40.0845 14.7606C40.2838 14.7909 40.4724 14.8041 40.6512 14.8041C42.2793 14.8041 43.1568 13.6976 43.4053 13.3277C44.4314 14.4998 44.7102 16.0409 44.7102 16.4805L44.7135 16.4838C44.6799 16.5756 44.6463 16.6691 44.6077 16.7659C44.2534 17.6935 44.2829 18.7228 44.5421 19.598L45.418 20.6002C45.6928 20.9898 46.0127 21.5762 46.312 22.4489C47.0125 24.3147 47.4734 25.9321 47.7727 27.3198C47.9983 28.3573 48.1271 30.0067 48.1271 30.0067C48.223 32.45 47.5037 33.9813 46.5794 34.3799C45.596 34.8047 44.766 34.7867 43.6629 34.7867C43.6506 34.7867 43.6424 34.7908 43.6317 34.7916V34.9163H43.603C43.603 35.0688 43.4103 35.191 43.5628 35.191C44.5027 35.191 45.4623 35.1713 46.3981 35.7676C46.3981 37.0003 46.3998 38.1879 46.4014 39.3837C45.058 39.7454 43.5727 40.0177 42.1374 40.2228C42.2071 40.3204 42.2752 40.4237 42.3441 40.5295C43.5645 40.345 44.7882 40.1063 45.8872 39.8578C46.312 39.761 46.4022 39.9513 46.4022 40.4393C46.4022 40.9248 46.3243 40.9847 45.9446 41.0626C45.2548 41.207 44.0877 41.4473 42.9666 41.6449C43.0133 41.7491 43.0633 41.8541 43.106 41.9607C44.4675 41.7171 45.8708 41.4218 46.4039 41.3086C46.4096 43.8659 46.4187 46.1263 46.4219 47.6346C46.4219 48.4794 46.4244 49.0732 46.4244 49.3299C45.8535 49.5677 44.1 50.2469 41.5239 50.8144C41.3943 50.9653 41.2606 51.1105 41.1253 51.2417C44.0008 50.6471 45.961 49.8868 46.5671 49.6317C46.5712 49.635 46.5737 49.6375 46.5786 49.6408C46.6975 49.7064 47.083 50.228 47.1683 50.853C47.2314 51.3188 47.1101 51.7068 46.8074 52.0102ZM38.1661 19.1723C38.1177 19.1723 38.0734 19.1772 38.0365 19.1846C36.5594 19.4848 33.9152 19.493 33.6232 19.493C33.3304 19.493 30.6878 19.4848 29.2099 19.1846C29.1697 19.178 29.1262 19.1723 29.0794 19.1723C28.6521 19.1723 28.0821 19.5184 27.8689 20.1631C27.7409 20.5403 27.8254 20.989 28.0944 21.3621C28.3372 21.6984 28.671 21.8969 28.9884 21.8969H33.6224H38.2547C38.5745 21.8969 38.9051 21.6976 39.1487 21.3621C39.4177 20.9881 39.5022 20.5403 39.3775 20.1631C39.1626 19.5192 38.5926 19.1723 38.1661 19.1723ZM37.7741 19.7407C37.8987 19.721 38.0193 19.6923 38.1341 19.6767C38.3293 19.6496 38.6229 19.753 38.7271 19.9933C38.7476 20.0433 38.732 20.1614 38.445 20.2237C38.2416 20.2672 37.9668 20.3049 37.6199 20.3468L37.7741 19.7407ZM31.0602 19.908C32.2568 19.9892 33.6232 19.9933 33.6232 19.9933C33.6232 19.9933 34.988 19.9892 36.1838 19.908L36.4298 20.4517C35.5924 20.5141 34.5943 20.5461 33.6232 20.5461C32.6513 20.5461 31.654 20.5141 30.8149 20.4517L31.0602 19.908ZM28.5193 19.9933C28.6243 19.753 28.9154 19.6496 29.1114 19.6767C29.2271 19.6923 29.3468 19.721 29.4715 19.7407L29.6257 20.3468C29.2779 20.3049 29.0048 20.2672 28.799 20.2237C28.5152 20.1606 28.4971 20.0433 28.5193 19.9933ZM28.9892 21.3974C28.84 21.3974 28.6431 21.2654 28.5037 21.0685C28.4184 20.9529 28.3643 20.8274 28.3356 20.706C28.2929 20.5223 28.4323 20.4665 28.6562 20.5042C28.9047 20.5461 29.2459 20.6084 29.7069 20.6601L29.8931 21.3974H28.9892ZM30.0768 20.9037C30.0226 20.6961 29.7963 19.7874 29.7963 19.7874C30.0981 19.8251 30.418 19.858 30.7395 19.8842C30.7395 19.8842 30.3499 20.7536 30.2802 20.9037C30.2023 21.0734 30.1334 21.1218 30.0768 20.9037ZM33.6232 21.3974H30.3909L30.6837 20.7462L30.687 20.7478C31.5588 20.8151 32.6045 20.8479 33.6232 20.8479C34.6418 20.8479 35.6851 20.8151 36.5594 20.7478V20.7462L36.8538 21.3974H33.6232ZM36.9654 20.9037C36.8965 20.7527 36.5053 19.8842 36.5053 19.8842C36.8276 19.858 37.1491 19.8251 37.4501 19.7874C37.4501 19.7874 37.2237 20.6961 37.1712 20.9037C37.1138 21.1218 37.0425 21.0734 36.9654 20.9037ZM38.7419 21.0685C38.6024 21.2654 38.4056 21.3974 38.2563 21.3974H37.3533L37.5403 20.6601C37.9996 20.6084 38.3433 20.5461 38.5885 20.5042C38.8124 20.4665 38.9543 20.5223 38.91 20.706C38.8821 20.8274 38.828 20.9529 38.7419 21.0685Z" fill="#8F141B"/>
</svg>
