<svg width="300" height="76" viewBox="0 0 300 76" fill="none" xmlns="http://www.w3.org/2000/svg">
<path d="M89.7724 25.3512L89.7592 27.7475C89.7592 28.1113 89.7461 28.462 89.7241 28.7765C89.6503 29.8548 89.2742 30.5815 88.536 31.0894C87.9306 31.5015 87.13 31.7186 86.1757 31.7186C85.4982 31.7186 84.8918 31.6219 84.3602 31.4049C83.985 31.2581 83.6326 31.0648 83.3786 30.7748C82.8821 30.2291 82.7002 29.5393 82.7125 28.3284L82.7363 25.3389C82.7477 24.2369 82.6642 23.5717 82.4937 23.0506L82.7986 23.0638H83.5851L83.9727 23.0506L83.9006 23.9355C83.8865 24.1411 83.8865 24.577 83.8769 25.2431L83.8505 27.8451C83.8391 28.9602 83.9015 29.31 84.093 29.759C84.4085 30.4734 85.2565 30.9216 86.2592 30.9216C86.8532 30.9216 87.3866 30.7871 87.811 30.5455C88.1502 30.3398 88.4165 30.049 88.5615 29.7221C88.7671 29.237 88.8163 28.7291 88.8278 27.5314L88.8409 25.352C88.8541 24.2501 88.768 23.584 88.5984 23.0629L88.913 23.0752H89.5905L89.9324 23.0629C89.797 23.9232 89.7724 24.1754 89.7724 25.3512Z" fill="#4D626C"/>
<path d="M100.632 23.5945C100.597 23.8863 100.571 24.1763 100.571 24.4777C100.571 24.7211 100.56 25.2053 100.56 25.932L100.547 29.346C100.547 29.5393 100.547 29.7818 100.56 30.0841C100.597 30.7142 100.608 30.9436 100.668 31.622H100.21L99.7128 31.6334C99.2532 30.9321 99.0607 30.665 98.6591 30.1571L95.0879 25.6412L94.1195 24.3837L94.145 25.0005L94.1318 29.0446C94.1318 30.049 94.2285 30.9576 94.4095 31.491L94.0949 31.4664H93.4051L93.0544 31.491C93.1036 31.2476 93.1274 31.0674 93.1379 30.9453C93.1757 30.6667 93.2109 30.3768 93.2109 30.0736V29.0314L93.224 25.3389C93.224 24.2369 93.1643 23.5831 92.9938 23.0629L93.6221 23.0875L94.7021 23.0506C95.1248 23.7782 95.3067 24.0445 95.7786 24.6491L98.9869 28.7774L99.6653 29.6377L99.6284 28.7774L99.6398 25.9215C99.6398 24.7106 99.5317 23.6332 99.3393 23.0629L99.6284 23.0761H100.368L100.719 23.0629C100.668 23.3045 100.645 23.4741 100.632 23.5945Z" fill="#4D626C"/>
<path d="M105.187 31.4646H104.304L103.963 31.4884L104.035 30.9444C104.108 30.4233 104.122 30.302 104.122 29.1878L104.134 25.3371C104.134 24.2598 104.06 23.5699 103.892 23.0488L104.195 23.062H104.981L105.369 23.0488L105.296 23.9337C105.284 24.1394 105.273 24.5752 105.273 25.2413L105.259 29.201C105.259 30.3021 105.333 30.9673 105.502 31.4884L105.187 31.4646Z" fill="#4D626C"/>
<path d="M115.389 23.6807L115.059 24.3705L114.723 25.121L112.675 30.0481C112.313 30.9198 112.265 31.0666 112.143 31.6712L111.889 31.6466H111.356L111.052 31.6712C110.98 31.2239 110.957 31.0903 110.74 30.5103L108.767 25.1702C108.355 24.0445 108.052 23.475 107.797 23.0629L108.101 23.0761H109.058L109.48 23.0497C109.504 23.2686 109.515 23.4373 109.538 23.5471C109.589 23.8503 109.746 24.3468 110 25.0726L111.332 28.9594L111.755 30.2907L112.324 28.8495L113.631 25.4356C113.959 24.5876 114.115 24.0067 114.115 23.5471C114.115 23.3775 114.102 23.28 114.032 23.0629L114.417 23.0761H115.326L115.675 23.0497L115.699 23.099C115.557 23.3538 115.447 23.5471 115.389 23.6807Z" fill="#4D626C"/>
<path d="M123.085 30.6299L122.976 31.1009L122.891 31.5367C122.671 31.5253 122.514 31.513 122.417 31.513C122.369 31.513 121.885 31.5016 120.955 31.4893L119.331 31.4656L118.131 31.4893L118.205 30.9453C118.277 30.4111 118.289 30.3039 118.289 29.1887L118.302 25.338C118.302 24.2361 118.242 23.5832 118.071 23.0621L118.713 23.0735H120.396C121.765 23.0735 121.898 23.0621 122.709 23.0383L122.55 23.4259L122.392 23.9215L122.309 24.2247L122.162 24.2484C121.946 24.0058 121.836 23.9329 121.547 23.8477C121.218 23.751 120.82 23.7027 120.37 23.7027C120.178 23.7027 119.852 23.715 119.488 23.7378L119.438 25.2027V26.6439H121.035C121.546 26.6439 121.763 26.6201 122.343 26.5709L122.453 26.6676L122.282 27.0428L122.124 27.4558C121.884 27.4312 121.702 27.4189 121.581 27.4189C121.169 27.3952 120.782 27.382 120.394 27.382C120.067 27.382 119.909 27.382 119.425 27.4075V29.223C119.425 29.368 119.437 29.5499 119.448 29.7792C119.473 30.2151 119.521 30.397 119.666 30.5534C119.861 30.7468 120.138 30.8083 120.842 30.8083C121.289 30.8083 121.639 30.7845 121.968 30.723C122.123 30.6993 122.294 30.651 122.452 30.578C122.668 30.4805 122.789 30.3961 123.032 30.1659L123.19 30.2388L123.085 30.6299Z" fill="#4D626C"/>
<path d="M132.411 31.4883L132.098 31.5015L131.177 31.5252L130.668 31.5604L130.525 31.3433L130.366 31.0657C130.306 30.9453 130.209 30.7985 130.099 30.6166C129.59 29.7932 129.057 29.0304 128.416 28.135C127.872 27.3722 127.642 27.1781 127.351 26.8766C127.931 26.8643 128.295 26.8397 128.597 26.7184C129.179 26.5005 129.531 25.859 129.531 25.156C129.531 24.2246 128.924 23.6182 127.908 23.6182C127.691 23.6182 127.496 23.6314 127.048 23.6912C127.023 24.2008 127.011 24.3221 127.011 25.2413L127 29.2009C127 30.3029 127.073 30.969 127.241 31.4883L126.928 31.4655H126.043L125.703 31.4883C125.836 30.6289 125.861 30.338 125.861 29.1886L125.874 25.3379C125.874 24.236 125.814 23.5831 125.642 23.062L126.273 23.0866L127.423 23.0497C127.738 23.0374 128.017 23.0374 128.282 23.0374C129.312 23.0374 129.688 23.134 130.099 23.46C130.498 23.7878 130.717 24.3318 130.717 24.9249C130.717 25.4328 130.547 25.9663 130.231 26.3046C129.966 26.5849 129.626 26.8142 129.046 27.1156L129.323 27.4909L130.474 29.1377C131.006 29.9127 131.539 30.5788 131.902 30.9532C132.097 31.1474 132.182 31.2203 132.423 31.4022L132.411 31.4883Z" fill="#4D626C"/>
<path d="M136.315 31.7669C136.168 31.7669 136.011 31.7555 135.842 31.7441C135.344 31.6949 135.114 31.6465 134.521 31.4286L134.654 31.0051L134.799 30.4488L134.873 30.1465L135.041 30.1096C135.261 30.4488 135.37 30.5824 135.598 30.7274C135.902 30.933 136.325 31.0543 136.689 31.0543C137.67 31.0543 138.395 30.4005 138.395 29.541C138.395 29.2018 138.285 28.8749 138.081 28.621C137.827 28.3064 137.499 28.0647 136.761 27.6649C135.659 27.0726 135.501 26.9637 135.175 26.6359C134.811 26.2598 134.605 25.7396 134.605 25.1824C134.605 23.7413 135.745 22.7729 137.464 22.7729C137.609 22.7729 137.753 22.7861 137.9 22.7975C138.371 22.8335 138.625 22.895 139.244 23.1007L139.109 23.439L138.929 24.0075L138.868 24.2615L138.711 24.2852C138.275 23.6921 137.839 23.475 137.125 23.475C136.228 23.475 135.635 23.9952 135.635 24.7694C135.635 25.1341 135.779 25.4601 136.047 25.7027C136.325 25.9461 136.615 26.1385 137.403 26.5629C138.395 27.0963 138.698 27.3134 139.026 27.7247C139.317 28.0999 139.461 28.5612 139.461 29.0569C139.461 30.6298 138.155 31.7669 136.315 31.7669Z" fill="#4D626C"/>
<path d="M143.397 31.4646H142.514L142.173 31.4884L142.246 30.9444C142.318 30.4233 142.332 30.302 142.332 29.1878L142.346 25.3371C142.346 24.2598 142.271 23.5699 142.102 23.0488L142.405 23.062H143.192L143.579 23.0488L143.507 23.9337C143.495 24.1394 143.483 24.5752 143.483 25.2413L143.47 29.201C143.47 30.3021 143.544 30.9673 143.712 31.4884L143.397 31.4646Z" fill="#4D626C"/>
<path d="M153.088 30.4831C152.206 31.1993 151.176 31.5016 149.628 31.5016C149.337 31.5016 148.84 31.4647 148.113 31.4647H147.23L146.89 31.4884L146.963 30.9445C147.035 30.4234 147.048 30.3021 147.048 29.1878L147.062 25.3863C147.062 24.2835 146.989 23.5823 146.818 23.0612C147.182 23.0743 146.977 23.0743 147.92 23.0743C148.418 23.0743 149.215 23.0612 149.712 23.0612C150.134 23.0612 150.5 23.0611 150.802 23.0743C151.795 23.0972 152.401 23.2193 152.934 23.497C154.059 24.0893 154.725 25.374 154.725 26.9118C154.725 28.3521 154.144 29.6483 153.088 30.4831ZM152.594 24.6482C151.988 23.9707 151.239 23.7149 149.773 23.7149C149.386 23.7149 148.998 23.7413 148.236 23.7765L148.198 25.2413L148.187 29.1755C148.187 29.3328 148.198 29.5279 148.211 29.7335C148.235 30.1694 148.283 30.3513 148.427 30.5086C148.514 30.5921 148.609 30.6536 148.731 30.6896C148.985 30.7608 149.434 30.7986 149.88 30.7986C152.096 30.7986 153.442 29.4541 153.442 27.215C153.442 26.1746 153.139 25.2659 152.594 24.6482Z" fill="#4D626C"/>
<path d="M163.677 31.4647H162.902L162.37 31.5016L162.286 30.991C162.212 30.6044 162.091 30.2292 161.848 29.5279L161.438 28.3293L160.698 28.3038H159.259L158.411 28.3293L158 29.4313C157.769 30.0604 157.647 30.5684 157.647 30.9322C157.647 31.1141 157.66 31.2345 157.732 31.4884L157.356 31.4647H156.521L156.195 31.4884L156.146 31.4155L156.436 30.8698C156.521 30.7125 156.631 30.4831 156.775 30.18C156.92 29.8671 157.029 29.6105 157.104 29.4304L159.112 24.4892C159.404 23.7879 159.464 23.5823 159.62 22.9759L159.875 22.9408L160.408 22.8547L160.674 22.8063C160.795 23.3151 160.844 23.5076 161.051 24.041L163.059 29.3812C163.217 29.817 163.471 30.3856 163.762 30.9664C163.87 31.1844 163.918 31.2696 164.052 31.4867L163.677 31.4647ZM159.985 24.1517L158.666 27.6272L159.381 27.6518H160.555L161.183 27.6272L159.985 24.1517Z" fill="#4D626C"/>
<path d="M172.693 30.4831C171.808 31.1993 170.781 31.5016 169.231 31.5016C168.94 31.5016 168.445 31.4647 167.717 31.4647H166.835L166.493 31.4884L166.567 30.9445C166.64 30.4234 166.653 30.3021 166.653 29.1878L166.664 25.3863C166.664 24.2835 166.592 23.5823 166.423 23.0612C166.786 23.0743 166.582 23.0743 167.523 23.0743C168.02 23.0743 168.82 23.0612 169.316 23.0612C169.739 23.0612 170.104 23.0611 170.405 23.0743C171.397 23.0972 172.003 23.2193 172.536 23.497C173.662 24.0893 174.328 25.374 174.328 26.9118C174.327 28.3521 173.747 29.6483 172.693 30.4831ZM172.198 24.6482C171.591 23.9707 170.84 23.7149 169.375 23.7149C168.988 23.7149 168.601 23.7413 167.837 23.7765L167.8 25.2413L167.789 29.1755C167.789 29.3328 167.8 29.5279 167.814 29.7335C167.836 30.1694 167.887 30.3513 168.032 30.5086C168.115 30.5921 168.213 30.6536 168.334 30.6896C168.588 30.7608 169.037 30.7986 169.484 30.7986C171.7 30.7986 173.044 29.4541 173.044 27.215C173.044 26.1746 172.741 25.2659 172.198 24.6482Z" fill="#4D626C"/>
<path d="M84.1493 54.7243C85.2513 55.459 86.5641 56.0108 88.0852 56.0108C89.4245 56.0108 90.7619 55.5389 90.7619 54.2261C90.7619 51.1047 83.3628 51.4984 83.3628 46.1978C83.3628 43.6002 85.4349 41.2645 89.1617 41.2645C90.9992 41.2645 92.5467 41.6845 93.5423 42.1836V45.4104C92.0475 44.6767 90.6556 44.2812 89.2672 44.2812C88.1635 44.2812 87.1942 44.6767 87.1942 45.8823C87.1942 48.8217 94.5924 48.4026 94.5924 53.9115C94.5924 57.06 91.8384 59.0021 88.2171 59.0021C86.1959 59.0021 84.1757 58.4511 82.7846 57.4274L84.1493 54.7243Z" fill="#8F141B"/>
<path d="M98.6713 55.7744C98.1722 54.8289 97.9094 53.6233 97.9094 52.205V41.4473H101.504V51.9958C101.504 52.8886 101.687 53.6751 102.003 54.2788C102.607 55.4071 103.76 56.0108 105.361 56.0108C106.935 56.0108 108.091 55.4071 108.694 54.2788C109.035 53.6751 109.192 52.8886 109.192 51.9703V41.4473H112.788V52.205C112.788 53.6224 112.523 54.828 112.027 55.7744C110.897 57.9775 108.536 59.0012 105.336 59.0012C102.134 59.0012 99.7996 57.9775 98.6713 55.7744Z" fill="#8F141B"/>
<path d="M117.119 41.4473H122.286C123.837 41.4473 124.99 41.6837 125.908 42.1028C127.903 42.9684 128.663 44.6222 128.663 46.4597C128.663 48.7145 127.248 50.2893 125.305 50.8939V50.9466C125.829 51.2357 126.592 52.1795 127.508 53.7806L130.316 58.7394H126.197L123.915 54.5943C123.05 52.9668 122.444 52.3113 122.025 52.2058H120.714V58.7394H117.12V41.4473H117.119ZM122.05 49.2928C122.837 49.2928 123.335 49.1627 123.784 48.9254C124.465 48.5054 124.937 47.7971 124.937 46.827C124.937 45.9087 124.517 45.1204 123.757 44.7268C123.364 44.4913 122.865 44.3594 122.077 44.3594H120.713V49.2919H122.05V49.2928Z" fill="#8F141B"/>
<path d="M146.559 57.5847C144.539 58.6884 142.597 59.0012 140.813 59.0012C135.013 59.0012 131.917 55.3289 131.917 50.2638C131.917 45.3041 135.54 41.2645 141.257 41.2645C143.175 41.2645 144.749 41.6054 145.876 42.1054V45.4104C144.488 44.6749 142.991 44.283 141.338 44.283C137.56 44.283 135.749 47.0379 135.749 50.2128C135.749 53.6241 137.875 56.0108 141.258 56.0108C143.018 56.0108 144.305 55.4853 145.563 54.7524L146.559 57.5847Z" fill="#8F141B"/>
<path d="M148.421 50.132C148.421 44.8849 152.041 41.2645 157.236 41.2645C162.431 41.2645 166.053 44.9104 166.053 50.132C166.053 55.4326 162.406 59.0012 157.236 59.0012C152.041 59.0012 148.421 55.4071 148.421 50.132ZM162.222 50.132C162.222 46.3797 160.227 44.2804 157.236 44.2804C154.272 44.2804 152.251 46.3533 152.251 50.132C152.251 53.9378 154.272 56.0091 157.236 56.0091C160.202 56.0099 162.222 53.9378 162.222 50.132Z" fill="#8F141B"/>
<path d="M169.636 41.4473H173.231V55.6962H179.266V58.7385H169.636V41.4473Z" fill="#8F141B"/>
<path d="M180.764 50.132C180.764 44.8849 184.385 41.2645 189.58 41.2645C194.774 41.2645 198.397 44.9104 198.397 50.132C198.397 55.4326 194.749 59.0012 189.58 59.0012C184.385 59.0012 180.764 55.4071 180.764 50.132ZM194.565 50.132C194.565 46.3797 192.571 44.2804 189.58 44.2804C186.616 44.2804 184.594 46.3533 184.594 50.132C184.594 53.9378 186.616 56.0091 189.58 56.0091C192.546 56.0099 194.565 53.9378 194.565 50.132Z" fill="#8F141B"/>
<path d="M201.981 41.4473H205.234L209.667 47.7189C210.246 48.5335 210.667 49.1882 211.06 49.8701H211.112C211.453 49.2137 211.899 48.479 212.449 47.6135L216.464 41.4473H219.743V58.7385H216.149V49.4518C216.149 48.7682 216.149 47.9808 216.174 47.3788H216.149C215.939 47.8253 215.256 48.8217 214.967 49.2664L211.872 54.0424H210.245L206.756 49.1109C206.386 48.6126 205.968 48.0616 205.601 47.4052H205.548C205.574 48.0089 205.574 48.7963 205.574 49.3472V58.7394H201.98V41.4473H201.981Z" fill="#8F141B"/>
<path d="M224.201 41.4481H229.633C233.385 41.4481 235.064 43.6257 235.064 45.8287C235.064 47.2452 234.356 48.6363 233.016 49.3191V49.3718C235.09 49.9228 236.246 51.6021 236.246 53.5441C236.246 56.1672 234.198 58.7402 230.105 58.7402H224.202V41.4481H224.201ZM229.16 48.5054C230.735 48.5054 231.55 47.6126 231.55 46.4851C231.55 45.3041 230.762 44.3849 229.082 44.3849H227.795V48.5045H229.16V48.5054ZM229.633 55.7999C231.628 55.7999 232.623 55.1189 232.623 53.5441C232.623 52.2058 231.627 51.4439 229.972 51.4439H227.794V55.7999H229.633Z" fill="#8F141B"/>
<path d="M243.319 41.4464H239.725V58.7376H243.319V41.4464Z" fill="#8F141B"/>
<path d="M252.485 41.3682H255.396L262.455 58.7402H258.597L256.919 54.5143H251.042L249.442 58.7402H245.741L252.485 41.3682ZM255.843 51.6285L254.82 48.7163C254.401 47.457 254.189 46.7206 254.033 46.1442H253.979C253.848 46.7479 253.586 47.4825 253.113 48.7409L252.066 51.6285H255.843Z" fill="#8F141B"/>
<path d="M277.515 58.7402L270.274 49.2672C269.643 48.428 269.092 47.6398 268.49 46.8788H268.437C268.515 47.5098 268.515 48.5853 268.515 49.4246V58.7402H264.921V41.4481H268.515L275.467 50.5529C276.151 51.4184 276.702 52.1794 277.227 52.9396H277.279C277.227 52.0213 277.227 50.8684 277.227 50.0537V41.4481H280.822V58.7402H277.515Z" fill="#8F141B"/>
<path d="M290.03 41.3682H292.941L300 58.7402H296.141L294.464 54.5143H288.586L286.986 58.7402H283.286L290.03 41.3682ZM293.388 51.6285L292.365 48.7163C291.945 47.457 291.734 46.7206 291.577 46.1442H291.524C291.394 46.7479 291.131 47.4825 290.657 48.7409L289.61 51.6285H293.388Z" fill="#8F141B"/>
<path fill-rule="evenodd" clip-rule="evenodd" d="M36.0606 75.2185L36.0804 75.2191C36.3189 75.226 36.6964 75.2346 37.2196 75.2346C39.8284 75.2346 43.9222 75.0382 48.5961 74.1169C55.2456 72.8062 60.3243 70.8001 64.1661 68.0128C64.2273 67.9676 64.3234 67.9021 64.4324 67.8289C64.4338 67.828 64.4353 67.827 64.4367 67.826L64.495 67.7855L64.4983 67.7832C64.7418 67.6186 65.0537 67.406 65.4109 67.1138C65.7611 66.8251 66.0625 66.5342 66.3296 66.2226L66.3311 66.2207L66.3327 66.2189C66.8512 65.6229 67.2716 64.9157 67.5462 64.1758L67.5473 64.1729C67.8593 63.344 68.0198 62.4232 68.0165 61.4279L68.0165 61.4257L68.0165 17.1949L69.4442 16.4016C69.7883 16.2101 70.0975 15.9763 70.3606 15.7123L70.3623 15.7107L70.364 15.709C70.7556 15.3219 71.0731 14.822 71.2532 14.3152L71.254 14.3129L71.2548 14.3107C71.4046 13.8986 71.4806 13.4607 71.4806 13.0126V8.13112C71.4806 7.77435 71.4246 7.06352 71.0731 6.46248C70.7534 5.91586 70.1514 5.38661 68.86 5.38661H52.8563L52.6967 5.28741C51.9602 4.82949 44.9886 0.658029 36.2494 0.658029H35.8883C27.1483 0.658029 20.1776 4.8303 19.4417 5.28752L19.2822 5.38661H3.27775C1.9884 5.38661 1.38635 5.91562 1.06632 6.4626C0.714545 7.06386 0.658029 7.77488 0.658029 8.13112V13.0126C0.658029 13.4622 0.73278 13.8996 0.882584 14.3097L0.883585 14.3124L0.884562 14.3152C1.06432 14.8212 1.3832 15.3211 1.77413 15.7068L1.77604 15.7087L1.77793 15.7106C2.0434 15.9768 2.35194 16.2106 2.69493 16.402L4.12032 17.1952V61.4257C4.12032 62.4234 4.27957 63.3449 4.5933 64.1711L4.5944 64.174L4.59548 64.1769C4.86814 64.916 5.28833 65.6231 5.80621 66.2193L5.80736 66.2206L5.8085 66.2219C6.07588 66.5331 6.37731 66.824 6.72961 67.1132L6.73126 67.1146C7.06452 67.39 7.36165 67.5932 7.60002 67.7563L7.70577 67.8287L7.75451 67.8619C7.84177 67.9213 7.92093 67.9753 7.97068 68.0114C11.8136 70.7995 16.8919 72.806 23.5423 74.1169C28.2188 75.0373 32.3126 75.2337 34.9216 75.2346M23.4153 74.7626C16.706 73.44 11.5284 71.4057 7.58364 68.5436C7.54294 68.514 7.4748 68.4676 7.38658 68.4074L7.33495 68.3723L7.2264 68.298C6.98796 68.1349 6.66906 67.9168 6.31208 67.6218C5.93422 67.3116 5.60469 66.9944 5.30943 66.6508C4.74 65.9952 4.27866 65.2193 3.97812 64.4047C3.63277 63.4952 3.46229 62.4934 3.46229 61.4257V17.5821L2.37439 16.9766C1.97895 16.7561 1.6213 16.4854 1.31198 16.1752C0.851508 15.7209 0.478037 15.1365 0.2645 14.5355C0.086992 14.0495 0 13.5354 0 13.0126V8.13112C0 7.33233 0.236381 4.72858 3.27775 4.72858H19.0944C19.8625 4.25142 26.9619 0 35.8883 0H36.2494C45.1749 0 52.2753 4.25054 53.0442 4.72858H68.86C71.9049 4.72858 72.1386 7.33233 72.1386 8.13112V13.0126C72.1386 13.5354 72.0499 14.0495 71.8732 14.5355C71.6597 15.1365 71.288 15.7209 70.8266 16.177C70.5191 16.4854 70.1605 16.7561 69.7642 16.9766L68.6745 17.5821V61.4257C68.6781 62.4934 68.5058 63.4943 68.1631 64.4047C67.8608 65.2193 67.3995 65.9952 66.8292 66.6508C66.5339 66.9953 66.2044 67.3125 65.8291 67.6218C65.4469 67.9346 65.1138 68.1614 64.8669 68.3283L64.8036 68.3723C64.6885 68.4496 64.6024 68.5085 64.555 68.5436C60.6111 71.4057 55.4326 73.44 48.7233 74.7626C43.9974 75.694 39.8594 75.8926 37.2196 75.8926C36.6888 75.8926 36.3048 75.8839 36.0614 75.8768C35.8373 75.8839 35.4524 75.8926 34.9216 75.8926C32.2819 75.8918 28.1438 75.6932 23.4153 74.7626ZM34.9216 75.2346C35.445 75.2346 35.8232 75.2259 36.0408 75.2191L36.0606 75.2185" fill="#4D626C"/>
<path d="M51.0355 9.47298V12.7762C51.0355 13.0776 51.3448 13.3272 51.4872 13.4072C53.8502 14.7385 54.3379 15.0258 54.3379 15.6489V56.1172C54.3379 57.4775 53.8238 57.8484 52.8229 58.3413C50.2464 59.6111 44.5415 61.8853 36.1143 61.8853C27.6844 61.8853 21.9813 59.6111 19.4048 58.3413C18.4057 57.8475 17.8872 57.4775 17.8872 56.1172V15.6498C17.8872 15.032 18.3679 14.713 20.6878 13.408C20.8468 13.3175 21.1913 13.1365 21.1913 12.7024V9.54769C21.1913 9.11974 20.9461 8.35346 20.2264 8.35346H4.90449C4.18655 8.35346 3.93787 8.87896 3.93787 9.54769V12.7771C3.93787 13.1717 4.37723 13.2964 4.57495 13.408C6.77359 14.648 7.20946 15.0434 7.20946 15.6498V60.953C7.20946 63.562 8.03461 64.3063 8.96521 64.9812C19.4435 72.5912 36.1134 71.8152 36.1134 71.8152C36.1134 71.8152 51.9925 72.5912 62.4707 64.9812C63.4004 64.3063 65.0165 63.562 65.0165 60.953V15.6498C65.0165 15.0232 65.6536 14.7543 68.0596 13.408C68.1932 13.3316 68.4814 13.155 68.4814 12.7771V9.47387C68.4814 9.04591 68.1712 8.3139 67.4532 8.3139H52.0619C51.3448 8.31303 51.0355 9.04503 51.0355 9.47298Z" fill="#8F141B"/>
<path d="M37.6213 55.7868C35.4674 55.7868 34.2512 54.9475 33.5983 54.4959L33.4252 54.3737C33.0236 54.0899 32.825 53.9528 32.4208 53.9985C31.8584 54.06 31.7406 54.4106 31.7406 54.6945V55.256C31.7406 55.3544 31.6607 55.4344 31.5614 55.4344H27.2898C27.1896 55.4344 27.1096 55.3544 27.1096 55.256V46.6029C27.1096 46.5045 27.1896 46.4245 27.2898 46.4245H33.5579C33.5966 46.4245 33.6379 46.4395 33.6695 46.4649C33.6836 46.4781 35.2012 47.7093 35.6792 48.0634L35.7785 48.1398C36.0158 48.3235 36.3778 48.5994 36.7724 48.5994C37.0685 48.5994 37.3453 48.4527 37.6221 48.146C37.8576 47.8903 37.9675 47.6144 37.9482 47.3261C37.9297 47.015 37.7522 46.7013 37.4534 46.443L30.209 40.8471C29.0517 39.9376 27.1096 38.0122 27.1096 35.339C27.1096 28.9646 32.0148 27.2783 34.6098 27.2783C36.7636 27.2783 37.9771 28.1192 38.6327 28.57L38.8058 28.6913C39.2065 28.9734 39.4007 29.1087 39.8102 29.0656C40.3717 29.0041 40.4895 28.6526 40.4895 28.3688V27.8081C40.4895 27.7088 40.5704 27.628 40.6679 27.628H44.9422C45.0406 27.628 45.1214 27.7088 45.1214 27.8081V36.4595C45.1214 36.5605 45.0406 36.6387 44.9422 36.6387H38.674C38.6336 36.6387 38.594 36.6247 38.5606 36.5992C38.5457 36.5886 37.029 35.354 36.5501 35.0016L36.449 34.9243C36.2126 34.7424 35.8532 34.4665 35.4586 34.4665C35.1616 34.4665 34.8857 34.6132 34.6071 34.9173C34.3734 35.1738 34.2635 35.4498 34.282 35.738C34.3005 36.0508 34.478 36.3619 34.7767 36.6203L42.0221 42.2171C44.0801 43.8788 45.1214 45.7294 45.1214 47.7242C45.1214 50.7014 44.1302 52.9229 42.1741 54.3324C40.3041 55.6813 38.217 55.7868 37.6213 55.7868Z" fill="#8F141B"/>
<path d="M37.6212 57.7982C36.2188 57.7982 34.9182 57.5082 33.753 56.9335V57.1514C33.753 57.3167 33.6194 57.4476 33.456 57.4476H25.3917C25.23 57.4476 25.0946 57.3167 25.0946 57.1514V44.7092C25.0946 44.5466 25.23 44.4139 25.3917 44.4139H31.5245C30.7626 43.8304 29.5569 42.9042 28.8794 42.3655C27.7414 41.4604 25.0938 38.9657 25.0938 35.3417C25.0938 30.8644 27.1456 28.425 28.8645 27.164C31.2661 25.4056 33.8663 25.2694 34.608 25.2694C36.0123 25.2694 37.3093 25.5594 38.4763 26.1367V25.9162C38.4763 25.7527 38.6081 25.6209 38.7715 25.6209H46.8367C47.0002 25.6209 47.1338 25.7527 47.1338 25.9162V38.3576C47.1338 38.5228 47.0002 38.6546 46.8367 38.6546H40.6978C41.3744 39.1765 42.4351 39.9955 43.3472 40.7003C45.1759 42.1169 47.1346 44.7074 47.1346 47.7259C47.1346 52.284 45.0766 54.7235 43.3498 55.966C40.9939 57.6655 38.3691 57.7982 37.6212 57.7982ZM33.456 56.1444C33.5078 56.1444 33.557 56.1576 33.6027 56.183C34.8066 56.872 36.1212 57.2059 37.6212 57.2059C38.3251 57.2059 40.7909 57.0811 43.0036 55.4845C44.6188 54.3219 46.5406 52.0318 46.5406 47.725C46.5406 44.9218 44.7023 42.5 42.9843 41.1696C41.5115 40.0272 39.6494 38.5904 39.6494 38.5904C39.5492 38.514 39.5088 38.3822 39.5492 38.2609C39.5914 38.1414 39.7021 38.0605 39.8313 38.0605H46.5406V26.2114H39.0712V26.6253C39.0712 26.7334 39.015 26.8292 38.9218 26.8828C38.8304 26.9346 38.7197 26.9364 38.6265 26.8828C37.4244 26.1965 36.1098 25.8608 34.6089 25.8608C33.9147 25.8608 31.4735 25.9909 29.216 27.6421C27.6061 28.8187 25.6869 31.1114 25.6869 35.3399C25.6869 38.7064 28.1773 41.0483 29.2485 41.8998C30.281 42.7223 32.5561 44.4561 32.5798 44.4746C32.6809 44.5501 32.7196 44.6819 32.6809 44.8032C32.6387 44.9236 32.5254 45.0044 32.3997 45.0044H25.6869V56.8535H33.159V56.4388C33.159 56.3324 33.2152 56.2367 33.3057 56.1822C33.3523 56.1576 33.4041 56.1444 33.456 56.1444Z" fill="#4D626C"/>
<path d="M27.8459 28.288C25.5067 26.9127 24.5699 25.0427 24.1956 23.7167C23.7896 22.2773 23.9372 21.1736 23.9434 21.1279L24.3318 21.1824C24.3265 21.2245 23.8002 25.4513 28.0463 27.9479L27.8459 28.288Z" fill="#4D626C"/>
<path d="M46.9328 25.9259L46.6121 25.6965C48.1912 23.4812 47.8388 21.0945 47.8353 21.0707L48.2263 21.0172C48.2422 21.1173 48.6042 23.584 46.9328 25.9259Z" fill="#4D626C"/>
<path d="M36.019 25.5383C31.605 25.5383 28.5909 24.3256 26.8378 23.308C24.9327 22.1999 24.0847 21.0997 24.0486 21.054L24.3624 20.815C24.3966 20.8581 27.7631 25.1437 36.019 25.1437C40.3346 25.1437 43.2749 23.9662 44.9788 22.9794C46.8277 21.9091 47.6669 20.8255 47.6748 20.815L47.9894 21.054C47.9525 21.1006 47.1045 22.2008 45.1985 23.308C43.4489 24.3256 40.4347 25.5383 36.019 25.5383Z" fill="#4D626C"/>
<path d="M50.3361 52.7726C50.3361 52.4615 50.3326 51.8587 50.3291 51.0353C50.3238 49.0564 50.3142 45.8718 50.3106 42.3717V42.1344C50.3089 40.8101 50.3062 38.6563 50.3062 37.2951C51.4363 36.6422 53.9373 33.8355 50.1779 23.8511C49.6788 22.3941 49.1032 21.5874 48.6709 21.1639C49.2184 20.902 49.663 20.4002 49.9293 19.9398C50.5787 18.8211 50.7922 17.3545 50.9056 16.5662C50.931 16.3993 50.9477 16.2675 50.9671 16.1857C51.1384 15.3659 50.9222 14.9449 50.1604 14.6321L49.1823 14.2252V9.46942C49.1823 8.53267 49.2693 8.45534 49.5558 8.19347C49.6156 8.13548 49.6885 8.07309 49.7658 7.99312C50.0725 7.68819 50.2026 7.3235 50.1331 6.96585C50.0725 6.6618 49.8396 6.23121 49.0742 5.9052C43.292 3.3823 37.9211 3.18811 36.4114 3.18811C36.248 3.18811 36.1557 3.19074 36.1539 3.19074C36.1399 3.19074 36.0458 3.18811 35.8815 3.18811C34.3736 3.18811 29.0044 3.38318 23.2231 5.9052C22.4524 6.23121 22.2222 6.6618 22.1642 6.96585C22.0921 7.32438 22.2222 7.68819 22.528 7.99312C22.5992 8.06694 22.6686 8.12846 22.7292 8.18382C23.0175 8.45096 23.0939 8.52124 23.0939 9.46942L23.0957 14.2217C22.8645 14.3131 22.463 14.4775 22.1079 14.6347C21.3478 14.9687 21.1378 15.3746 21.3109 16.1857C21.3276 16.2675 21.3478 16.3993 21.3716 16.5662C21.4849 17.3545 21.6993 18.8211 22.3478 19.9398C22.7011 20.5461 23.0825 20.9468 23.5025 21.1621C23.0025 21.6709 22.5034 22.5356 22.0403 23.7202C18.9409 31.9479 19.926 36.1897 21.9313 37.3259C21.934 42.3787 21.9454 48.3191 21.955 51.0415C21.9559 51.8631 21.9577 52.4624 21.9594 52.7735C21.6431 53.0565 21.2846 53.6962 21.18 54.3377C21.0649 55.0477 21.2529 55.6716 21.7231 56.1435C22.97 57.3896 31.1925 59.0416 36.146 59.0416C41.1013 59.0416 49.3203 57.3896 50.5699 56.1435C51.0391 55.6716 51.2289 55.0477 51.1156 54.3377C51.0119 53.6971 50.6507 53.0573 50.3361 52.7726ZM49.9363 15.1805C50.4346 15.3861 50.5013 15.5196 50.3889 16.0653C50.3686 16.1559 50.3458 16.3 50.3203 16.4828C50.2131 17.2323 50.0084 18.6269 49.4178 19.6436C49.2755 19.8906 49.0619 20.163 48.8053 20.3783C48.6375 20.5197 48.1524 20.7605 48.0979 19.8826C48.061 19.3079 48.134 18.7368 48.3466 18.1761C48.8915 16.7429 49.1226 15.8413 49.1718 14.8659L49.9363 15.1805ZM43.3202 12.1795C41.3166 12.0802 40.0433 13.1031 39.2911 14.0802C38.7102 14.488 37.5318 15.1558 36.0775 15.1119C34.5783 15.1119 33.392 14.3887 32.8472 13.9862C32.0853 13.0363 30.8296 12.0846 28.8884 12.1795C25.7477 12.3263 24.4516 14.7516 24.0025 16.3931C23.8391 15.7384 23.7319 15.1066 23.6915 14.5029L24.5711 14.205C24.6414 14.1822 24.6915 14.1136 24.6924 14.0372L24.7117 12.6479C25.3128 12.4255 28.319 11.3649 32.8463 10.8095C32.9377 10.7972 33.0019 10.7216 33.0019 10.632V10.1461H38.9079V10.632C38.9079 10.7234 38.9774 10.8007 39.0679 10.8095C39.118 10.8157 43.9458 11.3333 47.6094 12.7182V14.0187C47.6094 14.0925 47.6533 14.1576 47.7201 14.1857C47.7341 14.1892 48.0083 14.3017 48.59 14.4977C48.5848 15.1664 48.5039 15.7543 48.2965 16.488C47.8484 14.8737 46.5434 12.328 43.3202 12.1795ZM46.293 14.0556C46.1199 14.3474 45.1146 15.836 42.9933 15.5205C42.0952 15.3861 41.48 14.8896 41.1154 14.4045C40.7173 13.8808 40.8403 13.4115 40.959 13.3403C41.5644 12.9712 42.3325 12.7261 43.2912 12.7691C44.6339 12.8342 45.6023 13.3623 46.293 14.0556ZM38.5301 15.8088C38.545 15.814 39.9352 16.2868 41.0521 17.6594C41.1409 17.7877 40.8579 18.0381 40.6567 17.9854C40.2006 17.8659 39.1979 17.6489 38.56 18.4828C38.5547 18.4907 38.5468 18.496 38.5424 18.503C38.48 18.568 37.7067 19.3484 36.1592 19.3484C34.5862 19.3484 33.7295 18.532 33.6855 18.4881C32.7874 17.6779 31.9289 17.9151 31.4175 17.9872C31.1714 18.0232 30.9069 17.8439 31.0475 17.6401C32.1714 16.285 33.6539 15.8167 33.6697 15.8114C33.8112 15.7525 33.8859 15.5961 33.841 15.4494C33.834 15.4371 33.6961 15.314 33.3656 14.7455C34.0353 15.1101 34.9685 15.4678 36.0704 15.4678C36.1223 15.4687 36.168 15.4687 36.2198 15.4687C37.2708 15.4687 38.1663 15.1383 38.8148 14.792C38.5037 15.3369 38.3701 15.4371 38.3658 15.4494C38.3227 15.5935 38.3939 15.7472 38.5301 15.8088ZM31.2259 14.2973C30.8621 14.8061 30.2364 15.3773 29.2707 15.5214C27.101 15.8422 26.0992 14.2788 25.956 14.0372C26.6353 13.3517 27.5905 12.8324 28.913 12.7709C29.8673 12.7279 30.6196 12.9809 31.2312 13.3298C31.4447 13.4493 31.5255 13.8781 31.2259 14.2973ZM23.6844 9.36309C24.4823 9.07486 27.6283 7.96764 30.1213 7.55023C30.1398 7.56165 30.1635 7.57571 30.1881 7.59153C31.9842 8.68997 33.9808 9.24447 36.1223 9.24447C38.2612 9.24447 40.2568 8.68997 42.0521 7.59153C42.0794 7.57571 42.1022 7.56078 42.1207 7.55023C44.6146 7.96764 47.7877 9.07486 48.59 9.36309C48.59 9.39912 48.5892 9.43517 48.5892 9.47207V14.1198C48.2886 14.0179 48.0804 13.9414 47.9661 13.8983V12.5951C47.9661 12.5213 47.9213 12.4545 47.851 12.4273C44.5109 11.1399 40.1496 10.5775 39.2656 10.4721V9.96857C39.2656 9.86839 39.1865 9.78841 39.0872 9.78841H32.8226C32.725 9.78841 32.6459 9.86839 32.6459 9.96857V10.4747C27.6353 11.1074 24.4982 12.3456 24.4656 12.3588C24.3989 12.386 24.3549 12.4502 24.3523 12.5231L24.3347 13.908L23.6844 14.1286V9.47119C23.6862 9.43428 23.6844 9.39912 23.6844 9.36309ZM22.9472 7.57748C22.8531 7.48257 22.702 7.29363 22.7433 7.08009C22.7899 6.8481 23.0403 6.62753 23.4595 6.45002C29.283 3.90867 34.8305 3.78037 35.8824 3.78037C36.0476 3.78037 36.1337 3.78214 36.1574 3.78214C36.1601 3.78214 36.2488 3.78037 36.4114 3.78037C37.465 3.78037 43.0135 3.90868 48.8396 6.45179C49.2535 6.62754 49.5083 6.84898 49.5523 7.08009C49.5936 7.29363 49.4442 7.48257 49.3493 7.57748C49.2799 7.64778 49.2148 7.70577 49.156 7.75849C48.8449 8.04321 48.6893 8.23565 48.6252 8.74621C47.5848 8.37889 44.5267 7.3367 42.1207 6.94917C42.1031 6.94741 42.0882 6.9474 42.0723 6.9474C41.9757 6.9474 41.9159 6.98079 41.7454 7.08624C40.0433 8.12756 38.1505 8.65395 36.1241 8.65395C34.0933 8.65395 32.2013 8.12756 30.4983 7.08624C30.3006 6.96409 30.2355 6.93335 30.1239 6.94917C27.7205 7.3367 24.688 8.37537 23.6563 8.74621C23.5939 8.22862 23.4375 8.03354 23.1299 7.75058C23.0755 7.69962 23.0139 7.64426 22.9472 7.57748ZM23.1783 20.119C23.0702 19.9828 22.9647 19.8246 22.8593 19.6427C22.2688 18.626 22.0649 17.2315 21.9568 16.4819C21.9322 16.2991 21.9076 16.155 21.89 16.0627C21.7767 15.5258 21.8408 15.4028 22.3478 15.1778C22.6115 15.06 22.9041 14.9405 23.1291 14.8483C23.2319 15.9054 23.5087 17.0223 23.9489 18.1752C24.137 18.6691 24.159 19.2587 24.0922 19.8967C24.0148 20.6111 23.4147 20.4161 23.1783 20.119ZM50.1507 55.7252C49.2069 56.6725 41.4528 58.4485 36.1469 58.4485C33.0511 58.4485 29.1204 57.8439 26.1959 57.1506H25.3049V56.9282C23.6713 56.5012 22.4797 56.0591 22.1431 55.7252C21.8188 55.4001 21.6905 54.9836 21.7582 54.4853C21.847 53.8157 22.2617 53.2577 22.3874 53.1865C22.3909 53.1839 22.3935 53.1804 22.3979 53.1804C22.8136 53.357 23.8206 53.7603 25.3057 54.1988V53.8236C23.9103 53.4079 22.9533 53.0266 22.5526 52.8552C22.5526 52.5802 22.5508 51.9484 22.5473 51.038C22.5421 49.4474 22.535 47.0229 22.5297 44.2742C23.0447 44.3831 24.1387 44.6196 25.3049 44.8384V44.7083L26.63 44.631C25.0166 44.3559 23.1624 44.0457 22.5297 43.9078C22.5297 43.4271 22.528 42.9394 22.528 42.442C22.9805 42.5633 26.1458 43.3875 30.6855 43.8296C31.087 44.1398 31.4895 44.4491 31.8314 44.7083H32.3129C32.3129 44.7083 30.4166 43.2628 29.2856 42.3761C29.1942 42.5044 29.2171 42.6801 29.3392 42.7785C29.5642 42.9569 29.8471 43.1784 30.1512 43.4165C25.6247 42.9306 22.608 42.0923 22.5675 42.0808C22.5544 42.0791 22.5429 42.08 22.5289 42.0791C22.5289 40.8515 22.5253 39.5825 22.5253 38.3233C22.9032 38.0105 24.4595 37.8488 25.8989 37.8488C25.9912 37.8488 26.0694 37.9147 26.123 37.8488C26.0439 37.6906 25.9701 37.5798 25.9006 37.4146L25.8989 37.2565C24.1475 37.2565 23.4762 37.3496 22.3434 36.8716C21.3513 36.4533 20.5982 35.1202 20.6756 31.955C20.7134 30.4576 21.1545 28.6051 21.1545 28.6051C21.4682 27.2378 21.9331 25.6877 22.593 23.9355C23.144 22.5312 23.6352 21.8633 23.9577 21.5444L24.4402 20.9987C24.7178 19.7394 24.8259 18.8176 24.5008 17.9643C24.4639 17.8624 24.4279 17.7596 24.3918 17.6585C24.3918 17.0944 24.6888 15.4845 25.7495 14.2621C25.9964 14.6426 26.9402 15.8623 28.7091 15.8623C28.9042 15.8623 29.1063 15.8483 29.3155 15.8158C30.906 15.5803 31.631 14.3289 31.8691 13.7982C32.6187 14.4713 33.0238 14.9801 33.1873 15.3834C32.6512 15.6488 31.3955 16.2033 30.4289 17.4643V17.4661C30.4271 17.467 30.4271 17.467 30.4271 17.467C30.4183 17.4766 30.2109 17.8009 30.406 18.0276V18.0293V18.0311C30.4702 18.148 31.0572 18.8158 33.3639 18.981C33.7453 19.3282 34.7163 19.9398 36.161 19.9398C37.6223 19.9398 38.5415 19.3273 38.8921 18.981C41.2278 18.8079 41.6294 18.0847 41.6962 17.9907C41.8333 17.8009 41.7182 17.5496 41.6576 17.467C40.6953 16.2121 39.5231 15.6576 39.0195 15.3905C39.183 14.9827 39.5986 14.4467 40.3799 13.7639C40.6048 14.2718 41.3219 15.5741 42.9476 15.8149C43.1611 15.8474 43.3632 15.8615 43.5548 15.8615C45.2991 15.8615 46.2394 14.676 46.5056 14.2797C47.605 15.5354 47.9037 17.1866 47.9037 17.6577L47.9073 17.6612C47.8712 17.7596 47.8352 17.8598 47.7939 17.9635C47.4143 18.9573 47.4459 20.0602 47.7236 20.9978L48.6621 22.0716C48.9565 22.489 49.2992 23.1173 49.6199 24.0523C50.3704 26.0515 50.8643 27.7844 51.185 29.2712C51.4267 30.3829 51.5646 32.15 51.5646 32.15C51.6674 34.7678 50.8968 36.4085 49.9064 36.8355C48.8528 37.2907 47.9635 37.2714 46.7816 37.2714C46.7684 37.2714 46.7596 37.2758 46.7482 37.2767V37.4103H46.7174C46.7174 37.5737 46.5109 37.7046 46.6744 37.7046C47.6814 37.7046 48.7096 37.6836 49.7122 38.3224C49.7122 39.6432 49.714 40.9156 49.7157 42.1968C48.2763 42.5844 46.6849 42.8761 45.1471 43.0958C45.2218 43.2004 45.2947 43.3111 45.3685 43.4244C46.6761 43.2267 47.9872 42.971 49.1647 42.7048C49.6199 42.6011 49.7166 42.8049 49.7166 43.3278C49.7166 43.848 49.6331 43.9122 49.2263 43.9956C48.4872 44.1503 47.2368 44.4078 46.0355 44.6195C46.0856 44.7311 46.1392 44.8436 46.1849 44.9579C47.6436 44.6969 49.1472 44.3805 49.7184 44.2592C49.7245 46.9992 49.7342 49.4211 49.7377 51.0371C49.7377 51.9422 49.7403 52.5784 49.7403 52.8535C49.1287 53.1083 47.25 53.8359 44.4898 54.444C44.3509 54.6057 44.2077 54.7612 44.0627 54.9018C47.1436 54.2647 49.2438 53.4501 49.8932 53.1768C49.8976 53.1804 49.9003 53.183 49.9055 53.1865C50.033 53.2568 50.446 53.8157 50.5374 54.4853C50.605 54.9844 50.475 55.4001 50.1507 55.7252ZM40.8922 20.5417C40.8403 20.5417 40.7929 20.547 40.7533 20.5549C39.1707 20.8765 36.3376 20.8853 36.0248 20.8853C35.711 20.8853 32.8797 20.8765 31.2962 20.5549C31.2531 20.5479 31.2066 20.5417 31.1565 20.5417C30.6986 20.5417 30.0879 20.9126 29.8594 21.6033C29.7223 22.0075 29.8128 22.4882 30.1011 22.888C30.3612 23.2483 30.7188 23.4609 31.0589 23.4609H36.0239H40.9871C41.3298 23.4609 41.6839 23.2474 41.9449 22.888C42.2331 22.4873 42.3237 22.0075 42.1901 21.6033C41.9599 20.9134 41.3491 20.5417 40.8922 20.5417ZM40.4721 21.1507C40.6057 21.1296 40.7349 21.0988 40.8579 21.0821C41.067 21.0531 41.3816 21.1639 41.4932 21.4214C41.5152 21.475 41.4985 21.6015 41.191 21.6683C40.973 21.7149 40.6786 21.7553 40.3069 21.8001L40.4721 21.1507ZM33.2786 21.33C34.5607 21.417 36.0248 21.4214 36.0248 21.4214C36.0248 21.4214 37.487 21.417 38.7682 21.33L39.0319 21.9126C38.1346 21.9793 37.0652 22.0136 36.0248 22.0136C34.9834 22.0136 33.9149 21.9793 33.0159 21.9126L33.2786 21.33ZM30.5563 21.4214C30.6688 21.1639 30.9807 21.0531 31.1907 21.0821C31.3146 21.0988 31.4429 21.1296 31.5765 21.1507L31.7417 21.8001C31.3691 21.7553 31.0765 21.7149 30.8559 21.6683C30.5519 21.6006 30.5326 21.475 30.5563 21.4214ZM31.0598 22.9258C30.8999 22.9258 30.689 22.7843 30.5396 22.5734C30.4482 22.4495 30.3902 22.315 30.3594 22.185C30.3137 21.9881 30.4631 21.9284 30.703 21.9688C30.9693 22.0136 31.3349 22.0804 31.8287 22.1358L32.0282 22.9258H31.0598ZM32.225 22.3968C32.167 22.1744 31.9245 21.2008 31.9245 21.2008C32.2479 21.2412 32.5906 21.2764 32.9351 21.3045C32.9351 21.3045 32.5177 22.2359 32.443 22.3968C32.3595 22.5787 32.2857 22.6305 32.225 22.3968ZM36.0248 22.9258H32.5616L32.8753 22.228L32.8788 22.2298C33.8129 22.3018 34.9333 22.337 36.0248 22.337C37.1162 22.337 38.2339 22.3018 39.1707 22.2298V22.228L39.4862 22.9258H36.0248ZM39.6057 22.3968C39.5319 22.2351 39.1127 21.3045 39.1127 21.3045C39.458 21.2764 39.8025 21.2412 40.125 21.2008C40.125 21.2008 39.8825 22.1744 39.8262 22.3968C39.7647 22.6305 39.6883 22.5787 39.6057 22.3968ZM41.5091 22.5734C41.3597 22.7843 41.1488 22.9258 40.9888 22.9258H40.0213L40.2217 22.1358C40.7138 22.0804 41.082 22.0136 41.3447 21.9688C41.5846 21.9284 41.7366 21.9881 41.6892 22.185C41.6593 22.315 41.6013 22.4495 41.5091 22.5734Z" fill="#4D626C"/>
</svg>
